M48
INCH,TZ
T1C0.025
T2C0.032
T3C0.043
T4C0.063
T5C0.067
T6C0.120
%
G90
G05
T1
X67160Y-75050
X67185Y-77265
X69090Y-75080
X69900Y-77190
X71030Y-67410
X71050Y-66640
X71360Y-69340
X71520Y-66630
X71540Y-67410
X71540Y-74910
X71720Y-77190
X72385Y-77105
X73030Y-75020
X73365Y-67320
X73510Y-76500
X73860Y-63960
X74125Y-70785
X74230Y-76430
X74330Y-63490
X74520Y-68390
X74570Y-66310
X74570Y-73820
X74975Y-64650
X75000Y-67485
X75160Y-62160
X75280Y-66295
X75570Y-71200
X75600Y-70230
X76220Y-71140
X76230Y-70240
X76820Y-76040
X77040Y-74960
X77350Y-75770
X78260Y-77155
X78370Y-66325
X78490Y-70140
X78505Y-69665
X78975Y-72210
X79020Y-63570
X79990Y-65725
X80030Y-64450
X80170Y-70440
X80590Y-74545
X80780Y-76520
X80810Y-75680
X80950Y-60810
X81075Y-66145
X81125Y-74535
X81195Y-62850
X81520Y-68290
X81570Y-69455
X81810Y-76000
X81830Y-65885
X82095Y-67250
X82105Y-65350
X82150Y-72990
X82210Y-76360
X82260Y-75680
X82590Y-73425
X82710Y-61355
X82730Y-60105
X83250Y-65170
X83320Y-71730
X83330Y-73100
X83575Y-59855
X83995Y-60625
X84310Y-76390
X84465Y-60435
X84490Y-73415
X84680Y-59610
X84700Y-71580
X84780Y-72660
X85120Y-68120
X85160Y-68660
X85350Y-59610
X85470Y-60620
X85940Y-60480
X85995Y-67815
X86050Y-76390
X86110Y-66900
X86150Y-75945
X86315Y-67585
X86345Y-67970
X86415Y-69155
X86525Y-72485
X86730Y-68005
X86805Y-74675
X86820Y-68795
X86870Y-75325
X87120Y-68040
X87270Y-74835
X87305Y-73725
X87305Y-75630
X87460Y-67770
X87565Y-74345
X87640Y-60445
X87780Y-76505
X87800Y-75630
X87915Y-69935
X88025Y-60465
X88075Y-68990
X88265Y-60800
X88280Y-61230
X88370Y-74460
X88410Y-61610
X88440Y-67660
X88450Y-68265
X88555Y-75095
X88635Y-77030
X88640Y-70230
X88795Y-68565
X88850Y-61765
X88955Y-67540
X89065Y-60755
X89140Y-68795
X89150Y-68110
X89260Y-61930
X89320Y-73415
X89325Y-72780
X89345Y-67420
X89455Y-69250
X89565Y-60745
X89620Y-62125
X89645Y-60370
X89725Y-67320
X89805Y-62845
X89815Y-62455
X89815Y-74815
X89865Y-69490
X89915Y-63225
X90500Y-65210
X90575Y-71595
X90675Y-74955
X90820Y-63330
X91105Y-59960
X91320Y-63390
X91350Y-62500
X91430Y-63980
X91440Y-60270
X91575Y-69270
X92180Y-69560
X92200Y-73350
X92300Y-70135
X92460Y-64220
X92565Y-76065
X92615Y-70430
X92745Y-60520
X92745Y-63330
X92755Y-62520
X92770Y-64560
X92980Y-65640
X92990Y-73360
X93060Y-66375
X93365Y-65910
X93415Y-70825
X93470Y-61230
X93560Y-67250
X93660Y-65605
X93715Y-60905
X93820Y-64545
X94340Y-70460
X94360Y-60605
X94460Y-69305
X94550Y-64180
X94710Y-65450
X95010Y-61690
X95822Y-67167
X95880Y-62510
X95990Y-64480
X96150Y-61685
X96815Y-60795
X96860Y-66180
X97018Y-62548
X99590Y-67560
X100030Y-67540
X100490Y-67570
X101080Y-74305
X101625Y-60885
X101680Y-70600
X101720Y-68040
X102050Y-64650
X102110Y-62490
X103590Y-66160
X105950Y-69915
X106435Y-66430
X106435Y-69365
X107925Y-68355
X108050Y-67850
X108440Y-64690
X108740Y-70225
X108925Y-66885
X109440Y-68375
X109705Y-69375
X109730Y-66170
X110110Y-64720
X111440Y-67425
X112010Y-65400
X112080Y-68420
T2
X67540Y-73875
X68540Y-73875
X70740Y-73390
X70740Y-74390
T3
X68204Y-67224
X68204Y-68956
X69489Y-62046
X69489Y-64644
T4
X115922Y-62500
T5
X114922Y-61500
X114922Y-63500
X116922Y-61500
X116922Y-63500
T6
X77370Y-61215
X95685Y-70965
X108675Y-75705
X111780Y-62240
T0
M30
