G04 (created by PCBNEW (2013-07-07 BZR 4022)-stable) date 09/11/2014 09:40:27*
%MOIN*%
G04 Gerber Fmt 3.4, Leading zero omitted, Abs format*
%FSLAX34Y34*%
G01*
G70*
G90*
G04 APERTURE LIST*
%ADD10C,0.00590551*%
%ADD11R,0.0315X0.0394*%
%ADD12R,0.0590551X0.0590551*%
%ADD13C,0.0866142*%
%ADD14C,0.0984252*%
%ADD15R,0.055X0.035*%
%ADD16R,0.035X0.055*%
%ADD17R,0.0385827X0.0590551*%
%ADD18R,0.0629921X0.0314961*%
%ADD19R,0.0866142X0.0472441*%
%ADD20R,0.0984252X0.0472441*%
%ADD21R,0.0551181X0.0433071*%
%ADD22R,0.0334646X0.0688976*%
%ADD23R,0.0492126X0.0787402*%
%ADD24R,0.2165X0.0787*%
%ADD25C,0.0433071*%
%ADD26R,0.23622X0.0787402*%
%ADD27O,0.0106299X0.0708661*%
%ADD28R,0.06X0.06*%
%ADD29C,0.06*%
%ADD30C,0.16*%
%ADD31C,0.035*%
%ADD32C,0.01*%
G04 APERTURE END LIST*
G54D10*
G54D11*
X111045Y-68908D03*
X111420Y-68042D03*
X110670Y-68042D03*
G54D12*
X111110Y-69758D03*
X100530Y-70803D03*
G54D13*
X115922Y-62500D03*
G54D14*
X114922Y-63500D03*
X114922Y-61500D03*
X116922Y-61500D03*
X116922Y-63500D03*
G54D15*
X76890Y-70755D03*
X76890Y-70005D03*
X81030Y-70680D03*
X81030Y-69930D03*
G54D16*
X74545Y-65240D03*
X73795Y-65240D03*
X74545Y-67240D03*
X73795Y-67240D03*
X87385Y-71720D03*
X86635Y-71720D03*
G54D15*
X103100Y-69285D03*
X103100Y-68535D03*
X102390Y-69295D03*
X102390Y-68545D03*
X101090Y-69345D03*
X101090Y-68595D03*
G54D16*
X95635Y-60760D03*
X94885Y-60760D03*
X96585Y-60280D03*
X97335Y-60280D03*
G54D15*
X92470Y-61075D03*
X92470Y-61825D03*
X91750Y-61075D03*
X91750Y-61825D03*
X90250Y-61815D03*
X90250Y-61065D03*
X90970Y-61815D03*
X90970Y-61065D03*
X93315Y-64510D03*
X93315Y-63760D03*
X94725Y-62645D03*
X94725Y-63395D03*
G54D16*
X87915Y-72360D03*
X88665Y-72360D03*
X89465Y-71940D03*
X90215Y-71940D03*
X91500Y-72840D03*
X90750Y-72840D03*
G54D15*
X83310Y-73575D03*
X83310Y-74325D03*
X86770Y-73345D03*
X86770Y-74095D03*
G54D16*
X91500Y-72135D03*
X90750Y-72135D03*
X85535Y-63905D03*
X86285Y-63905D03*
X85905Y-72110D03*
X85155Y-72110D03*
G54D17*
X103596Y-67371D03*
X103096Y-67371D03*
X102596Y-67371D03*
X102096Y-67371D03*
X101596Y-67371D03*
X101096Y-67371D03*
G54D18*
X97781Y-62548D03*
X97781Y-62981D03*
X97781Y-63414D03*
X97781Y-63847D03*
X97781Y-64280D03*
X97781Y-64713D03*
X97781Y-65146D03*
X97781Y-65579D03*
G54D19*
X97820Y-61501D03*
G54D20*
X98292Y-60910D03*
G54D21*
X104165Y-60481D03*
G54D22*
X104562Y-66396D03*
G54D23*
X98105Y-66682D03*
G54D24*
X76845Y-72140D03*
X80545Y-72140D03*
G54D25*
X68203Y-68956D03*
X68203Y-67223D03*
G54D26*
X76848Y-65413D03*
X76848Y-67106D03*
G54D27*
X91514Y-70856D03*
X91258Y-70856D03*
X91002Y-70856D03*
X90746Y-70856D03*
X90490Y-70856D03*
X90234Y-70856D03*
X89979Y-70856D03*
X89723Y-70856D03*
X89467Y-70856D03*
X89211Y-70856D03*
X88955Y-70856D03*
X88699Y-70856D03*
X88443Y-70856D03*
X88187Y-70856D03*
X87931Y-70856D03*
X87675Y-70856D03*
X87420Y-70856D03*
X87164Y-70856D03*
X86908Y-70856D03*
X86652Y-70856D03*
X86396Y-70856D03*
X86140Y-70856D03*
X85884Y-70856D03*
X85628Y-70856D03*
X85372Y-70856D03*
X85116Y-70856D03*
X84860Y-70856D03*
X84605Y-70856D03*
X84349Y-70856D03*
X84093Y-70856D03*
X83837Y-70856D03*
X83581Y-70856D03*
X83325Y-70856D03*
X83325Y-66043D03*
X83581Y-66043D03*
X83837Y-66043D03*
X84093Y-66043D03*
X84349Y-66043D03*
X84605Y-66043D03*
X84860Y-66043D03*
X85116Y-66043D03*
X85372Y-66043D03*
X85628Y-66043D03*
X85884Y-66043D03*
X86140Y-66043D03*
X86396Y-66043D03*
X86652Y-66043D03*
X86908Y-66043D03*
X87164Y-66043D03*
X87420Y-66043D03*
X87675Y-66043D03*
X87931Y-66043D03*
X88187Y-66043D03*
X88443Y-66043D03*
X88699Y-66043D03*
X88955Y-66043D03*
X89211Y-66043D03*
X89467Y-66043D03*
X89723Y-66043D03*
X89979Y-66043D03*
X90234Y-66043D03*
X90490Y-66043D03*
X90746Y-66043D03*
X91002Y-66043D03*
X91258Y-66043D03*
X91514Y-66043D03*
G54D28*
X68540Y-73875D03*
G54D29*
X67540Y-73875D03*
G54D28*
X70740Y-73390D03*
G54D29*
X70740Y-74390D03*
G54D25*
X69488Y-62045D03*
X69488Y-64644D03*
G54D30*
X77370Y-61215D03*
X95685Y-70965D03*
X111780Y-62240D03*
X108675Y-75705D03*
G54D31*
X93415Y-70825D03*
X74520Y-68390D03*
X92745Y-63330D03*
X92755Y-62520D03*
X93820Y-64545D03*
X94710Y-65450D03*
X92770Y-64560D03*
X90500Y-65210D03*
X83330Y-73100D03*
X83320Y-71730D03*
X94360Y-60605D03*
X71540Y-74910D03*
X77040Y-74960D03*
X80780Y-76520D03*
X82210Y-76360D03*
X92565Y-76065D03*
X90675Y-74955D03*
X88635Y-77030D03*
X89065Y-60755D03*
X84490Y-73415D03*
X87305Y-73725D03*
X67160Y-75050D03*
X69090Y-75080D03*
X81195Y-62850D03*
X80950Y-60810D03*
X74125Y-70785D03*
X71540Y-67410D03*
X71520Y-66630D03*
X73860Y-63960D03*
X78260Y-77155D03*
X77350Y-75770D03*
X79020Y-63570D03*
X74330Y-63490D03*
X75160Y-62160D03*
X112010Y-65400D03*
X102050Y-64650D03*
X102110Y-62490D03*
X110110Y-64720D03*
X101625Y-60885D03*
X95821Y-67166D03*
X81810Y-76000D03*
X82150Y-72990D03*
X67185Y-77265D03*
X78975Y-72210D03*
X95990Y-64480D03*
X71360Y-69340D03*
X94340Y-70460D03*
X88640Y-70230D03*
X93560Y-67250D03*
X83250Y-65170D03*
X94460Y-69305D03*
X90575Y-71595D03*
X78505Y-69665D03*
X81570Y-69455D03*
X81520Y-68290D03*
X73365Y-67320D03*
X82095Y-67250D03*
X82710Y-61355D03*
X82105Y-65350D03*
X89325Y-72780D03*
X89320Y-73415D03*
X94550Y-64180D03*
X92460Y-64220D03*
X91430Y-63980D03*
X90820Y-63330D03*
X92200Y-73350D03*
X92990Y-73360D03*
X101720Y-68040D03*
X101680Y-70600D03*
X81075Y-66145D03*
X78490Y-70140D03*
X85940Y-60480D03*
X84465Y-60435D03*
X76820Y-76040D03*
X85470Y-60620D03*
X82730Y-60105D03*
X83995Y-60625D03*
X81830Y-65885D03*
X84700Y-71580D03*
X75000Y-67485D03*
X80030Y-64450D03*
X74975Y-64650D03*
X82590Y-73425D03*
X91105Y-59960D03*
X89645Y-60370D03*
X86805Y-74675D03*
X86870Y-75325D03*
X71050Y-66640D03*
X71030Y-67410D03*
X83575Y-59855D03*
X80810Y-75680D03*
X82260Y-75680D03*
X89815Y-74815D03*
X87565Y-74345D03*
X88555Y-75095D03*
X87270Y-74835D03*
X87305Y-75630D03*
X86050Y-76390D03*
X84310Y-76390D03*
X91440Y-60270D03*
X89565Y-60745D03*
X84780Y-72660D03*
X86525Y-72485D03*
X96860Y-66180D03*
X91350Y-62500D03*
X91320Y-63390D03*
X88410Y-61610D03*
X88440Y-67660D03*
X86110Y-66900D03*
X92980Y-65640D03*
X86730Y-68005D03*
X89150Y-68110D03*
X93365Y-65910D03*
X86315Y-67585D03*
X88280Y-61230D03*
X87120Y-68040D03*
X88075Y-68990D03*
X89345Y-67420D03*
X89725Y-67320D03*
X89815Y-62455D03*
X87640Y-60445D03*
X89620Y-62125D03*
X85995Y-67815D03*
X89915Y-63225D03*
X87460Y-67770D03*
X89260Y-61930D03*
X85120Y-68120D03*
X88955Y-67540D03*
X88850Y-61765D03*
X93060Y-66375D03*
X88265Y-60800D03*
X86415Y-69155D03*
X88450Y-68265D03*
X93660Y-65605D03*
X89805Y-62845D03*
X88025Y-60465D03*
X86820Y-68795D03*
X88795Y-68565D03*
X92180Y-69560D03*
X85160Y-68660D03*
X86345Y-67970D03*
X92300Y-70135D03*
X92745Y-60520D03*
X93470Y-61230D03*
X92615Y-70430D03*
X89140Y-68795D03*
X89455Y-69250D03*
X89865Y-69490D03*
X91575Y-69270D03*
X87915Y-69935D03*
X101080Y-74305D03*
X108440Y-64690D03*
X84680Y-59610D03*
X109730Y-66170D03*
X75280Y-66295D03*
X74570Y-66310D03*
X78370Y-66325D03*
X79990Y-65725D03*
X80170Y-70440D03*
X112080Y-68420D03*
X100030Y-67540D03*
X100490Y-67570D03*
X103590Y-66160D03*
X97018Y-62548D03*
X111440Y-67425D03*
X95010Y-61690D03*
X93715Y-60905D03*
X85350Y-59610D03*
X96150Y-61685D03*
X95880Y-62510D03*
X96815Y-60795D03*
X109440Y-68375D03*
X107925Y-68355D03*
X81125Y-74535D03*
X108050Y-67850D03*
X106435Y-69365D03*
X105950Y-69915D03*
X80590Y-74545D03*
X109705Y-69375D03*
X108740Y-70225D03*
X108925Y-66885D03*
X106435Y-66430D03*
X99590Y-67560D03*
X88370Y-74460D03*
X87800Y-75630D03*
X72385Y-77105D03*
X69900Y-77190D03*
X71720Y-77190D03*
X86150Y-75945D03*
X87780Y-76505D03*
X76220Y-71140D03*
X76230Y-70240D03*
X73030Y-75020D03*
X73510Y-76500D03*
X74230Y-76430D03*
X74570Y-73820D03*
X75570Y-71200D03*
X75600Y-70230D03*
G54D32*
X87385Y-71720D02*
X87380Y-71720D01*
X87380Y-71720D02*
X87164Y-71935D01*
X92470Y-61075D02*
X92805Y-61075D01*
X93060Y-61330D02*
X93060Y-62270D01*
X92805Y-61075D02*
X93060Y-61330D01*
X92470Y-61075D02*
X91750Y-61075D01*
X94710Y-65450D02*
X94710Y-65420D01*
X95230Y-63150D02*
X94725Y-62645D01*
X95230Y-63830D02*
X95230Y-63150D01*
X94980Y-64080D02*
X95230Y-63830D01*
X94980Y-65150D02*
X94980Y-64080D01*
X94710Y-65420D02*
X94980Y-65150D01*
X94710Y-68840D02*
X94710Y-68985D01*
X93485Y-70825D02*
X93415Y-70825D01*
X94810Y-69500D02*
X93485Y-70825D01*
X94810Y-69085D02*
X94810Y-69500D01*
X94710Y-68985D02*
X94810Y-69085D01*
X92000Y-72630D02*
X92670Y-72630D01*
X92670Y-72630D02*
X93415Y-71885D01*
X93415Y-71885D02*
X93415Y-70825D01*
X89715Y-73085D02*
X89730Y-73085D01*
X89580Y-73085D02*
X89715Y-73085D01*
X91500Y-73120D02*
X91500Y-72840D01*
X91310Y-73310D02*
X91500Y-73120D01*
X89955Y-73310D02*
X91310Y-73310D01*
X89730Y-73085D02*
X89955Y-73310D01*
X91500Y-72135D02*
X91500Y-72840D01*
X91500Y-72840D02*
X91790Y-72840D01*
X92000Y-71341D02*
X91514Y-70856D01*
X92000Y-72630D02*
X92000Y-71341D01*
X91790Y-72840D02*
X92000Y-72630D01*
X91500Y-72135D02*
X91500Y-71930D01*
X91002Y-71432D02*
X91002Y-70856D01*
X91500Y-71930D02*
X91002Y-71432D01*
X89465Y-71940D02*
X89465Y-72265D01*
X89745Y-72920D02*
X89580Y-73085D01*
X89745Y-72545D02*
X89745Y-72920D01*
X89465Y-72265D02*
X89745Y-72545D01*
X83310Y-73575D02*
X82975Y-73575D01*
X74520Y-68390D02*
X74930Y-68800D01*
X74930Y-68800D02*
X74930Y-72465D01*
X74930Y-72465D02*
X76210Y-73745D01*
X82165Y-73745D02*
X76210Y-73745D01*
X82180Y-73760D02*
X82165Y-73745D01*
X82790Y-73760D02*
X82180Y-73760D01*
X82975Y-73575D02*
X82790Y-73760D01*
X94725Y-62645D02*
X94955Y-62645D01*
X93780Y-62270D02*
X94350Y-62270D01*
X94350Y-62270D02*
X94725Y-62645D01*
X92265Y-63815D02*
X92265Y-63810D01*
X92265Y-63810D02*
X92745Y-63330D01*
X92755Y-62520D02*
X93005Y-62270D01*
X93005Y-62270D02*
X93060Y-62270D01*
X93060Y-62270D02*
X93780Y-62270D01*
X93780Y-62270D02*
X93795Y-62270D01*
X93315Y-64510D02*
X93785Y-64510D01*
X93785Y-64510D02*
X93820Y-64545D01*
X94710Y-68850D02*
X94710Y-68840D01*
X94710Y-68840D02*
X94710Y-65450D01*
X93315Y-64510D02*
X92820Y-64510D01*
X92820Y-64510D02*
X92770Y-64560D01*
X92770Y-64560D02*
X92820Y-64510D01*
X86770Y-73345D02*
X86770Y-73010D01*
X86770Y-73010D02*
X86750Y-72990D01*
X83310Y-73575D02*
X83310Y-73120D01*
X83310Y-73120D02*
X83330Y-73100D01*
X90234Y-65475D02*
X90500Y-65210D01*
X90234Y-65475D02*
X90234Y-66043D01*
X88699Y-66043D02*
X88699Y-64600D01*
X88975Y-64325D02*
X90385Y-64325D01*
X88699Y-64600D02*
X88975Y-64325D01*
X91755Y-64325D02*
X90385Y-64325D01*
X92270Y-63810D02*
X92265Y-63815D01*
X92265Y-63815D02*
X91755Y-64325D01*
X89467Y-70856D02*
X89467Y-72092D01*
X87665Y-73085D02*
X87570Y-72990D01*
X89580Y-73085D02*
X87665Y-73085D01*
X87931Y-70856D02*
X87931Y-72628D01*
X87570Y-72990D02*
X86750Y-72990D01*
X87931Y-72628D02*
X87570Y-72990D01*
X87164Y-70856D02*
X87164Y-71935D01*
X87164Y-71935D02*
X87164Y-72575D01*
X86750Y-72990D02*
X83330Y-73100D01*
X87164Y-72575D02*
X86750Y-72990D01*
X83325Y-70856D02*
X83325Y-71724D01*
X83330Y-73100D02*
X83340Y-73110D01*
X83325Y-71724D02*
X83320Y-71730D01*
X94515Y-60760D02*
X94885Y-60760D01*
X94360Y-60605D02*
X94515Y-60760D01*
X77040Y-74960D02*
X76330Y-75050D01*
X74070Y-73290D02*
X73090Y-73290D01*
X74140Y-73360D02*
X74070Y-73290D01*
X74640Y-73360D02*
X74140Y-73360D01*
X76330Y-75050D02*
X74640Y-73360D01*
X71540Y-74910D02*
X72090Y-74360D01*
X72090Y-74360D02*
X72090Y-73790D01*
X72090Y-73790D02*
X72590Y-73290D01*
X72590Y-73290D02*
X73090Y-73290D01*
X88635Y-77030D02*
X87350Y-77030D01*
X77170Y-74960D02*
X77040Y-74960D01*
X78660Y-76540D02*
X77170Y-74960D01*
X80760Y-76540D02*
X78660Y-76540D01*
X80780Y-76520D02*
X80760Y-76540D01*
X82410Y-76500D02*
X82210Y-76360D01*
X82695Y-76785D02*
X82410Y-76500D01*
X87105Y-76785D02*
X82695Y-76785D01*
X87350Y-77030D02*
X87105Y-76785D01*
X91455Y-74955D02*
X90675Y-74955D01*
X92565Y-76065D02*
X91455Y-74955D01*
X90675Y-75990D02*
X90675Y-76315D01*
X90675Y-75990D02*
X90675Y-74955D01*
X89960Y-77030D02*
X88635Y-77030D01*
X90675Y-76315D02*
X89960Y-77030D01*
X84720Y-59915D02*
X83950Y-59915D01*
X84720Y-59915D02*
X88310Y-59915D01*
X88310Y-59915D02*
X88765Y-60370D01*
X88765Y-60370D02*
X88765Y-60455D01*
X88765Y-60455D02*
X89065Y-60755D01*
X83055Y-60810D02*
X80950Y-60810D01*
X83950Y-59915D02*
X83055Y-60810D01*
X83950Y-73955D02*
X83945Y-73955D01*
X84490Y-73415D02*
X83950Y-73955D01*
X74160Y-68650D02*
X74160Y-64785D01*
X82925Y-73955D02*
X82835Y-74045D01*
X82835Y-74045D02*
X76110Y-74045D01*
X76110Y-74045D02*
X74680Y-72615D01*
X74680Y-72615D02*
X74680Y-69170D01*
X74680Y-69170D02*
X74160Y-68650D01*
X85750Y-73955D02*
X83945Y-73955D01*
X83945Y-73955D02*
X83375Y-73955D01*
X85980Y-73725D02*
X85750Y-73955D01*
X87305Y-73725D02*
X85980Y-73725D01*
X83375Y-73955D02*
X82925Y-73955D01*
X80055Y-63990D02*
X81195Y-62850D01*
X74955Y-63990D02*
X80055Y-63990D01*
X74160Y-64785D02*
X74955Y-63990D01*
X69060Y-75050D02*
X67160Y-75050D01*
X69090Y-75080D02*
X69060Y-75050D01*
X81195Y-62850D02*
X80950Y-62605D01*
X80950Y-62605D02*
X80950Y-62180D01*
X80950Y-62180D02*
X80950Y-60810D01*
X73640Y-64420D02*
X73640Y-64380D01*
X73640Y-64380D02*
X73860Y-63960D01*
X74125Y-70785D02*
X74140Y-70550D01*
X74140Y-70550D02*
X74140Y-70290D01*
X74140Y-70290D02*
X71540Y-67690D01*
X71540Y-67690D02*
X71540Y-67410D01*
X71520Y-66630D02*
X72500Y-65650D01*
X72500Y-65650D02*
X72500Y-65560D01*
X72500Y-65560D02*
X73640Y-64420D01*
X77940Y-77475D02*
X78260Y-77155D01*
X77625Y-77475D02*
X77940Y-77475D01*
X77345Y-77195D02*
X77625Y-77475D01*
X77345Y-75775D02*
X77345Y-77195D01*
X77350Y-75770D02*
X77345Y-75775D01*
X74480Y-63640D02*
X74330Y-63490D01*
X78950Y-63640D02*
X74480Y-63640D01*
X79020Y-63570D02*
X78950Y-63640D01*
X75160Y-62160D02*
X75270Y-62050D01*
X75270Y-62050D02*
X75270Y-61940D01*
X73795Y-64695D02*
X74330Y-64160D01*
X73795Y-65240D02*
X73795Y-64695D01*
X74330Y-64160D02*
X74330Y-63490D01*
X114922Y-63500D02*
X116922Y-63500D01*
X112010Y-65400D02*
X111975Y-65365D01*
X111975Y-65365D02*
X110755Y-65365D01*
X85155Y-72110D02*
X84770Y-72110D01*
X82330Y-72810D02*
X82150Y-72990D01*
X84070Y-72810D02*
X82330Y-72810D01*
X84770Y-72110D02*
X84070Y-72810D01*
X102250Y-64450D02*
X102050Y-64650D01*
X102250Y-62630D02*
X102250Y-64450D01*
X102110Y-62490D02*
X102250Y-62630D01*
X111420Y-68042D02*
X111448Y-68042D01*
X110760Y-65370D02*
X110755Y-65365D01*
X110755Y-65365D02*
X110110Y-64720D01*
X110760Y-65840D02*
X110760Y-65370D01*
X111890Y-66970D02*
X110760Y-65840D01*
X111890Y-67600D02*
X111890Y-66970D01*
X111448Y-68042D02*
X111890Y-67600D01*
X101020Y-60280D02*
X100960Y-60280D01*
X101625Y-60885D02*
X101020Y-60280D01*
X102250Y-66310D02*
X102540Y-66020D01*
X101912Y-66647D02*
X102250Y-66310D01*
X101912Y-66682D02*
X101912Y-66647D01*
X103975Y-65810D02*
X104562Y-66396D01*
X102740Y-65810D02*
X103975Y-65810D01*
X102540Y-66010D02*
X102740Y-65810D01*
X102540Y-66020D02*
X102540Y-66010D01*
X104475Y-66310D02*
X104562Y-66396D01*
X88535Y-60620D02*
X88535Y-60535D01*
X88980Y-61065D02*
X88535Y-60620D01*
X90250Y-61065D02*
X89400Y-61065D01*
X89400Y-61065D02*
X88980Y-61065D01*
X83970Y-60275D02*
X83970Y-60270D01*
X84080Y-60165D02*
X83970Y-60275D01*
X88165Y-60165D02*
X84080Y-60165D01*
X88535Y-60535D02*
X88165Y-60165D01*
X98960Y-60280D02*
X98980Y-60280D01*
X99050Y-66260D02*
X98627Y-66682D01*
X99050Y-63960D02*
X99050Y-66260D01*
X98730Y-63640D02*
X99050Y-63960D01*
X98730Y-62130D02*
X98730Y-63640D01*
X99350Y-61510D02*
X98730Y-62130D01*
X99350Y-60650D02*
X99350Y-61510D01*
X98980Y-60280D02*
X99350Y-60650D01*
X98105Y-66682D02*
X98627Y-66682D01*
X98627Y-66682D02*
X101912Y-66682D01*
X101912Y-66682D02*
X102096Y-66866D01*
X102096Y-66866D02*
X102096Y-67043D01*
X102096Y-67043D02*
X102096Y-67371D01*
X97335Y-60280D02*
X98960Y-60280D01*
X98960Y-60280D02*
X100960Y-60280D01*
X100960Y-60280D02*
X103963Y-60280D01*
X103963Y-60280D02*
X104165Y-60481D01*
X98105Y-66682D02*
X96305Y-66682D01*
X96305Y-66682D02*
X95821Y-67166D01*
X83310Y-74690D02*
X83310Y-74325D01*
X83100Y-74900D02*
X83310Y-74690D01*
X82350Y-74900D02*
X83100Y-74900D01*
X81860Y-75390D02*
X82350Y-74900D01*
X81860Y-75950D02*
X81860Y-75390D01*
X81810Y-76000D02*
X81860Y-75950D01*
X78975Y-72545D02*
X78975Y-72210D01*
X79310Y-72880D02*
X78975Y-72545D01*
X82040Y-72880D02*
X79310Y-72880D01*
X82150Y-72990D02*
X82040Y-72880D01*
X67385Y-73875D02*
X67540Y-73875D01*
X66770Y-74575D02*
X67385Y-73875D01*
X66770Y-76635D02*
X66770Y-74575D01*
X67185Y-77265D02*
X66770Y-76635D01*
X78990Y-70150D02*
X78505Y-69665D01*
X78990Y-72195D02*
X78990Y-70150D01*
X78975Y-72210D02*
X78990Y-72195D01*
X90970Y-61065D02*
X90250Y-61065D01*
X96253Y-64713D02*
X96223Y-64713D01*
X97781Y-64713D02*
X96253Y-64713D01*
X96223Y-64713D02*
X95990Y-64480D01*
X71360Y-69340D02*
X71360Y-68750D01*
X73055Y-67010D02*
X73365Y-67320D01*
X70860Y-67010D02*
X73055Y-67010D01*
X70580Y-67290D02*
X70860Y-67010D01*
X70580Y-67970D02*
X70580Y-67290D01*
X71360Y-68750D02*
X70580Y-67970D01*
X71360Y-69340D02*
X71360Y-73770D01*
X71360Y-73770D02*
X70740Y-74390D01*
X71325Y-69375D02*
X71360Y-69340D01*
X71360Y-69340D02*
X71380Y-69320D01*
X89515Y-73610D02*
X89320Y-73415D01*
X91450Y-73610D02*
X89515Y-73610D01*
X92150Y-72910D02*
X91450Y-73610D01*
X92810Y-72910D02*
X92150Y-72910D01*
X93700Y-72020D02*
X92810Y-72910D01*
X93700Y-71100D02*
X93700Y-72020D01*
X94340Y-70460D02*
X93700Y-71100D01*
X90750Y-72840D02*
X90750Y-72135D01*
X90750Y-72135D02*
X90555Y-71940D01*
X90555Y-71940D02*
X90215Y-71940D01*
X88699Y-70856D02*
X88699Y-70289D01*
X88699Y-70289D02*
X88640Y-70230D01*
X90215Y-71940D02*
X90215Y-70876D01*
X90215Y-70876D02*
X90234Y-70856D01*
X91514Y-66043D02*
X92183Y-66043D01*
X93390Y-67250D02*
X93560Y-67250D01*
X92183Y-66043D02*
X93390Y-67250D01*
X83325Y-66043D02*
X83325Y-65245D01*
X83325Y-65245D02*
X83250Y-65170D01*
X94450Y-69295D02*
X94450Y-68865D01*
X94460Y-69305D02*
X94450Y-69295D01*
X90230Y-71940D02*
X90215Y-71940D01*
X90575Y-71595D02*
X90230Y-71940D01*
X76890Y-70005D02*
X77735Y-70005D01*
X78075Y-69665D02*
X78505Y-69665D01*
X77735Y-70005D02*
X78075Y-69665D01*
X81030Y-69930D02*
X81095Y-69930D01*
X81095Y-69930D02*
X81570Y-69455D01*
X78715Y-69455D02*
X81570Y-69455D01*
X78505Y-69665D02*
X78715Y-69455D01*
X81520Y-69405D02*
X81520Y-68290D01*
X81570Y-69455D02*
X81520Y-69405D01*
X82095Y-67715D02*
X82095Y-67250D01*
X81520Y-68290D02*
X82095Y-67715D01*
X73445Y-67240D02*
X73795Y-67240D01*
X73365Y-67320D02*
X73445Y-67240D01*
X82105Y-67240D02*
X82105Y-65350D01*
X82095Y-67250D02*
X82105Y-67240D01*
X73795Y-67240D02*
X73795Y-65240D01*
X82805Y-61260D02*
X82980Y-61260D01*
X82710Y-61355D02*
X82805Y-61260D01*
X82200Y-62040D02*
X82980Y-61260D01*
X82980Y-61260D02*
X83970Y-60270D01*
X82200Y-65255D02*
X82200Y-62040D01*
X82105Y-65350D02*
X82200Y-65255D01*
X94725Y-63395D02*
X94725Y-64005D01*
X94725Y-64005D02*
X94550Y-64180D01*
X92460Y-64220D02*
X92460Y-64205D01*
X92905Y-63760D02*
X93315Y-63760D01*
X92460Y-64205D02*
X92905Y-63760D01*
X83310Y-74325D02*
X86540Y-74325D01*
X89320Y-73415D02*
X89320Y-73835D01*
X86540Y-74325D02*
X86775Y-74090D01*
X86775Y-74090D02*
X89065Y-74090D01*
X89065Y-74090D02*
X89320Y-73835D01*
X88699Y-72154D02*
X88699Y-70856D01*
X88699Y-72154D02*
X89325Y-72780D01*
X94730Y-64360D02*
X94550Y-64180D01*
X94450Y-68865D02*
X94450Y-65290D01*
X94450Y-65290D02*
X94730Y-65010D01*
X94730Y-65010D02*
X94730Y-64360D01*
X90390Y-64500D02*
X92180Y-64500D01*
X92180Y-64500D02*
X92460Y-64220D01*
X89467Y-66043D02*
X89467Y-64857D01*
X89825Y-64500D02*
X90390Y-64500D01*
X89467Y-64857D02*
X89825Y-64500D01*
X90400Y-64150D02*
X91260Y-64150D01*
X87931Y-64403D02*
X88185Y-64150D01*
X88185Y-64150D02*
X90400Y-64150D01*
X87931Y-65220D02*
X87931Y-64403D01*
X91260Y-64150D02*
X91430Y-63980D01*
X90375Y-63820D02*
X90375Y-63775D01*
X90375Y-63775D02*
X90820Y-63330D01*
X86908Y-65465D02*
X86908Y-64266D01*
X87355Y-63820D02*
X90375Y-63820D01*
X86908Y-64266D02*
X87355Y-63820D01*
X91002Y-66043D02*
X91002Y-66542D01*
X91514Y-66630D02*
X91514Y-66043D01*
X91360Y-66785D02*
X91514Y-66630D01*
X91245Y-66785D02*
X91360Y-66785D01*
X91002Y-66542D02*
X91245Y-66785D01*
X86908Y-66043D02*
X86908Y-65465D01*
X86908Y-65465D02*
X86908Y-65456D01*
X87931Y-65181D02*
X87931Y-65220D01*
X87931Y-65220D02*
X87931Y-66043D01*
X92980Y-73350D02*
X92200Y-73350D01*
X92990Y-73360D02*
X92980Y-73350D01*
X101120Y-70760D02*
X100573Y-70760D01*
X101596Y-67916D02*
X101720Y-68040D01*
X101680Y-70600D02*
X101520Y-70760D01*
X101520Y-70760D02*
X101120Y-70760D01*
X101596Y-67371D02*
X101596Y-67916D01*
X100573Y-70760D02*
X100530Y-70803D01*
X76848Y-65413D02*
X74718Y-65413D01*
X74718Y-65413D02*
X74545Y-65240D01*
X80343Y-65413D02*
X76848Y-65413D01*
X81075Y-66145D02*
X80343Y-65413D01*
X76890Y-70755D02*
X76890Y-72095D01*
X76890Y-72095D02*
X76845Y-72140D01*
X76845Y-71785D02*
X76845Y-72140D01*
X78490Y-70140D02*
X76845Y-71785D01*
X85940Y-60480D02*
X85840Y-60480D01*
X84555Y-60345D02*
X84465Y-60435D01*
X85705Y-60345D02*
X84555Y-60345D01*
X85840Y-60480D02*
X85705Y-60345D01*
X75960Y-76220D02*
X76820Y-76040D01*
X85470Y-60620D02*
X85420Y-60620D01*
X84090Y-60720D02*
X83995Y-60625D01*
X85320Y-60720D02*
X84090Y-60720D01*
X85420Y-60620D02*
X85320Y-60720D01*
X82320Y-60230D02*
X82605Y-60230D01*
X72940Y-63490D02*
X72940Y-63260D01*
X72940Y-63260D02*
X73540Y-62660D01*
X73540Y-62660D02*
X78705Y-62660D01*
X78705Y-62660D02*
X80095Y-61270D01*
X80095Y-61270D02*
X80095Y-60830D01*
X80095Y-60830D02*
X80695Y-60230D01*
X80695Y-60230D02*
X82320Y-60230D01*
X69390Y-74670D02*
X69390Y-67040D01*
X70050Y-75330D02*
X69390Y-74670D01*
X72625Y-75330D02*
X70050Y-75330D01*
X69390Y-67040D02*
X72940Y-63490D01*
X82605Y-60230D02*
X82730Y-60105D01*
X83995Y-60625D02*
X84000Y-60620D01*
X72880Y-75585D02*
X72625Y-75330D01*
X72880Y-76570D02*
X72880Y-75585D01*
X73290Y-76980D02*
X72880Y-76570D01*
X75200Y-76980D02*
X73290Y-76980D01*
X75960Y-76220D02*
X75200Y-76980D01*
X76848Y-67106D02*
X74678Y-67106D01*
X74678Y-67106D02*
X74545Y-67240D01*
X80608Y-67106D02*
X76848Y-67106D01*
X81830Y-65885D02*
X80608Y-67106D01*
X85905Y-72110D02*
X85905Y-71945D01*
X85540Y-71580D02*
X84700Y-71580D01*
X85905Y-71945D02*
X85540Y-71580D01*
X75217Y-72382D02*
X75217Y-68397D01*
X75000Y-68180D02*
X75000Y-67485D01*
X75217Y-68397D02*
X75000Y-68180D01*
X80030Y-64450D02*
X79970Y-64510D01*
X79970Y-64510D02*
X75630Y-64510D01*
X75630Y-64510D02*
X74975Y-64650D01*
X76260Y-73425D02*
X82590Y-73425D01*
X75175Y-72340D02*
X75217Y-72382D01*
X75217Y-72382D02*
X76260Y-73425D01*
X90685Y-60380D02*
X91105Y-59960D01*
X89655Y-60380D02*
X90180Y-60380D01*
X89645Y-60370D02*
X89655Y-60380D01*
X90180Y-60380D02*
X90685Y-60380D01*
X86805Y-75260D02*
X86805Y-74675D01*
X86870Y-75325D02*
X86805Y-75260D01*
X83460Y-59960D02*
X83470Y-59960D01*
X80340Y-61450D02*
X80340Y-60860D01*
X80340Y-60860D02*
X80770Y-60430D01*
X80770Y-60430D02*
X82990Y-60430D01*
X82990Y-60430D02*
X83460Y-59960D01*
X73770Y-62880D02*
X74580Y-62880D01*
X73320Y-63330D02*
X73770Y-62880D01*
X73320Y-64035D02*
X73320Y-63330D01*
X71940Y-65415D02*
X73320Y-64035D01*
X71940Y-65750D02*
X71940Y-65415D01*
X71050Y-66640D02*
X71940Y-65750D01*
X71030Y-67860D02*
X71030Y-67410D01*
X73460Y-70290D02*
X71030Y-67860D01*
X73460Y-71580D02*
X73460Y-70290D01*
X74580Y-62880D02*
X78910Y-62880D01*
X78910Y-62880D02*
X80340Y-61450D01*
X78350Y-75680D02*
X76950Y-74280D01*
X76950Y-74280D02*
X75990Y-74280D01*
X75990Y-74280D02*
X73460Y-71750D01*
X73460Y-71750D02*
X73460Y-71580D01*
X78350Y-75680D02*
X80810Y-75680D01*
X83470Y-59960D02*
X83575Y-59855D01*
X80810Y-75680D02*
X80760Y-75630D01*
X82300Y-75640D02*
X86320Y-75640D01*
X82260Y-75680D02*
X82300Y-75640D01*
X86320Y-75640D02*
X86335Y-75640D01*
X86320Y-75640D02*
X86310Y-75630D01*
X89815Y-74815D02*
X88990Y-75640D01*
X88700Y-75930D02*
X88990Y-75640D01*
X86625Y-75930D02*
X88700Y-75930D01*
X86335Y-75640D02*
X86625Y-75930D01*
X88035Y-74815D02*
X87565Y-74345D01*
X88555Y-75095D02*
X88275Y-74815D01*
X88275Y-74815D02*
X88035Y-74815D01*
X87270Y-74835D02*
X87305Y-74870D01*
X87305Y-74870D02*
X87305Y-75630D01*
X84310Y-76390D02*
X86050Y-76390D01*
X91105Y-60605D02*
X91440Y-60270D01*
X89915Y-60605D02*
X90195Y-60605D01*
X89790Y-60730D02*
X89915Y-60605D01*
X89580Y-60730D02*
X89790Y-60730D01*
X89565Y-60745D02*
X89580Y-60730D01*
X90195Y-60605D02*
X91105Y-60605D01*
X84870Y-72570D02*
X85190Y-72570D01*
X84780Y-72660D02*
X84870Y-72570D01*
X86525Y-72485D02*
X86440Y-72570D01*
X86440Y-72570D02*
X85190Y-72570D01*
X85190Y-72570D02*
X85145Y-72570D01*
X85145Y-72570D02*
X85140Y-72575D01*
X98365Y-66030D02*
X97010Y-66030D01*
X98277Y-63847D02*
X98550Y-64120D01*
X98550Y-64120D02*
X98550Y-65845D01*
X98550Y-65845D02*
X98365Y-66030D01*
X97781Y-63847D02*
X98277Y-63847D01*
X97010Y-66030D02*
X96860Y-66180D01*
X90970Y-61815D02*
X91740Y-61815D01*
X91740Y-61815D02*
X91750Y-61825D01*
X91350Y-62500D02*
X91350Y-62195D01*
X87164Y-64300D02*
X87485Y-63980D01*
X87485Y-63980D02*
X90385Y-63980D01*
X87164Y-66043D02*
X87164Y-64300D01*
X90730Y-63980D02*
X91320Y-63390D01*
X90385Y-63980D02*
X90730Y-63980D01*
X91350Y-62195D02*
X90970Y-61815D01*
X90250Y-61815D02*
X90970Y-61815D01*
X90970Y-61815D02*
X90980Y-61825D01*
X90980Y-61825D02*
X92470Y-61825D01*
X83581Y-61968D02*
X83581Y-66043D01*
X83930Y-61620D02*
X83581Y-61968D01*
X88400Y-61620D02*
X83930Y-61620D01*
X88410Y-61610D02*
X88400Y-61620D01*
X88443Y-67656D02*
X88443Y-66043D01*
X88440Y-67660D02*
X88443Y-67656D01*
X85884Y-66674D02*
X85884Y-66043D01*
X86110Y-66900D02*
X85884Y-66674D01*
X90746Y-66043D02*
X90746Y-65668D01*
X92620Y-65280D02*
X92980Y-65640D01*
X91135Y-65280D02*
X92620Y-65280D01*
X90746Y-65668D02*
X91135Y-65280D01*
X85884Y-68850D02*
X85884Y-70856D01*
X86730Y-68005D02*
X85884Y-68850D01*
X88443Y-70856D02*
X88443Y-70428D01*
X89110Y-68070D02*
X89150Y-68110D01*
X88725Y-68070D02*
X89110Y-68070D01*
X88610Y-67955D02*
X88725Y-68070D01*
X88340Y-67955D02*
X88610Y-67955D01*
X88110Y-68185D02*
X88340Y-67955D01*
X88110Y-68565D02*
X88110Y-68185D01*
X88380Y-68835D02*
X88110Y-68565D01*
X88380Y-69760D02*
X88380Y-68835D01*
X88325Y-69815D02*
X88380Y-69760D01*
X88325Y-70310D02*
X88325Y-69815D01*
X88443Y-70428D02*
X88325Y-70310D01*
X90490Y-66043D02*
X90490Y-65634D01*
X93365Y-65570D02*
X93365Y-65910D01*
X92895Y-65100D02*
X93365Y-65570D01*
X91025Y-65100D02*
X92895Y-65100D01*
X90490Y-65634D02*
X91025Y-65100D01*
X93365Y-65910D02*
X93270Y-65815D01*
X85372Y-67332D02*
X85372Y-66043D01*
X85590Y-67550D02*
X85372Y-67332D01*
X86280Y-67550D02*
X85590Y-67550D01*
X86315Y-67585D02*
X86280Y-67550D01*
X83581Y-70856D02*
X83581Y-71461D01*
X82930Y-71810D02*
X82930Y-62315D01*
X83220Y-72060D02*
X82930Y-71810D01*
X83465Y-72060D02*
X83220Y-72060D01*
X83660Y-71905D02*
X83465Y-72060D01*
X83660Y-71540D02*
X83660Y-71905D01*
X83581Y-71461D02*
X83660Y-71540D01*
X83835Y-61410D02*
X82930Y-62315D01*
X82930Y-62315D02*
X82920Y-62325D01*
X88100Y-61410D02*
X83835Y-61410D01*
X88280Y-61230D02*
X88100Y-61410D01*
X86140Y-69019D02*
X86140Y-70856D01*
X87120Y-68040D02*
X86140Y-69019D01*
X87740Y-67425D02*
X87740Y-68655D01*
X87675Y-66825D02*
X87740Y-66890D01*
X87740Y-66890D02*
X87740Y-67425D01*
X87675Y-66043D02*
X87675Y-66825D01*
X87740Y-68655D02*
X88075Y-68990D01*
X89211Y-67286D02*
X89211Y-66043D01*
X89345Y-67420D02*
X89211Y-67286D01*
X89723Y-66043D02*
X89723Y-67318D01*
X89723Y-67318D02*
X89725Y-67320D01*
X84940Y-62445D02*
X84905Y-62445D01*
X84905Y-62445D02*
X84605Y-62744D01*
X84605Y-63849D02*
X84605Y-63950D01*
X84605Y-62744D02*
X84605Y-63849D01*
X86070Y-62445D02*
X84940Y-62445D01*
X84600Y-63950D02*
X84605Y-63950D01*
X84605Y-63950D02*
X84605Y-66043D01*
X89805Y-62445D02*
X86070Y-62445D01*
X86070Y-62445D02*
X86010Y-62445D01*
X89815Y-62455D02*
X89805Y-62445D01*
X84349Y-70856D02*
X84349Y-72105D01*
X87640Y-60445D02*
X87170Y-60915D01*
X87170Y-60915D02*
X83675Y-60915D01*
X83675Y-60915D02*
X82430Y-62160D01*
X82430Y-72170D02*
X82430Y-62160D01*
X82930Y-72580D02*
X82430Y-72170D01*
X83785Y-72580D02*
X82930Y-72580D01*
X84349Y-72105D02*
X83785Y-72580D01*
X85900Y-62260D02*
X84570Y-62260D01*
X89620Y-62125D02*
X89500Y-62245D01*
X89500Y-62245D02*
X85900Y-62260D01*
X84349Y-66043D02*
X84349Y-63810D01*
X84349Y-62480D02*
X84349Y-63810D01*
X84570Y-62260D02*
X84349Y-62480D01*
X84605Y-67974D02*
X84605Y-70856D01*
X84780Y-67800D02*
X84605Y-67974D01*
X85980Y-67800D02*
X84780Y-67800D01*
X85995Y-67815D02*
X85980Y-67800D01*
X86160Y-62980D02*
X85370Y-62980D01*
X85120Y-64240D02*
X85116Y-64240D01*
X85120Y-63230D02*
X85120Y-64240D01*
X85370Y-62980D02*
X85120Y-63230D01*
X85116Y-63998D02*
X85116Y-64240D01*
X85116Y-64240D02*
X85116Y-66043D01*
X89505Y-62980D02*
X86160Y-62980D01*
X86160Y-62980D02*
X86135Y-62980D01*
X89915Y-63225D02*
X89505Y-62980D01*
X86650Y-66790D02*
X86652Y-66790D01*
X86650Y-67525D02*
X86650Y-66790D01*
X86895Y-67770D02*
X86650Y-67525D01*
X87185Y-67770D02*
X86895Y-67770D01*
X87460Y-67770D02*
X87185Y-67770D01*
X86652Y-66887D02*
X86652Y-66790D01*
X86652Y-66790D02*
X86652Y-66043D01*
X85810Y-62070D02*
X84390Y-62070D01*
X89260Y-61930D02*
X89050Y-62070D01*
X89050Y-62070D02*
X85810Y-62070D01*
X84093Y-66043D02*
X84093Y-63786D01*
X84093Y-62366D02*
X84093Y-63786D01*
X84390Y-62070D02*
X84093Y-62366D01*
X84860Y-70856D02*
X84860Y-68379D01*
X85120Y-68120D02*
X84930Y-68309D01*
X84860Y-68379D02*
X84930Y-68309D01*
X88955Y-67539D02*
X88955Y-66043D01*
X88955Y-67540D02*
X88955Y-67539D01*
X85730Y-61900D02*
X84060Y-61900D01*
X83837Y-63782D02*
X83837Y-66043D01*
X83837Y-62122D02*
X83837Y-63782D01*
X84060Y-61900D02*
X83837Y-62122D01*
X88700Y-61900D02*
X85730Y-61900D01*
X85730Y-61900D02*
X85720Y-61900D01*
X88850Y-61765D02*
X88700Y-61900D01*
X91258Y-66043D02*
X91258Y-65621D01*
X93060Y-66375D02*
X92615Y-65930D01*
X92130Y-65445D02*
X92615Y-65930D01*
X91435Y-65445D02*
X92130Y-65445D01*
X91258Y-65621D02*
X91435Y-65445D01*
X83837Y-70856D02*
X83837Y-72012D01*
X82775Y-71950D02*
X82775Y-62245D01*
X83095Y-72230D02*
X82775Y-71950D01*
X83580Y-72230D02*
X83095Y-72230D01*
X83837Y-72012D02*
X83580Y-72230D01*
X83785Y-61235D02*
X82775Y-62245D01*
X82775Y-62245D02*
X82760Y-62260D01*
X87830Y-61235D02*
X83785Y-61235D01*
X88265Y-60800D02*
X87830Y-61235D01*
X86396Y-69173D02*
X86396Y-70856D01*
X86415Y-69155D02*
X86396Y-69173D01*
X88450Y-68265D02*
X88450Y-68635D01*
X88450Y-68635D02*
X88585Y-68770D01*
X88585Y-68770D02*
X88585Y-69695D01*
X88585Y-69695D02*
X88650Y-69760D01*
X88650Y-69760D02*
X88650Y-69845D01*
X88650Y-69845D02*
X88955Y-70150D01*
X88955Y-70856D02*
X88955Y-70150D01*
X89979Y-65630D02*
X89979Y-65295D01*
X90680Y-64930D02*
X92985Y-64930D01*
X92985Y-64930D02*
X93660Y-65605D01*
X89979Y-65630D02*
X89979Y-66043D01*
X90345Y-64930D02*
X90680Y-64930D01*
X89979Y-65295D02*
X90345Y-64930D01*
X86120Y-62630D02*
X85060Y-62630D01*
X84860Y-63970D02*
X84860Y-63970D01*
X84860Y-62830D02*
X84860Y-63970D01*
X85060Y-62630D02*
X84860Y-62830D01*
X84860Y-63864D02*
X84860Y-63970D01*
X84860Y-63970D02*
X84860Y-66043D01*
X89575Y-62630D02*
X86120Y-62630D01*
X86120Y-62630D02*
X86095Y-62630D01*
X89805Y-62845D02*
X89575Y-62630D01*
X84093Y-70856D02*
X84093Y-72056D01*
X82610Y-72050D02*
X82610Y-62195D01*
X83025Y-72395D02*
X82610Y-72050D01*
X83685Y-72395D02*
X83025Y-72395D01*
X84093Y-72056D02*
X83685Y-72395D01*
X83745Y-61060D02*
X82610Y-62195D01*
X82610Y-62195D02*
X82600Y-62205D01*
X87430Y-61060D02*
X83745Y-61060D01*
X88025Y-60465D02*
X87430Y-61060D01*
X86652Y-69677D02*
X86652Y-70856D01*
X86795Y-69535D02*
X86652Y-69677D01*
X86795Y-68820D02*
X86795Y-69535D01*
X86820Y-68795D02*
X86795Y-68820D01*
X89211Y-70856D02*
X89211Y-70136D01*
X88795Y-69720D02*
X88795Y-68565D01*
X89211Y-70136D02*
X88795Y-69720D01*
X91258Y-70856D02*
X91258Y-70481D01*
X91258Y-70481D02*
X92180Y-69560D01*
X85116Y-68703D02*
X85116Y-70856D01*
X85160Y-68660D02*
X85116Y-68703D01*
X86635Y-71720D02*
X86500Y-71720D01*
X85628Y-71228D02*
X85628Y-70856D01*
X85840Y-71440D02*
X85628Y-71228D01*
X86220Y-71440D02*
X85840Y-71440D01*
X86500Y-71720D02*
X86220Y-71440D01*
X85628Y-68686D02*
X85628Y-70856D01*
X86345Y-67970D02*
X85628Y-68686D01*
X93825Y-63055D02*
X93825Y-63075D01*
X94080Y-68955D02*
X93870Y-69165D01*
X94080Y-63330D02*
X94080Y-68955D01*
X93825Y-63075D02*
X94080Y-63330D01*
X87675Y-63650D02*
X90115Y-63650D01*
X86285Y-63905D02*
X86540Y-63650D01*
X92915Y-69895D02*
X92915Y-69945D01*
X92915Y-69945D02*
X92725Y-70135D01*
X92725Y-70135D02*
X92300Y-70135D01*
X92915Y-69690D02*
X92915Y-69895D01*
X93440Y-69165D02*
X92915Y-69690D01*
X93870Y-69165D02*
X93440Y-69165D01*
X87675Y-63650D02*
X86540Y-63650D01*
X90710Y-63055D02*
X93825Y-63055D01*
X93825Y-63055D02*
X93835Y-63055D01*
X90115Y-63650D02*
X90710Y-63055D01*
X86396Y-64665D02*
X86396Y-64016D01*
X86396Y-64016D02*
X86285Y-63905D01*
X86396Y-66043D02*
X86396Y-64665D01*
X86396Y-64665D02*
X86396Y-64653D01*
X93455Y-61230D02*
X92745Y-60520D01*
X93455Y-61230D02*
X93470Y-61230D01*
X95450Y-62740D02*
X95450Y-62550D01*
X93470Y-61470D02*
X93470Y-61230D01*
X93950Y-61950D02*
X93470Y-61470D01*
X94850Y-61950D02*
X93950Y-61950D01*
X95450Y-62550D02*
X94850Y-61950D01*
X97781Y-65579D02*
X96109Y-65579D01*
X95450Y-64920D02*
X95450Y-62740D01*
X95450Y-62740D02*
X95450Y-62690D01*
X96109Y-65579D02*
X95450Y-64920D01*
X93900Y-62900D02*
X93920Y-62900D01*
X94250Y-69010D02*
X93950Y-69310D01*
X94250Y-63230D02*
X94250Y-69010D01*
X93920Y-62900D02*
X94250Y-63230D01*
X89750Y-63490D02*
X90040Y-63490D01*
X85835Y-63385D02*
X86005Y-63215D01*
X86005Y-63215D02*
X89475Y-63215D01*
X89475Y-63215D02*
X89750Y-63490D01*
X93970Y-69310D02*
X93950Y-69310D01*
X93950Y-69310D02*
X93510Y-69310D01*
X92790Y-70430D02*
X92615Y-70430D01*
X93230Y-69990D02*
X92790Y-70430D01*
X93230Y-69590D02*
X93230Y-69990D01*
X93510Y-69310D02*
X93230Y-69590D01*
X90630Y-62900D02*
X93900Y-62900D01*
X93900Y-62900D02*
X93935Y-62900D01*
X90040Y-63490D02*
X90630Y-62900D01*
X85835Y-63385D02*
X85835Y-63395D01*
X85535Y-63695D02*
X85535Y-63905D01*
X85835Y-63395D02*
X85535Y-63695D01*
X85830Y-64535D02*
X85605Y-64310D01*
X85605Y-64310D02*
X85605Y-63975D01*
X85605Y-63975D02*
X85535Y-63905D01*
X86140Y-66043D02*
X86140Y-64845D01*
X86140Y-64845D02*
X85830Y-64535D01*
X85830Y-63390D02*
X85835Y-63385D01*
X89723Y-70856D02*
X89723Y-70293D01*
X89140Y-69710D02*
X89140Y-68795D01*
X89723Y-70293D02*
X89140Y-69710D01*
X89979Y-70856D02*
X89979Y-70209D01*
X89455Y-69685D02*
X89455Y-69250D01*
X89979Y-70209D02*
X89455Y-69685D01*
X90490Y-70115D02*
X90490Y-70856D01*
X89865Y-69490D02*
X90490Y-70115D01*
X90746Y-70098D02*
X90746Y-70856D01*
X91575Y-69270D02*
X90746Y-70098D01*
X87675Y-70856D02*
X87675Y-70174D01*
X87675Y-70174D02*
X87915Y-69935D01*
X101935Y-74305D02*
X101080Y-74305D01*
X104550Y-71690D02*
X101935Y-74305D01*
X108780Y-71690D02*
X104550Y-71690D01*
X109740Y-70730D02*
X108780Y-71690D01*
X111300Y-70730D02*
X109740Y-70730D01*
X112575Y-69645D02*
X111300Y-70730D01*
X112575Y-65265D02*
X112575Y-69645D01*
X111190Y-64090D02*
X112575Y-65265D01*
X109040Y-64090D02*
X111190Y-64090D01*
X108440Y-64690D02*
X109040Y-64090D01*
X109730Y-66170D02*
X109420Y-66170D01*
X106630Y-64110D02*
X106630Y-63360D01*
X108270Y-65750D02*
X106630Y-64110D01*
X109000Y-65750D02*
X108270Y-65750D01*
X109420Y-66170D02*
X109000Y-65750D01*
X105865Y-62595D02*
X106630Y-63360D01*
X105865Y-60370D02*
X105865Y-62595D01*
X105255Y-59760D02*
X105865Y-60370D01*
X93480Y-59760D02*
X105255Y-59760D01*
X93170Y-59450D02*
X93480Y-59760D01*
X85765Y-59450D02*
X93170Y-59450D01*
X85595Y-59340D02*
X85765Y-59450D01*
X85000Y-59340D02*
X85595Y-59340D01*
X84680Y-59610D02*
X85000Y-59340D01*
X75280Y-66295D02*
X75265Y-66310D01*
X75265Y-66310D02*
X74570Y-66310D01*
X79040Y-65655D02*
X78370Y-66325D01*
X79920Y-65655D02*
X79040Y-65655D01*
X79990Y-65725D02*
X79920Y-65655D01*
X81030Y-70680D02*
X81030Y-71655D01*
X81030Y-71655D02*
X80545Y-72140D01*
X80545Y-70815D02*
X80545Y-72140D01*
X80170Y-70440D02*
X80545Y-70815D01*
X111110Y-69758D02*
X111110Y-69730D01*
X112080Y-68760D02*
X112080Y-68420D01*
X111110Y-69730D02*
X112080Y-68760D01*
X111045Y-68908D02*
X111045Y-69693D01*
X111045Y-69693D02*
X111110Y-69758D01*
X101090Y-68595D02*
X101090Y-67377D01*
X101090Y-67377D02*
X101096Y-67371D01*
X103100Y-68535D02*
X103100Y-67375D01*
X103100Y-67375D02*
X103096Y-67371D01*
X101885Y-69800D02*
X102390Y-69295D01*
X100520Y-69800D02*
X101885Y-69800D01*
X100030Y-69310D02*
X100520Y-69800D01*
X100030Y-67540D02*
X100030Y-69310D01*
X102390Y-68545D02*
X102390Y-68180D01*
X102596Y-67973D02*
X102596Y-67371D01*
X102390Y-68180D02*
X102596Y-67973D01*
X101090Y-69345D02*
X100800Y-69345D01*
X100490Y-69035D02*
X100490Y-67570D01*
X100800Y-69345D02*
X100490Y-69035D01*
X103596Y-67371D02*
X103596Y-66166D01*
X103596Y-66166D02*
X103590Y-66160D01*
X97018Y-62548D02*
X97781Y-62548D01*
X110823Y-68042D02*
X110670Y-68042D01*
X111440Y-67425D02*
X110823Y-68042D01*
X95610Y-62420D02*
X95610Y-62290D01*
X96116Y-65146D02*
X95610Y-64640D01*
X95610Y-64640D02*
X95610Y-62420D01*
X97781Y-65146D02*
X96116Y-65146D01*
X95610Y-62290D02*
X95010Y-61690D01*
X93725Y-60915D02*
X93715Y-60905D01*
X94495Y-61345D02*
X94065Y-60915D01*
X95635Y-61765D02*
X95220Y-61350D01*
X95220Y-61350D02*
X94495Y-61350D01*
X94495Y-61350D02*
X94495Y-61345D01*
X94065Y-60915D02*
X93725Y-60915D01*
X96170Y-63000D02*
X96170Y-62300D01*
X96554Y-63384D02*
X96170Y-63000D01*
X97781Y-63414D02*
X96554Y-63414D01*
X96554Y-63414D02*
X96554Y-63384D01*
X95635Y-61765D02*
X95635Y-60760D01*
X96170Y-62300D02*
X95635Y-61765D01*
X91320Y-59660D02*
X91915Y-60255D01*
X85400Y-59660D02*
X91320Y-59660D01*
X85350Y-59610D02*
X85400Y-59660D01*
X97781Y-64280D02*
X96995Y-64280D01*
X91930Y-60270D02*
X91915Y-60255D01*
X95960Y-60270D02*
X91930Y-60270D01*
X96130Y-60440D02*
X95960Y-60270D01*
X96130Y-61665D02*
X96130Y-60440D01*
X96150Y-61685D02*
X96130Y-61665D01*
X95880Y-63165D02*
X95880Y-62510D01*
X96995Y-64280D02*
X95880Y-63165D01*
X96585Y-60565D02*
X96815Y-60795D01*
X96585Y-60565D02*
X96585Y-60280D01*
X96550Y-61690D02*
X96550Y-60315D01*
X96801Y-62971D02*
X96550Y-62720D01*
X96550Y-62720D02*
X96550Y-61690D01*
X97781Y-62981D02*
X96801Y-62981D01*
X96801Y-62981D02*
X96801Y-62971D01*
X96550Y-60315D02*
X96585Y-60280D01*
X107945Y-68375D02*
X109440Y-68375D01*
X107925Y-68355D02*
X107945Y-68375D01*
X90210Y-77355D02*
X93855Y-77355D01*
X93855Y-77355D02*
X98355Y-72855D01*
X98355Y-72855D02*
X99995Y-72855D01*
X99995Y-72855D02*
X101195Y-71655D01*
X104875Y-70950D02*
X104915Y-70950D01*
X104915Y-70950D02*
X105740Y-70125D01*
X101195Y-71655D02*
X101900Y-70950D01*
X101900Y-70950D02*
X104875Y-70950D01*
X106785Y-67850D02*
X108050Y-67850D01*
X106465Y-68170D02*
X106785Y-67850D01*
X106465Y-69335D02*
X106465Y-68170D01*
X106435Y-69365D02*
X106465Y-69335D01*
X105740Y-70125D02*
X105950Y-69915D01*
X90210Y-77355D02*
X89730Y-77355D01*
X81470Y-75390D02*
X81470Y-77180D01*
X81470Y-77180D02*
X81645Y-77355D01*
X81645Y-77355D02*
X89730Y-77355D01*
X81125Y-74535D02*
X81125Y-74685D01*
X81470Y-75030D02*
X81470Y-75390D01*
X81125Y-74685D02*
X81470Y-75030D01*
X81125Y-74535D02*
X81135Y-74545D01*
X90510Y-77705D02*
X94015Y-77705D01*
X94015Y-77705D02*
X98645Y-73075D01*
X98645Y-73075D02*
X102800Y-73075D01*
X103380Y-72495D02*
X103380Y-72500D01*
X102800Y-73075D02*
X103380Y-72495D01*
X90340Y-77705D02*
X90510Y-77705D01*
X103380Y-72500D02*
X104610Y-71270D01*
X104610Y-71270D02*
X108530Y-71270D01*
X108530Y-71270D02*
X109705Y-70095D01*
X109705Y-70095D02*
X109705Y-69375D01*
X103325Y-72555D02*
X103380Y-72500D01*
X81190Y-75310D02*
X81190Y-77480D01*
X80590Y-74580D02*
X81190Y-75180D01*
X81190Y-75180D02*
X81190Y-75310D01*
X80590Y-74545D02*
X80590Y-74580D01*
X81415Y-77705D02*
X90340Y-77705D01*
X81190Y-77480D02*
X81415Y-77705D01*
X80590Y-74545D02*
X80575Y-74560D01*
X106435Y-66430D02*
X106435Y-66440D01*
X106810Y-70210D02*
X106220Y-69620D01*
X108725Y-70210D02*
X106810Y-70210D01*
X108740Y-70225D02*
X108725Y-70210D01*
X105945Y-69345D02*
X106220Y-69620D01*
X105945Y-66930D02*
X105945Y-69345D01*
X106435Y-66440D02*
X105945Y-66930D01*
X106630Y-66625D02*
X106435Y-66430D01*
X108665Y-66625D02*
X106630Y-66625D01*
X108925Y-66885D02*
X108665Y-66625D01*
X103100Y-69285D02*
X103100Y-69610D01*
X99590Y-69260D02*
X99590Y-67560D01*
X100430Y-70100D02*
X99590Y-69260D01*
X102610Y-70100D02*
X100430Y-70100D01*
X103100Y-69610D02*
X102610Y-70100D01*
X88370Y-74460D02*
X88580Y-74670D01*
X88580Y-74670D02*
X88780Y-74670D01*
X88780Y-74670D02*
X89070Y-74960D01*
X89070Y-74960D02*
X89070Y-75135D01*
X89070Y-75135D02*
X88575Y-75630D01*
X88575Y-75630D02*
X87800Y-75630D01*
X72385Y-77105D02*
X72300Y-77190D01*
X72300Y-77190D02*
X71720Y-77190D01*
X71720Y-77190D02*
X69900Y-77190D01*
X86395Y-76190D02*
X86150Y-75945D01*
X87465Y-76190D02*
X86395Y-76190D01*
X87780Y-76505D02*
X87465Y-76190D01*
X76220Y-70250D02*
X76220Y-71140D01*
X76230Y-70240D02*
X76220Y-70250D01*
X73260Y-75250D02*
X73030Y-75020D01*
X73260Y-76250D02*
X73260Y-75250D01*
X73510Y-76500D02*
X73260Y-76250D01*
X74230Y-74160D02*
X74230Y-76430D01*
X74570Y-73820D02*
X74230Y-74160D01*
X75570Y-70260D02*
X75570Y-71200D01*
X75600Y-70230D02*
X75570Y-70260D01*
G54D10*
G36*
X66205Y-59700D02*
X66200Y-59700D01*
X66205Y-59700D01*
X66205Y-59700D01*
X66205Y-59700D01*
G37*
G54D32*
X66205Y-59700D02*
X66200Y-59700D01*
X66205Y-59700D01*
X66205Y-59700D01*
G54D10*
G36*
X74345Y-73060D02*
X74255Y-73060D01*
X74184Y-73012D01*
X74070Y-72990D01*
X73090Y-72990D01*
X72590Y-72990D01*
X72475Y-73012D01*
X72377Y-73077D01*
X71877Y-73577D01*
X71812Y-73675D01*
X71790Y-73790D01*
X71790Y-74235D01*
X71540Y-74485D01*
X71455Y-74484D01*
X71299Y-74549D01*
X71249Y-74599D01*
X71294Y-74471D01*
X71290Y-74377D01*
X71290Y-73640D01*
X71290Y-73040D01*
X71252Y-72948D01*
X71181Y-72878D01*
X71089Y-72840D01*
X70990Y-72839D01*
X70390Y-72839D01*
X70298Y-72877D01*
X70228Y-72948D01*
X70190Y-73040D01*
X70189Y-73139D01*
X70189Y-73739D01*
X70227Y-73831D01*
X70298Y-73901D01*
X70390Y-73939D01*
X70443Y-73940D01*
X70424Y-74004D01*
X70740Y-74319D01*
X71055Y-74004D01*
X71036Y-73940D01*
X71089Y-73940D01*
X71181Y-73902D01*
X71251Y-73831D01*
X71289Y-73739D01*
X71290Y-73640D01*
X71290Y-74377D01*
X71283Y-74253D01*
X71221Y-74102D01*
X71125Y-74074D01*
X70810Y-74390D01*
X70816Y-74395D01*
X70745Y-74466D01*
X70740Y-74460D01*
X70669Y-74531D01*
X70669Y-74390D01*
X70354Y-74074D01*
X70258Y-74102D01*
X70185Y-74308D01*
X70196Y-74526D01*
X70258Y-74677D01*
X70354Y-74705D01*
X70669Y-74390D01*
X70669Y-74531D01*
X70424Y-74775D01*
X70452Y-74871D01*
X70658Y-74944D01*
X70876Y-74933D01*
X71027Y-74871D01*
X71055Y-74775D01*
X71055Y-74775D01*
X71100Y-74821D01*
X71128Y-74793D01*
X71115Y-74825D01*
X71114Y-74994D01*
X71129Y-75030D01*
X71055Y-75030D01*
X70174Y-75030D01*
X69690Y-74545D01*
X69690Y-67164D01*
X73020Y-63834D01*
X73020Y-63910D01*
X71727Y-65202D01*
X71662Y-65300D01*
X71640Y-65415D01*
X71640Y-65625D01*
X71050Y-66215D01*
X70965Y-66214D01*
X70809Y-66279D01*
X70689Y-66398D01*
X70625Y-66555D01*
X70624Y-66724D01*
X70689Y-66880D01*
X70808Y-67000D01*
X70858Y-67020D01*
X70789Y-67049D01*
X70669Y-67168D01*
X70605Y-67325D01*
X70604Y-67494D01*
X70669Y-67650D01*
X70730Y-67711D01*
X70730Y-67860D01*
X70752Y-67974D01*
X70817Y-68072D01*
X73160Y-70414D01*
X73160Y-71580D01*
X73160Y-71750D01*
X73182Y-71864D01*
X73247Y-71962D01*
X74345Y-73060D01*
X74345Y-73060D01*
G37*
G54D32*
X74345Y-73060D02*
X74255Y-73060D01*
X74184Y-73012D01*
X74070Y-72990D01*
X73090Y-72990D01*
X72590Y-72990D01*
X72475Y-73012D01*
X72377Y-73077D01*
X71877Y-73577D01*
X71812Y-73675D01*
X71790Y-73790D01*
X71790Y-74235D01*
X71540Y-74485D01*
X71455Y-74484D01*
X71299Y-74549D01*
X71249Y-74599D01*
X71294Y-74471D01*
X71290Y-74377D01*
X71290Y-73640D01*
X71290Y-73040D01*
X71252Y-72948D01*
X71181Y-72878D01*
X71089Y-72840D01*
X70990Y-72839D01*
X70390Y-72839D01*
X70298Y-72877D01*
X70228Y-72948D01*
X70190Y-73040D01*
X70189Y-73139D01*
X70189Y-73739D01*
X70227Y-73831D01*
X70298Y-73901D01*
X70390Y-73939D01*
X70443Y-73940D01*
X70424Y-74004D01*
X70740Y-74319D01*
X71055Y-74004D01*
X71036Y-73940D01*
X71089Y-73940D01*
X71181Y-73902D01*
X71251Y-73831D01*
X71289Y-73739D01*
X71290Y-73640D01*
X71290Y-74377D01*
X71283Y-74253D01*
X71221Y-74102D01*
X71125Y-74074D01*
X70810Y-74390D01*
X70816Y-74395D01*
X70745Y-74466D01*
X70740Y-74460D01*
X70669Y-74531D01*
X70669Y-74390D01*
X70354Y-74074D01*
X70258Y-74102D01*
X70185Y-74308D01*
X70196Y-74526D01*
X70258Y-74677D01*
X70354Y-74705D01*
X70669Y-74390D01*
X70669Y-74531D01*
X70424Y-74775D01*
X70452Y-74871D01*
X70658Y-74944D01*
X70876Y-74933D01*
X71027Y-74871D01*
X71055Y-74775D01*
X71055Y-74775D01*
X71100Y-74821D01*
X71128Y-74793D01*
X71115Y-74825D01*
X71114Y-74994D01*
X71129Y-75030D01*
X71055Y-75030D01*
X70174Y-75030D01*
X69690Y-74545D01*
X69690Y-67164D01*
X73020Y-63834D01*
X73020Y-63910D01*
X71727Y-65202D01*
X71662Y-65300D01*
X71640Y-65415D01*
X71640Y-65625D01*
X71050Y-66215D01*
X70965Y-66214D01*
X70809Y-66279D01*
X70689Y-66398D01*
X70625Y-66555D01*
X70624Y-66724D01*
X70689Y-66880D01*
X70808Y-67000D01*
X70858Y-67020D01*
X70789Y-67049D01*
X70669Y-67168D01*
X70605Y-67325D01*
X70604Y-67494D01*
X70669Y-67650D01*
X70730Y-67711D01*
X70730Y-67860D01*
X70752Y-67974D01*
X70817Y-68072D01*
X73160Y-70414D01*
X73160Y-71580D01*
X73160Y-71750D01*
X73182Y-71864D01*
X73247Y-71962D01*
X74345Y-73060D01*
G54D10*
G36*
X80770Y-62849D02*
X80769Y-62850D01*
X79930Y-63690D01*
X74955Y-63690D01*
X74840Y-63712D01*
X74742Y-63777D01*
X73947Y-64572D01*
X73882Y-64670D01*
X73865Y-64756D01*
X73845Y-64777D01*
X73845Y-65190D01*
X73852Y-65190D01*
X73852Y-65290D01*
X73845Y-65290D01*
X73845Y-65702D01*
X73860Y-65717D01*
X73860Y-66762D01*
X73845Y-66777D01*
X73845Y-67190D01*
X73852Y-67190D01*
X73852Y-67290D01*
X73845Y-67290D01*
X73845Y-67702D01*
X73860Y-67717D01*
X73860Y-68650D01*
X73882Y-68764D01*
X73947Y-68862D01*
X74380Y-69294D01*
X74380Y-70119D01*
X74352Y-70077D01*
X74352Y-70077D01*
X73745Y-69470D01*
X73745Y-67702D01*
X73745Y-67290D01*
X73745Y-67190D01*
X73745Y-66777D01*
X73745Y-65702D01*
X73745Y-65290D01*
X73432Y-65290D01*
X73370Y-65352D01*
X73369Y-65465D01*
X73370Y-65564D01*
X73408Y-65656D01*
X73478Y-65727D01*
X73570Y-65765D01*
X73682Y-65765D01*
X73745Y-65702D01*
X73745Y-66777D01*
X73682Y-66715D01*
X73570Y-66714D01*
X73478Y-66752D01*
X73408Y-66823D01*
X73370Y-66915D01*
X73369Y-67014D01*
X73370Y-67127D01*
X73432Y-67190D01*
X73745Y-67190D01*
X73745Y-67290D01*
X73432Y-67290D01*
X73370Y-67352D01*
X73369Y-67465D01*
X73370Y-67564D01*
X73408Y-67656D01*
X73478Y-67727D01*
X73570Y-67765D01*
X73682Y-67765D01*
X73745Y-67702D01*
X73745Y-69470D01*
X71907Y-67633D01*
X71964Y-67494D01*
X71965Y-67325D01*
X71900Y-67169D01*
X71781Y-67049D01*
X71699Y-67015D01*
X71760Y-66990D01*
X71880Y-66871D01*
X71944Y-66714D01*
X71945Y-66629D01*
X72712Y-65862D01*
X72712Y-65862D01*
X72777Y-65764D01*
X72791Y-65692D01*
X72791Y-65692D01*
X73369Y-65114D01*
X73370Y-65127D01*
X73432Y-65190D01*
X73745Y-65190D01*
X73745Y-64777D01*
X73725Y-64758D01*
X73852Y-64632D01*
X73852Y-64632D01*
X73917Y-64534D01*
X73929Y-64474D01*
X73929Y-64474D01*
X73984Y-64368D01*
X74100Y-64320D01*
X74220Y-64201D01*
X74284Y-64044D01*
X74285Y-63875D01*
X74220Y-63719D01*
X74101Y-63599D01*
X73944Y-63535D01*
X73775Y-63534D01*
X73620Y-63599D01*
X73620Y-63454D01*
X73894Y-63180D01*
X74580Y-63180D01*
X78910Y-63180D01*
X78910Y-63179D01*
X79024Y-63157D01*
X79024Y-63157D01*
X79122Y-63092D01*
X80552Y-61662D01*
X80552Y-61662D01*
X80617Y-61564D01*
X80639Y-61450D01*
X80640Y-61450D01*
X80640Y-61101D01*
X80650Y-61111D01*
X80650Y-62180D01*
X80650Y-62605D01*
X80672Y-62719D01*
X80737Y-62817D01*
X80770Y-62849D01*
X80770Y-62849D01*
G37*
G54D32*
X80770Y-62849D02*
X80769Y-62850D01*
X79930Y-63690D01*
X74955Y-63690D01*
X74840Y-63712D01*
X74742Y-63777D01*
X73947Y-64572D01*
X73882Y-64670D01*
X73865Y-64756D01*
X73845Y-64777D01*
X73845Y-65190D01*
X73852Y-65190D01*
X73852Y-65290D01*
X73845Y-65290D01*
X73845Y-65702D01*
X73860Y-65717D01*
X73860Y-66762D01*
X73845Y-66777D01*
X73845Y-67190D01*
X73852Y-67190D01*
X73852Y-67290D01*
X73845Y-67290D01*
X73845Y-67702D01*
X73860Y-67717D01*
X73860Y-68650D01*
X73882Y-68764D01*
X73947Y-68862D01*
X74380Y-69294D01*
X74380Y-70119D01*
X74352Y-70077D01*
X74352Y-70077D01*
X73745Y-69470D01*
X73745Y-67702D01*
X73745Y-67290D01*
X73745Y-67190D01*
X73745Y-66777D01*
X73745Y-65702D01*
X73745Y-65290D01*
X73432Y-65290D01*
X73370Y-65352D01*
X73369Y-65465D01*
X73370Y-65564D01*
X73408Y-65656D01*
X73478Y-65727D01*
X73570Y-65765D01*
X73682Y-65765D01*
X73745Y-65702D01*
X73745Y-66777D01*
X73682Y-66715D01*
X73570Y-66714D01*
X73478Y-66752D01*
X73408Y-66823D01*
X73370Y-66915D01*
X73369Y-67014D01*
X73370Y-67127D01*
X73432Y-67190D01*
X73745Y-67190D01*
X73745Y-67290D01*
X73432Y-67290D01*
X73370Y-67352D01*
X73369Y-67465D01*
X73370Y-67564D01*
X73408Y-67656D01*
X73478Y-67727D01*
X73570Y-67765D01*
X73682Y-67765D01*
X73745Y-67702D01*
X73745Y-69470D01*
X71907Y-67633D01*
X71964Y-67494D01*
X71965Y-67325D01*
X71900Y-67169D01*
X71781Y-67049D01*
X71699Y-67015D01*
X71760Y-66990D01*
X71880Y-66871D01*
X71944Y-66714D01*
X71945Y-66629D01*
X72712Y-65862D01*
X72712Y-65862D01*
X72777Y-65764D01*
X72791Y-65692D01*
X72791Y-65692D01*
X73369Y-65114D01*
X73370Y-65127D01*
X73432Y-65190D01*
X73745Y-65190D01*
X73745Y-64777D01*
X73725Y-64758D01*
X73852Y-64632D01*
X73852Y-64632D01*
X73917Y-64534D01*
X73929Y-64474D01*
X73929Y-64474D01*
X73984Y-64368D01*
X74100Y-64320D01*
X74220Y-64201D01*
X74284Y-64044D01*
X74285Y-63875D01*
X74220Y-63719D01*
X74101Y-63599D01*
X73944Y-63535D01*
X73775Y-63534D01*
X73620Y-63599D01*
X73620Y-63454D01*
X73894Y-63180D01*
X74580Y-63180D01*
X78910Y-63180D01*
X78910Y-63179D01*
X79024Y-63157D01*
X79024Y-63157D01*
X79122Y-63092D01*
X80552Y-61662D01*
X80552Y-61662D01*
X80617Y-61564D01*
X80639Y-61450D01*
X80640Y-61450D01*
X80640Y-61101D01*
X80650Y-61111D01*
X80650Y-62180D01*
X80650Y-62605D01*
X80672Y-62719D01*
X80737Y-62817D01*
X80770Y-62849D01*
G54D10*
G36*
X82432Y-59801D02*
X82369Y-59863D01*
X82342Y-59930D01*
X82320Y-59930D01*
X80695Y-59930D01*
X80580Y-59952D01*
X80482Y-60017D01*
X79882Y-60617D01*
X79817Y-60715D01*
X79795Y-60830D01*
X79795Y-61145D01*
X78580Y-62360D01*
X78420Y-62360D01*
X78420Y-61007D01*
X78260Y-60621D01*
X77965Y-60325D01*
X77579Y-60165D01*
X77162Y-60164D01*
X76776Y-60324D01*
X76480Y-60619D01*
X76320Y-61005D01*
X76319Y-61422D01*
X76479Y-61809D01*
X76774Y-62104D01*
X77160Y-62264D01*
X77577Y-62265D01*
X77964Y-62105D01*
X78259Y-61810D01*
X78419Y-61424D01*
X78420Y-61007D01*
X78420Y-62360D01*
X73540Y-62360D01*
X73425Y-62382D01*
X73327Y-62447D01*
X72727Y-63047D01*
X72662Y-63145D01*
X72640Y-63260D01*
X72640Y-63365D01*
X69955Y-66050D01*
X69955Y-64551D01*
X69955Y-61953D01*
X69884Y-61781D01*
X69753Y-61650D01*
X69582Y-61579D01*
X69396Y-61579D01*
X69224Y-61650D01*
X69093Y-61781D01*
X69022Y-61952D01*
X69022Y-62138D01*
X69093Y-62309D01*
X69224Y-62441D01*
X69395Y-62512D01*
X69581Y-62512D01*
X69752Y-62441D01*
X69884Y-62310D01*
X69955Y-62138D01*
X69955Y-61953D01*
X69955Y-64551D01*
X69884Y-64380D01*
X69753Y-64248D01*
X69582Y-64177D01*
X69396Y-64177D01*
X69224Y-64248D01*
X69093Y-64379D01*
X69022Y-64551D01*
X69022Y-64736D01*
X69093Y-64908D01*
X69224Y-65039D01*
X69395Y-65110D01*
X69581Y-65110D01*
X69752Y-65039D01*
X69884Y-64908D01*
X69955Y-64737D01*
X69955Y-64551D01*
X69955Y-66050D01*
X69177Y-66827D01*
X69112Y-66925D01*
X69090Y-67040D01*
X69090Y-73525D01*
X69052Y-73433D01*
X68981Y-73363D01*
X68889Y-73325D01*
X68790Y-73324D01*
X68670Y-73324D01*
X68670Y-68863D01*
X68670Y-67131D01*
X68599Y-66959D01*
X68468Y-66828D01*
X68296Y-66757D01*
X68111Y-66757D01*
X67939Y-66828D01*
X67808Y-66959D01*
X67737Y-67130D01*
X67737Y-67316D01*
X67807Y-67487D01*
X67939Y-67619D01*
X68110Y-67690D01*
X68296Y-67690D01*
X68467Y-67619D01*
X68598Y-67488D01*
X68670Y-67317D01*
X68670Y-67131D01*
X68670Y-68863D01*
X68599Y-68692D01*
X68468Y-68560D01*
X68296Y-68489D01*
X68111Y-68489D01*
X67939Y-68560D01*
X67808Y-68691D01*
X67737Y-68862D01*
X67737Y-69048D01*
X67807Y-69220D01*
X67939Y-69351D01*
X68110Y-69422D01*
X68296Y-69422D01*
X68467Y-69351D01*
X68598Y-69220D01*
X68670Y-69049D01*
X68670Y-68863D01*
X68670Y-73324D01*
X68190Y-73324D01*
X68098Y-73362D01*
X68028Y-73433D01*
X67990Y-73525D01*
X67989Y-73578D01*
X67925Y-73559D01*
X67855Y-73630D01*
X67855Y-73489D01*
X67827Y-73393D01*
X67621Y-73320D01*
X67403Y-73331D01*
X67252Y-73393D01*
X67224Y-73489D01*
X67540Y-73804D01*
X67855Y-73489D01*
X67855Y-73630D01*
X67610Y-73875D01*
X67925Y-74190D01*
X67989Y-74171D01*
X67989Y-74224D01*
X68027Y-74316D01*
X68098Y-74386D01*
X68190Y-74424D01*
X68289Y-74425D01*
X68889Y-74425D01*
X68981Y-74387D01*
X69051Y-74316D01*
X69089Y-74224D01*
X69090Y-74174D01*
X69090Y-74654D01*
X69005Y-74654D01*
X68849Y-74719D01*
X68819Y-74750D01*
X67855Y-74750D01*
X67855Y-74260D01*
X67540Y-73945D01*
X67469Y-74016D01*
X67469Y-73875D01*
X67154Y-73559D01*
X67058Y-73587D01*
X66985Y-73793D01*
X66996Y-74011D01*
X67058Y-74162D01*
X67154Y-74190D01*
X67469Y-73875D01*
X67469Y-74016D01*
X67224Y-74260D01*
X67252Y-74356D01*
X67458Y-74429D01*
X67676Y-74418D01*
X67827Y-74356D01*
X67855Y-74260D01*
X67855Y-74750D01*
X67461Y-74750D01*
X67401Y-74689D01*
X67244Y-74625D01*
X67075Y-74624D01*
X66919Y-74689D01*
X66799Y-74808D01*
X66735Y-74965D01*
X66734Y-75134D01*
X66799Y-75290D01*
X66918Y-75410D01*
X67075Y-75474D01*
X67244Y-75475D01*
X67400Y-75410D01*
X67461Y-75350D01*
X68759Y-75350D01*
X68848Y-75440D01*
X69005Y-75504D01*
X69174Y-75505D01*
X69330Y-75440D01*
X69450Y-75321D01*
X69498Y-75203D01*
X69837Y-75542D01*
X69837Y-75542D01*
X69935Y-75607D01*
X70050Y-75630D01*
X72500Y-75630D01*
X72580Y-75709D01*
X72580Y-76570D01*
X72602Y-76684D01*
X72667Y-76782D01*
X73077Y-77192D01*
X73175Y-77257D01*
X73175Y-77257D01*
X73290Y-77280D01*
X75200Y-77280D01*
X75200Y-77279D01*
X75314Y-77257D01*
X75314Y-77257D01*
X75412Y-77192D01*
X76108Y-76495D01*
X76576Y-76397D01*
X76578Y-76400D01*
X76735Y-76464D01*
X76904Y-76465D01*
X77060Y-76400D01*
X77180Y-76281D01*
X77244Y-76124D01*
X77245Y-75955D01*
X77180Y-75799D01*
X77061Y-75679D01*
X76904Y-75615D01*
X76735Y-75614D01*
X76579Y-75679D01*
X76459Y-75798D01*
X76455Y-75810D01*
X75898Y-75926D01*
X75872Y-75937D01*
X75845Y-75942D01*
X75819Y-75960D01*
X75790Y-75972D01*
X75771Y-75992D01*
X75747Y-76007D01*
X75075Y-76680D01*
X74581Y-76680D01*
X74590Y-76671D01*
X74654Y-76514D01*
X74655Y-76345D01*
X74590Y-76189D01*
X74530Y-76128D01*
X74530Y-74284D01*
X74569Y-74244D01*
X74654Y-74245D01*
X74810Y-74180D01*
X74923Y-74067D01*
X76117Y-75262D01*
X76133Y-75272D01*
X76146Y-75287D01*
X76181Y-75304D01*
X76215Y-75327D01*
X76233Y-75330D01*
X76250Y-75339D01*
X76290Y-75342D01*
X76330Y-75349D01*
X76348Y-75346D01*
X76367Y-75347D01*
X76775Y-75296D01*
X76798Y-75320D01*
X76955Y-75384D01*
X77124Y-75385D01*
X77148Y-75374D01*
X78441Y-76746D01*
X78446Y-76750D01*
X78447Y-76752D01*
X78471Y-76767D01*
X78536Y-76814D01*
X78542Y-76815D01*
X78545Y-76817D01*
X78576Y-76823D01*
X78650Y-76840D01*
X78656Y-76839D01*
X78660Y-76840D01*
X80498Y-76840D01*
X80538Y-76880D01*
X80695Y-76944D01*
X80864Y-76945D01*
X80890Y-76934D01*
X80890Y-77322D01*
X72762Y-77304D01*
X72809Y-77189D01*
X72810Y-77020D01*
X72745Y-76864D01*
X72626Y-76744D01*
X72469Y-76680D01*
X72300Y-76679D01*
X72144Y-76744D01*
X72024Y-76863D01*
X72016Y-76885D01*
X71961Y-76829D01*
X71804Y-76765D01*
X71635Y-76764D01*
X71479Y-76829D01*
X71418Y-76890D01*
X70201Y-76890D01*
X70141Y-76829D01*
X69984Y-76765D01*
X69815Y-76764D01*
X69659Y-76829D01*
X69539Y-76948D01*
X69475Y-77105D01*
X69474Y-77274D01*
X69484Y-77297D01*
X66274Y-77290D01*
X66255Y-59750D01*
X82432Y-59801D01*
X82432Y-59801D01*
G37*
G54D32*
X82432Y-59801D02*
X82369Y-59863D01*
X82342Y-59930D01*
X82320Y-59930D01*
X80695Y-59930D01*
X80580Y-59952D01*
X80482Y-60017D01*
X79882Y-60617D01*
X79817Y-60715D01*
X79795Y-60830D01*
X79795Y-61145D01*
X78580Y-62360D01*
X78420Y-62360D01*
X78420Y-61007D01*
X78260Y-60621D01*
X77965Y-60325D01*
X77579Y-60165D01*
X77162Y-60164D01*
X76776Y-60324D01*
X76480Y-60619D01*
X76320Y-61005D01*
X76319Y-61422D01*
X76479Y-61809D01*
X76774Y-62104D01*
X77160Y-62264D01*
X77577Y-62265D01*
X77964Y-62105D01*
X78259Y-61810D01*
X78419Y-61424D01*
X78420Y-61007D01*
X78420Y-62360D01*
X73540Y-62360D01*
X73425Y-62382D01*
X73327Y-62447D01*
X72727Y-63047D01*
X72662Y-63145D01*
X72640Y-63260D01*
X72640Y-63365D01*
X69955Y-66050D01*
X69955Y-64551D01*
X69955Y-61953D01*
X69884Y-61781D01*
X69753Y-61650D01*
X69582Y-61579D01*
X69396Y-61579D01*
X69224Y-61650D01*
X69093Y-61781D01*
X69022Y-61952D01*
X69022Y-62138D01*
X69093Y-62309D01*
X69224Y-62441D01*
X69395Y-62512D01*
X69581Y-62512D01*
X69752Y-62441D01*
X69884Y-62310D01*
X69955Y-62138D01*
X69955Y-61953D01*
X69955Y-64551D01*
X69884Y-64380D01*
X69753Y-64248D01*
X69582Y-64177D01*
X69396Y-64177D01*
X69224Y-64248D01*
X69093Y-64379D01*
X69022Y-64551D01*
X69022Y-64736D01*
X69093Y-64908D01*
X69224Y-65039D01*
X69395Y-65110D01*
X69581Y-65110D01*
X69752Y-65039D01*
X69884Y-64908D01*
X69955Y-64737D01*
X69955Y-64551D01*
X69955Y-66050D01*
X69177Y-66827D01*
X69112Y-66925D01*
X69090Y-67040D01*
X69090Y-73525D01*
X69052Y-73433D01*
X68981Y-73363D01*
X68889Y-73325D01*
X68790Y-73324D01*
X68670Y-73324D01*
X68670Y-68863D01*
X68670Y-67131D01*
X68599Y-66959D01*
X68468Y-66828D01*
X68296Y-66757D01*
X68111Y-66757D01*
X67939Y-66828D01*
X67808Y-66959D01*
X67737Y-67130D01*
X67737Y-67316D01*
X67807Y-67487D01*
X67939Y-67619D01*
X68110Y-67690D01*
X68296Y-67690D01*
X68467Y-67619D01*
X68598Y-67488D01*
X68670Y-67317D01*
X68670Y-67131D01*
X68670Y-68863D01*
X68599Y-68692D01*
X68468Y-68560D01*
X68296Y-68489D01*
X68111Y-68489D01*
X67939Y-68560D01*
X67808Y-68691D01*
X67737Y-68862D01*
X67737Y-69048D01*
X67807Y-69220D01*
X67939Y-69351D01*
X68110Y-69422D01*
X68296Y-69422D01*
X68467Y-69351D01*
X68598Y-69220D01*
X68670Y-69049D01*
X68670Y-68863D01*
X68670Y-73324D01*
X68190Y-73324D01*
X68098Y-73362D01*
X68028Y-73433D01*
X67990Y-73525D01*
X67989Y-73578D01*
X67925Y-73559D01*
X67855Y-73630D01*
X67855Y-73489D01*
X67827Y-73393D01*
X67621Y-73320D01*
X67403Y-73331D01*
X67252Y-73393D01*
X67224Y-73489D01*
X67540Y-73804D01*
X67855Y-73489D01*
X67855Y-73630D01*
X67610Y-73875D01*
X67925Y-74190D01*
X67989Y-74171D01*
X67989Y-74224D01*
X68027Y-74316D01*
X68098Y-74386D01*
X68190Y-74424D01*
X68289Y-74425D01*
X68889Y-74425D01*
X68981Y-74387D01*
X69051Y-74316D01*
X69089Y-74224D01*
X69090Y-74174D01*
X69090Y-74654D01*
X69005Y-74654D01*
X68849Y-74719D01*
X68819Y-74750D01*
X67855Y-74750D01*
X67855Y-74260D01*
X67540Y-73945D01*
X67469Y-74016D01*
X67469Y-73875D01*
X67154Y-73559D01*
X67058Y-73587D01*
X66985Y-73793D01*
X66996Y-74011D01*
X67058Y-74162D01*
X67154Y-74190D01*
X67469Y-73875D01*
X67469Y-74016D01*
X67224Y-74260D01*
X67252Y-74356D01*
X67458Y-74429D01*
X67676Y-74418D01*
X67827Y-74356D01*
X67855Y-74260D01*
X67855Y-74750D01*
X67461Y-74750D01*
X67401Y-74689D01*
X67244Y-74625D01*
X67075Y-74624D01*
X66919Y-74689D01*
X66799Y-74808D01*
X66735Y-74965D01*
X66734Y-75134D01*
X66799Y-75290D01*
X66918Y-75410D01*
X67075Y-75474D01*
X67244Y-75475D01*
X67400Y-75410D01*
X67461Y-75350D01*
X68759Y-75350D01*
X68848Y-75440D01*
X69005Y-75504D01*
X69174Y-75505D01*
X69330Y-75440D01*
X69450Y-75321D01*
X69498Y-75203D01*
X69837Y-75542D01*
X69837Y-75542D01*
X69935Y-75607D01*
X70050Y-75630D01*
X72500Y-75630D01*
X72580Y-75709D01*
X72580Y-76570D01*
X72602Y-76684D01*
X72667Y-76782D01*
X73077Y-77192D01*
X73175Y-77257D01*
X73175Y-77257D01*
X73290Y-77280D01*
X75200Y-77280D01*
X75200Y-77279D01*
X75314Y-77257D01*
X75314Y-77257D01*
X75412Y-77192D01*
X76108Y-76495D01*
X76576Y-76397D01*
X76578Y-76400D01*
X76735Y-76464D01*
X76904Y-76465D01*
X77060Y-76400D01*
X77180Y-76281D01*
X77244Y-76124D01*
X77245Y-75955D01*
X77180Y-75799D01*
X77061Y-75679D01*
X76904Y-75615D01*
X76735Y-75614D01*
X76579Y-75679D01*
X76459Y-75798D01*
X76455Y-75810D01*
X75898Y-75926D01*
X75872Y-75937D01*
X75845Y-75942D01*
X75819Y-75960D01*
X75790Y-75972D01*
X75771Y-75992D01*
X75747Y-76007D01*
X75075Y-76680D01*
X74581Y-76680D01*
X74590Y-76671D01*
X74654Y-76514D01*
X74655Y-76345D01*
X74590Y-76189D01*
X74530Y-76128D01*
X74530Y-74284D01*
X74569Y-74244D01*
X74654Y-74245D01*
X74810Y-74180D01*
X74923Y-74067D01*
X76117Y-75262D01*
X76133Y-75272D01*
X76146Y-75287D01*
X76181Y-75304D01*
X76215Y-75327D01*
X76233Y-75330D01*
X76250Y-75339D01*
X76290Y-75342D01*
X76330Y-75349D01*
X76348Y-75346D01*
X76367Y-75347D01*
X76775Y-75296D01*
X76798Y-75320D01*
X76955Y-75384D01*
X77124Y-75385D01*
X77148Y-75374D01*
X78441Y-76746D01*
X78446Y-76750D01*
X78447Y-76752D01*
X78471Y-76767D01*
X78536Y-76814D01*
X78542Y-76815D01*
X78545Y-76817D01*
X78576Y-76823D01*
X78650Y-76840D01*
X78656Y-76839D01*
X78660Y-76840D01*
X80498Y-76840D01*
X80538Y-76880D01*
X80695Y-76944D01*
X80864Y-76945D01*
X80890Y-76934D01*
X80890Y-77322D01*
X72762Y-77304D01*
X72809Y-77189D01*
X72810Y-77020D01*
X72745Y-76864D01*
X72626Y-76744D01*
X72469Y-76680D01*
X72300Y-76679D01*
X72144Y-76744D01*
X72024Y-76863D01*
X72016Y-76885D01*
X71961Y-76829D01*
X71804Y-76765D01*
X71635Y-76764D01*
X71479Y-76829D01*
X71418Y-76890D01*
X70201Y-76890D01*
X70141Y-76829D01*
X69984Y-76765D01*
X69815Y-76764D01*
X69659Y-76829D01*
X69539Y-76948D01*
X69475Y-77105D01*
X69474Y-77274D01*
X69484Y-77297D01*
X66274Y-77290D01*
X66255Y-59750D01*
X82432Y-59801D01*
G54D10*
G36*
X82961Y-72880D02*
X82905Y-73015D01*
X82904Y-73138D01*
X82831Y-73064D01*
X82674Y-73000D01*
X82505Y-72999D01*
X82349Y-73064D01*
X82288Y-73125D01*
X81877Y-73125D01*
X81877Y-72483D01*
X81877Y-71696D01*
X81839Y-71605D01*
X81769Y-71534D01*
X81677Y-71496D01*
X81577Y-71496D01*
X81330Y-71496D01*
X81330Y-71105D01*
X81354Y-71105D01*
X81446Y-71067D01*
X81516Y-70996D01*
X81554Y-70904D01*
X81555Y-70805D01*
X81555Y-70455D01*
X81517Y-70363D01*
X81458Y-70305D01*
X81517Y-70246D01*
X81555Y-70154D01*
X81555Y-69705D01*
X81517Y-69613D01*
X81446Y-69543D01*
X81354Y-69505D01*
X81255Y-69504D01*
X81142Y-69505D01*
X81080Y-69567D01*
X81080Y-69880D01*
X81492Y-69880D01*
X81555Y-69817D01*
X81555Y-69705D01*
X81555Y-70154D01*
X81555Y-70042D01*
X81492Y-69980D01*
X81080Y-69980D01*
X81080Y-69987D01*
X80980Y-69987D01*
X80980Y-69980D01*
X80980Y-69880D01*
X80980Y-69567D01*
X80917Y-69505D01*
X80804Y-69504D01*
X80705Y-69505D01*
X80613Y-69543D01*
X80542Y-69613D01*
X80504Y-69705D01*
X80505Y-69817D01*
X80567Y-69880D01*
X80980Y-69880D01*
X80980Y-69980D01*
X80567Y-69980D01*
X80505Y-70042D01*
X80504Y-70154D01*
X80518Y-70187D01*
X80411Y-70079D01*
X80254Y-70015D01*
X80085Y-70014D01*
X79929Y-70079D01*
X79809Y-70198D01*
X79745Y-70355D01*
X79744Y-70524D01*
X79809Y-70680D01*
X79928Y-70800D01*
X80085Y-70864D01*
X80170Y-70865D01*
X80245Y-70939D01*
X80245Y-71496D01*
X79412Y-71496D01*
X79321Y-71534D01*
X79250Y-71604D01*
X79212Y-71696D01*
X79212Y-71796D01*
X79212Y-72583D01*
X79250Y-72674D01*
X79320Y-72745D01*
X79412Y-72783D01*
X79512Y-72783D01*
X81677Y-72783D01*
X81768Y-72745D01*
X81839Y-72675D01*
X81877Y-72583D01*
X81877Y-72483D01*
X81877Y-73125D01*
X76384Y-73125D01*
X76042Y-72783D01*
X77977Y-72783D01*
X78068Y-72745D01*
X78139Y-72675D01*
X78177Y-72583D01*
X78177Y-72483D01*
X78177Y-71696D01*
X78139Y-71605D01*
X78069Y-71534D01*
X77977Y-71496D01*
X77877Y-71496D01*
X77557Y-71496D01*
X78489Y-70564D01*
X78574Y-70565D01*
X78730Y-70500D01*
X78850Y-70381D01*
X78914Y-70224D01*
X78915Y-70055D01*
X78850Y-69899D01*
X78731Y-69779D01*
X78574Y-69715D01*
X78405Y-69714D01*
X78249Y-69779D01*
X78129Y-69898D01*
X78065Y-70055D01*
X78064Y-70140D01*
X77415Y-70790D01*
X77415Y-70530D01*
X77377Y-70438D01*
X77318Y-70380D01*
X77377Y-70321D01*
X77415Y-70229D01*
X77415Y-69780D01*
X77377Y-69688D01*
X77306Y-69618D01*
X77214Y-69580D01*
X77115Y-69579D01*
X77002Y-69580D01*
X76940Y-69642D01*
X76940Y-69955D01*
X77352Y-69955D01*
X77415Y-69892D01*
X77415Y-69780D01*
X77415Y-70229D01*
X77415Y-70117D01*
X77352Y-70055D01*
X76940Y-70055D01*
X76940Y-70062D01*
X76840Y-70062D01*
X76840Y-70055D01*
X76832Y-70055D01*
X76832Y-69955D01*
X76840Y-69955D01*
X76840Y-69642D01*
X76777Y-69580D01*
X76664Y-69579D01*
X76565Y-69580D01*
X76473Y-69618D01*
X76402Y-69688D01*
X76364Y-69780D01*
X76364Y-69835D01*
X76314Y-69815D01*
X76145Y-69814D01*
X75989Y-69879D01*
X75919Y-69948D01*
X75841Y-69869D01*
X75684Y-69805D01*
X75517Y-69804D01*
X75517Y-68397D01*
X75494Y-68282D01*
X75429Y-68185D01*
X75429Y-68185D01*
X75300Y-68055D01*
X75300Y-67786D01*
X75360Y-67726D01*
X75424Y-67569D01*
X75424Y-67567D01*
X75455Y-67641D01*
X75525Y-67711D01*
X75617Y-67750D01*
X75716Y-67750D01*
X78079Y-67750D01*
X78171Y-67712D01*
X78241Y-67641D01*
X78279Y-67550D01*
X78279Y-67450D01*
X78279Y-67406D01*
X80608Y-67406D01*
X80608Y-67406D01*
X80723Y-67383D01*
X80723Y-67383D01*
X80820Y-67318D01*
X81829Y-66309D01*
X81914Y-66310D01*
X82070Y-66245D01*
X82130Y-66186D01*
X82130Y-72170D01*
X82132Y-72184D01*
X82131Y-72199D01*
X82144Y-72241D01*
X82152Y-72284D01*
X82161Y-72297D01*
X82165Y-72311D01*
X82193Y-72345D01*
X82217Y-72382D01*
X82230Y-72390D01*
X82239Y-72401D01*
X82739Y-72812D01*
X82783Y-72835D01*
X82815Y-72857D01*
X82827Y-72859D01*
X82842Y-72867D01*
X82891Y-72872D01*
X82930Y-72880D01*
X82961Y-72880D01*
X82961Y-72880D01*
G37*
G54D32*
X82961Y-72880D02*
X82905Y-73015D01*
X82904Y-73138D01*
X82831Y-73064D01*
X82674Y-73000D01*
X82505Y-72999D01*
X82349Y-73064D01*
X82288Y-73125D01*
X81877Y-73125D01*
X81877Y-72483D01*
X81877Y-71696D01*
X81839Y-71605D01*
X81769Y-71534D01*
X81677Y-71496D01*
X81577Y-71496D01*
X81330Y-71496D01*
X81330Y-71105D01*
X81354Y-71105D01*
X81446Y-71067D01*
X81516Y-70996D01*
X81554Y-70904D01*
X81555Y-70805D01*
X81555Y-70455D01*
X81517Y-70363D01*
X81458Y-70305D01*
X81517Y-70246D01*
X81555Y-70154D01*
X81555Y-69705D01*
X81517Y-69613D01*
X81446Y-69543D01*
X81354Y-69505D01*
X81255Y-69504D01*
X81142Y-69505D01*
X81080Y-69567D01*
X81080Y-69880D01*
X81492Y-69880D01*
X81555Y-69817D01*
X81555Y-69705D01*
X81555Y-70154D01*
X81555Y-70042D01*
X81492Y-69980D01*
X81080Y-69980D01*
X81080Y-69987D01*
X80980Y-69987D01*
X80980Y-69980D01*
X80980Y-69880D01*
X80980Y-69567D01*
X80917Y-69505D01*
X80804Y-69504D01*
X80705Y-69505D01*
X80613Y-69543D01*
X80542Y-69613D01*
X80504Y-69705D01*
X80505Y-69817D01*
X80567Y-69880D01*
X80980Y-69880D01*
X80980Y-69980D01*
X80567Y-69980D01*
X80505Y-70042D01*
X80504Y-70154D01*
X80518Y-70187D01*
X80411Y-70079D01*
X80254Y-70015D01*
X80085Y-70014D01*
X79929Y-70079D01*
X79809Y-70198D01*
X79745Y-70355D01*
X79744Y-70524D01*
X79809Y-70680D01*
X79928Y-70800D01*
X80085Y-70864D01*
X80170Y-70865D01*
X80245Y-70939D01*
X80245Y-71496D01*
X79412Y-71496D01*
X79321Y-71534D01*
X79250Y-71604D01*
X79212Y-71696D01*
X79212Y-71796D01*
X79212Y-72583D01*
X79250Y-72674D01*
X79320Y-72745D01*
X79412Y-72783D01*
X79512Y-72783D01*
X81677Y-72783D01*
X81768Y-72745D01*
X81839Y-72675D01*
X81877Y-72583D01*
X81877Y-72483D01*
X81877Y-73125D01*
X76384Y-73125D01*
X76042Y-72783D01*
X77977Y-72783D01*
X78068Y-72745D01*
X78139Y-72675D01*
X78177Y-72583D01*
X78177Y-72483D01*
X78177Y-71696D01*
X78139Y-71605D01*
X78069Y-71534D01*
X77977Y-71496D01*
X77877Y-71496D01*
X77557Y-71496D01*
X78489Y-70564D01*
X78574Y-70565D01*
X78730Y-70500D01*
X78850Y-70381D01*
X78914Y-70224D01*
X78915Y-70055D01*
X78850Y-69899D01*
X78731Y-69779D01*
X78574Y-69715D01*
X78405Y-69714D01*
X78249Y-69779D01*
X78129Y-69898D01*
X78065Y-70055D01*
X78064Y-70140D01*
X77415Y-70790D01*
X77415Y-70530D01*
X77377Y-70438D01*
X77318Y-70380D01*
X77377Y-70321D01*
X77415Y-70229D01*
X77415Y-69780D01*
X77377Y-69688D01*
X77306Y-69618D01*
X77214Y-69580D01*
X77115Y-69579D01*
X77002Y-69580D01*
X76940Y-69642D01*
X76940Y-69955D01*
X77352Y-69955D01*
X77415Y-69892D01*
X77415Y-69780D01*
X77415Y-70229D01*
X77415Y-70117D01*
X77352Y-70055D01*
X76940Y-70055D01*
X76940Y-70062D01*
X76840Y-70062D01*
X76840Y-70055D01*
X76832Y-70055D01*
X76832Y-69955D01*
X76840Y-69955D01*
X76840Y-69642D01*
X76777Y-69580D01*
X76664Y-69579D01*
X76565Y-69580D01*
X76473Y-69618D01*
X76402Y-69688D01*
X76364Y-69780D01*
X76364Y-69835D01*
X76314Y-69815D01*
X76145Y-69814D01*
X75989Y-69879D01*
X75919Y-69948D01*
X75841Y-69869D01*
X75684Y-69805D01*
X75517Y-69804D01*
X75517Y-68397D01*
X75494Y-68282D01*
X75429Y-68185D01*
X75429Y-68185D01*
X75300Y-68055D01*
X75300Y-67786D01*
X75360Y-67726D01*
X75424Y-67569D01*
X75424Y-67567D01*
X75455Y-67641D01*
X75525Y-67711D01*
X75617Y-67750D01*
X75716Y-67750D01*
X78079Y-67750D01*
X78171Y-67712D01*
X78241Y-67641D01*
X78279Y-67550D01*
X78279Y-67450D01*
X78279Y-67406D01*
X80608Y-67406D01*
X80608Y-67406D01*
X80723Y-67383D01*
X80723Y-67383D01*
X80820Y-67318D01*
X81829Y-66309D01*
X81914Y-66310D01*
X82070Y-66245D01*
X82130Y-66186D01*
X82130Y-72170D01*
X82132Y-72184D01*
X82131Y-72199D01*
X82144Y-72241D01*
X82152Y-72284D01*
X82161Y-72297D01*
X82165Y-72311D01*
X82193Y-72345D01*
X82217Y-72382D01*
X82230Y-72390D01*
X82239Y-72401D01*
X82739Y-72812D01*
X82783Y-72835D01*
X82815Y-72857D01*
X82827Y-72859D01*
X82842Y-72867D01*
X82891Y-72872D01*
X82930Y-72880D01*
X82961Y-72880D01*
G54D10*
G36*
X83055Y-61109D02*
X82217Y-61947D01*
X82152Y-62045D01*
X82130Y-62160D01*
X82130Y-65583D01*
X82071Y-65524D01*
X81914Y-65460D01*
X81745Y-65459D01*
X81589Y-65524D01*
X81469Y-65643D01*
X81405Y-65800D01*
X81405Y-65874D01*
X81316Y-65784D01*
X81159Y-65720D01*
X81074Y-65719D01*
X80555Y-65201D01*
X80458Y-65136D01*
X80343Y-65113D01*
X78279Y-65113D01*
X78279Y-64970D01*
X78241Y-64878D01*
X78173Y-64810D01*
X79788Y-64810D01*
X79788Y-64810D01*
X79945Y-64874D01*
X80114Y-64875D01*
X80270Y-64810D01*
X80390Y-64691D01*
X80454Y-64534D01*
X80455Y-64365D01*
X80390Y-64209D01*
X80325Y-64144D01*
X81194Y-63274D01*
X81279Y-63275D01*
X81435Y-63210D01*
X81555Y-63091D01*
X81619Y-62934D01*
X81620Y-62765D01*
X81555Y-62609D01*
X81436Y-62489D01*
X81279Y-62425D01*
X81250Y-62425D01*
X81250Y-62180D01*
X81250Y-61111D01*
X81251Y-61110D01*
X83055Y-61110D01*
X83055Y-61109D01*
X83055Y-61109D01*
X83055Y-61109D01*
G37*
G54D32*
X83055Y-61109D02*
X82217Y-61947D01*
X82152Y-62045D01*
X82130Y-62160D01*
X82130Y-65583D01*
X82071Y-65524D01*
X81914Y-65460D01*
X81745Y-65459D01*
X81589Y-65524D01*
X81469Y-65643D01*
X81405Y-65800D01*
X81405Y-65874D01*
X81316Y-65784D01*
X81159Y-65720D01*
X81074Y-65719D01*
X80555Y-65201D01*
X80458Y-65136D01*
X80343Y-65113D01*
X78279Y-65113D01*
X78279Y-64970D01*
X78241Y-64878D01*
X78173Y-64810D01*
X79788Y-64810D01*
X79788Y-64810D01*
X79945Y-64874D01*
X80114Y-64875D01*
X80270Y-64810D01*
X80390Y-64691D01*
X80454Y-64534D01*
X80455Y-64365D01*
X80390Y-64209D01*
X80325Y-64144D01*
X81194Y-63274D01*
X81279Y-63275D01*
X81435Y-63210D01*
X81555Y-63091D01*
X81619Y-62934D01*
X81620Y-62765D01*
X81555Y-62609D01*
X81436Y-62489D01*
X81279Y-62425D01*
X81250Y-62425D01*
X81250Y-62180D01*
X81250Y-61111D01*
X81251Y-61110D01*
X83055Y-61110D01*
X83055Y-61109D01*
X83055Y-61109D01*
G54D10*
G36*
X83281Y-65439D02*
X83275Y-65439D01*
X83275Y-65475D01*
X83252Y-65448D01*
X83230Y-65457D01*
X83230Y-62439D01*
X83281Y-62387D01*
X83281Y-65439D01*
X83281Y-65439D01*
G37*
G54D32*
X83281Y-65439D02*
X83275Y-65439D01*
X83275Y-65475D01*
X83252Y-65448D01*
X83230Y-65457D01*
X83230Y-62439D01*
X83281Y-62387D01*
X83281Y-65439D01*
G54D10*
G36*
X85212Y-72160D02*
X85205Y-72160D01*
X85205Y-72167D01*
X85105Y-72167D01*
X85105Y-72160D01*
X84792Y-72160D01*
X84730Y-72222D01*
X84729Y-72234D01*
X84695Y-72234D01*
X84587Y-72279D01*
X84615Y-72244D01*
X84619Y-72230D01*
X84626Y-72220D01*
X84634Y-72181D01*
X84648Y-72132D01*
X84646Y-72117D01*
X84649Y-72105D01*
X84649Y-72004D01*
X84737Y-72005D01*
X84792Y-72060D01*
X85105Y-72060D01*
X85105Y-72052D01*
X85205Y-72052D01*
X85205Y-72060D01*
X85212Y-72060D01*
X85212Y-72160D01*
X85212Y-72160D01*
G37*
G54D32*
X85212Y-72160D02*
X85205Y-72160D01*
X85205Y-72167D01*
X85105Y-72167D01*
X85105Y-72160D01*
X84792Y-72160D01*
X84730Y-72222D01*
X84729Y-72234D01*
X84695Y-72234D01*
X84587Y-72279D01*
X84615Y-72244D01*
X84619Y-72230D01*
X84626Y-72220D01*
X84634Y-72181D01*
X84648Y-72132D01*
X84646Y-72117D01*
X84649Y-72105D01*
X84649Y-72004D01*
X84737Y-72005D01*
X84792Y-72060D01*
X85105Y-72060D01*
X85105Y-72052D01*
X85205Y-72052D01*
X85205Y-72060D01*
X85212Y-72060D01*
X85212Y-72160D01*
G54D10*
G36*
X86827Y-74145D02*
X86820Y-74145D01*
X86820Y-74152D01*
X86720Y-74152D01*
X86720Y-74145D01*
X86307Y-74145D01*
X86245Y-74207D01*
X86244Y-74319D01*
X86282Y-74411D01*
X86353Y-74481D01*
X86414Y-74507D01*
X86380Y-74590D01*
X86379Y-74759D01*
X86444Y-74915D01*
X86505Y-74976D01*
X86505Y-75095D01*
X86445Y-75240D01*
X86444Y-75361D01*
X86435Y-75359D01*
X86424Y-75352D01*
X86310Y-75330D01*
X86259Y-75340D01*
X83835Y-75340D01*
X83835Y-74549D01*
X83835Y-74437D01*
X83772Y-74375D01*
X83360Y-74375D01*
X83360Y-74687D01*
X83422Y-74750D01*
X83535Y-74750D01*
X83634Y-74749D01*
X83726Y-74711D01*
X83797Y-74641D01*
X83835Y-74549D01*
X83835Y-75340D01*
X83260Y-75340D01*
X82521Y-75340D01*
X82501Y-75319D01*
X82344Y-75255D01*
X82175Y-75254D01*
X82019Y-75319D01*
X81899Y-75438D01*
X81835Y-75595D01*
X81834Y-75764D01*
X81899Y-75920D01*
X81975Y-75996D01*
X81969Y-75999D01*
X81849Y-76118D01*
X81785Y-76275D01*
X81784Y-76444D01*
X81849Y-76600D01*
X81968Y-76720D01*
X82125Y-76784D01*
X82270Y-76785D01*
X82482Y-76997D01*
X82482Y-76997D01*
X82569Y-77055D01*
X81770Y-77055D01*
X81770Y-75390D01*
X81770Y-75030D01*
X81747Y-74915D01*
X81682Y-74817D01*
X81682Y-74817D01*
X81530Y-74666D01*
X81549Y-74619D01*
X81550Y-74450D01*
X81506Y-74345D01*
X82785Y-74345D01*
X82785Y-74375D01*
X82847Y-74375D01*
X82785Y-74437D01*
X82784Y-74549D01*
X82822Y-74641D01*
X82893Y-74711D01*
X82985Y-74749D01*
X83084Y-74750D01*
X83197Y-74750D01*
X83260Y-74687D01*
X83260Y-74375D01*
X83252Y-74375D01*
X83252Y-74275D01*
X83260Y-74275D01*
X83260Y-74267D01*
X83360Y-74267D01*
X83360Y-74275D01*
X83772Y-74275D01*
X83792Y-74255D01*
X83945Y-74255D01*
X83950Y-74255D01*
X85750Y-74255D01*
X85750Y-74254D01*
X85864Y-74232D01*
X85864Y-74232D01*
X85962Y-74167D01*
X86104Y-74025D01*
X86287Y-74025D01*
X86307Y-74045D01*
X86720Y-74045D01*
X86720Y-74037D01*
X86820Y-74037D01*
X86820Y-74045D01*
X86827Y-74045D01*
X86827Y-74145D01*
X86827Y-74145D01*
G37*
G54D32*
X86827Y-74145D02*
X86820Y-74145D01*
X86820Y-74152D01*
X86720Y-74152D01*
X86720Y-74145D01*
X86307Y-74145D01*
X86245Y-74207D01*
X86244Y-74319D01*
X86282Y-74411D01*
X86353Y-74481D01*
X86414Y-74507D01*
X86380Y-74590D01*
X86379Y-74759D01*
X86444Y-74915D01*
X86505Y-74976D01*
X86505Y-75095D01*
X86445Y-75240D01*
X86444Y-75361D01*
X86435Y-75359D01*
X86424Y-75352D01*
X86310Y-75330D01*
X86259Y-75340D01*
X83835Y-75340D01*
X83835Y-74549D01*
X83835Y-74437D01*
X83772Y-74375D01*
X83360Y-74375D01*
X83360Y-74687D01*
X83422Y-74750D01*
X83535Y-74750D01*
X83634Y-74749D01*
X83726Y-74711D01*
X83797Y-74641D01*
X83835Y-74549D01*
X83835Y-75340D01*
X83260Y-75340D01*
X82521Y-75340D01*
X82501Y-75319D01*
X82344Y-75255D01*
X82175Y-75254D01*
X82019Y-75319D01*
X81899Y-75438D01*
X81835Y-75595D01*
X81834Y-75764D01*
X81899Y-75920D01*
X81975Y-75996D01*
X81969Y-75999D01*
X81849Y-76118D01*
X81785Y-76275D01*
X81784Y-76444D01*
X81849Y-76600D01*
X81968Y-76720D01*
X82125Y-76784D01*
X82270Y-76785D01*
X82482Y-76997D01*
X82482Y-76997D01*
X82569Y-77055D01*
X81770Y-77055D01*
X81770Y-75390D01*
X81770Y-75030D01*
X81747Y-74915D01*
X81682Y-74817D01*
X81682Y-74817D01*
X81530Y-74666D01*
X81549Y-74619D01*
X81550Y-74450D01*
X81506Y-74345D01*
X82785Y-74345D01*
X82785Y-74375D01*
X82847Y-74375D01*
X82785Y-74437D01*
X82784Y-74549D01*
X82822Y-74641D01*
X82893Y-74711D01*
X82985Y-74749D01*
X83084Y-74750D01*
X83197Y-74750D01*
X83260Y-74687D01*
X83260Y-74375D01*
X83252Y-74375D01*
X83252Y-74275D01*
X83260Y-74275D01*
X83260Y-74267D01*
X83360Y-74267D01*
X83360Y-74275D01*
X83772Y-74275D01*
X83792Y-74255D01*
X83945Y-74255D01*
X83950Y-74255D01*
X85750Y-74255D01*
X85750Y-74254D01*
X85864Y-74232D01*
X85864Y-74232D01*
X85962Y-74167D01*
X86104Y-74025D01*
X86287Y-74025D01*
X86307Y-74045D01*
X86720Y-74045D01*
X86720Y-74037D01*
X86820Y-74037D01*
X86820Y-74045D01*
X86827Y-74045D01*
X86827Y-74145D01*
G54D10*
G36*
X88595Y-64280D02*
X88487Y-64388D01*
X88422Y-64485D01*
X88399Y-64600D01*
X88399Y-65436D01*
X88327Y-65450D01*
X88315Y-65458D01*
X88303Y-65450D01*
X88187Y-65427D01*
X88071Y-65450D01*
X88048Y-65466D01*
X88005Y-65448D01*
X87958Y-65503D01*
X87958Y-65538D01*
X87931Y-65578D01*
X87905Y-65538D01*
X87905Y-65503D01*
X87858Y-65448D01*
X87815Y-65466D01*
X87791Y-65450D01*
X87675Y-65427D01*
X87559Y-65450D01*
X87547Y-65458D01*
X87536Y-65450D01*
X87464Y-65436D01*
X87464Y-64425D01*
X87609Y-64280D01*
X88595Y-64280D01*
X88595Y-64280D01*
G37*
G54D32*
X88595Y-64280D02*
X88487Y-64388D01*
X88422Y-64485D01*
X88399Y-64600D01*
X88399Y-65436D01*
X88327Y-65450D01*
X88315Y-65458D01*
X88303Y-65450D01*
X88187Y-65427D01*
X88071Y-65450D01*
X88048Y-65466D01*
X88005Y-65448D01*
X87958Y-65503D01*
X87958Y-65538D01*
X87931Y-65578D01*
X87905Y-65538D01*
X87905Y-65503D01*
X87858Y-65448D01*
X87815Y-65466D01*
X87791Y-65450D01*
X87675Y-65427D01*
X87559Y-65450D01*
X87547Y-65458D01*
X87536Y-65450D01*
X87464Y-65436D01*
X87464Y-64425D01*
X87609Y-64280D01*
X88595Y-64280D01*
G54D10*
G36*
X89142Y-71458D02*
X89078Y-71523D01*
X89040Y-71615D01*
X89039Y-71714D01*
X89039Y-71931D01*
X88981Y-71872D01*
X88889Y-71834D01*
X88777Y-71835D01*
X88715Y-71897D01*
X88715Y-72310D01*
X88722Y-72310D01*
X88722Y-72410D01*
X88715Y-72410D01*
X88715Y-72417D01*
X88615Y-72417D01*
X88615Y-72410D01*
X88607Y-72410D01*
X88607Y-72310D01*
X88615Y-72310D01*
X88615Y-71897D01*
X88552Y-71835D01*
X88440Y-71834D01*
X88348Y-71872D01*
X88289Y-71931D01*
X88231Y-71873D01*
X88231Y-71463D01*
X88303Y-71449D01*
X88315Y-71441D01*
X88327Y-71449D01*
X88443Y-71472D01*
X88559Y-71449D01*
X88583Y-71433D01*
X88626Y-71451D01*
X88672Y-71396D01*
X88672Y-71361D01*
X88699Y-71321D01*
X88726Y-71361D01*
X88726Y-71396D01*
X88773Y-71451D01*
X88815Y-71433D01*
X88839Y-71449D01*
X88955Y-71472D01*
X89071Y-71449D01*
X89083Y-71441D01*
X89095Y-71449D01*
X89142Y-71458D01*
X89142Y-71458D01*
G37*
G54D32*
X89142Y-71458D02*
X89078Y-71523D01*
X89040Y-71615D01*
X89039Y-71714D01*
X89039Y-71931D01*
X88981Y-71872D01*
X88889Y-71834D01*
X88777Y-71835D01*
X88715Y-71897D01*
X88715Y-72310D01*
X88722Y-72310D01*
X88722Y-72410D01*
X88715Y-72410D01*
X88715Y-72417D01*
X88615Y-72417D01*
X88615Y-72410D01*
X88607Y-72410D01*
X88607Y-72310D01*
X88615Y-72310D01*
X88615Y-71897D01*
X88552Y-71835D01*
X88440Y-71834D01*
X88348Y-71872D01*
X88289Y-71931D01*
X88231Y-71873D01*
X88231Y-71463D01*
X88303Y-71449D01*
X88315Y-71441D01*
X88327Y-71449D01*
X88443Y-71472D01*
X88559Y-71449D01*
X88583Y-71433D01*
X88626Y-71451D01*
X88672Y-71396D01*
X88672Y-71361D01*
X88699Y-71321D01*
X88726Y-71361D01*
X88726Y-71396D01*
X88773Y-71451D01*
X88815Y-71433D01*
X88839Y-71449D01*
X88955Y-71472D01*
X89071Y-71449D01*
X89083Y-71441D01*
X89095Y-71449D01*
X89142Y-71458D01*
G54D10*
G36*
X89445Y-72785D02*
X89043Y-72785D01*
X89051Y-72776D01*
X89089Y-72684D01*
X89090Y-72585D01*
X89090Y-72472D01*
X89027Y-72410D01*
X89090Y-72410D01*
X89090Y-72368D01*
X89148Y-72426D01*
X89240Y-72464D01*
X89244Y-72464D01*
X89252Y-72477D01*
X89445Y-72669D01*
X89445Y-72785D01*
X89445Y-72785D01*
G37*
G54D32*
X89445Y-72785D02*
X89043Y-72785D01*
X89051Y-72776D01*
X89089Y-72684D01*
X89090Y-72585D01*
X89090Y-72472D01*
X89027Y-72410D01*
X89090Y-72410D01*
X89090Y-72368D01*
X89148Y-72426D01*
X89240Y-72464D01*
X89244Y-72464D01*
X89252Y-72477D01*
X89445Y-72669D01*
X89445Y-72785D01*
G54D10*
G36*
X90809Y-71663D02*
X90800Y-71672D01*
X90800Y-72085D01*
X90807Y-72085D01*
X90807Y-72185D01*
X90800Y-72185D01*
X90800Y-72377D01*
X90800Y-72597D01*
X90800Y-72790D01*
X90807Y-72790D01*
X90807Y-72890D01*
X90800Y-72890D01*
X90800Y-72897D01*
X90700Y-72897D01*
X90700Y-72890D01*
X90387Y-72890D01*
X90325Y-72952D01*
X90324Y-73010D01*
X90079Y-73010D01*
X90035Y-72966D01*
X90044Y-72920D01*
X90045Y-72920D01*
X90045Y-72545D01*
X90029Y-72465D01*
X90102Y-72465D01*
X90165Y-72402D01*
X90165Y-71990D01*
X90157Y-71990D01*
X90157Y-71890D01*
X90165Y-71890D01*
X90165Y-71477D01*
X90122Y-71435D01*
X90161Y-71451D01*
X90208Y-71396D01*
X90208Y-71361D01*
X90234Y-71321D01*
X90261Y-71361D01*
X90261Y-71396D01*
X90300Y-71442D01*
X90265Y-71477D01*
X90265Y-71890D01*
X90272Y-71890D01*
X90272Y-71990D01*
X90265Y-71990D01*
X90265Y-72402D01*
X90326Y-72464D01*
X90336Y-72487D01*
X90325Y-72515D01*
X90324Y-72614D01*
X90325Y-72727D01*
X90387Y-72790D01*
X90700Y-72790D01*
X90700Y-72597D01*
X90700Y-72377D01*
X90700Y-72185D01*
X90692Y-72185D01*
X90692Y-72085D01*
X90700Y-72085D01*
X90700Y-71672D01*
X90638Y-71610D01*
X90601Y-71523D01*
X90541Y-71462D01*
X90606Y-71449D01*
X90618Y-71441D01*
X90630Y-71449D01*
X90709Y-71464D01*
X90725Y-71547D01*
X90790Y-71644D01*
X90809Y-71663D01*
X90809Y-71663D01*
G37*
G54D32*
X90809Y-71663D02*
X90800Y-71672D01*
X90800Y-72085D01*
X90807Y-72085D01*
X90807Y-72185D01*
X90800Y-72185D01*
X90800Y-72377D01*
X90800Y-72597D01*
X90800Y-72790D01*
X90807Y-72790D01*
X90807Y-72890D01*
X90800Y-72890D01*
X90800Y-72897D01*
X90700Y-72897D01*
X90700Y-72890D01*
X90387Y-72890D01*
X90325Y-72952D01*
X90324Y-73010D01*
X90079Y-73010D01*
X90035Y-72966D01*
X90044Y-72920D01*
X90045Y-72920D01*
X90045Y-72545D01*
X90029Y-72465D01*
X90102Y-72465D01*
X90165Y-72402D01*
X90165Y-71990D01*
X90157Y-71990D01*
X90157Y-71890D01*
X90165Y-71890D01*
X90165Y-71477D01*
X90122Y-71435D01*
X90161Y-71451D01*
X90208Y-71396D01*
X90208Y-71361D01*
X90234Y-71321D01*
X90261Y-71361D01*
X90261Y-71396D01*
X90300Y-71442D01*
X90265Y-71477D01*
X90265Y-71890D01*
X90272Y-71890D01*
X90272Y-71990D01*
X90265Y-71990D01*
X90265Y-72402D01*
X90326Y-72464D01*
X90336Y-72487D01*
X90325Y-72515D01*
X90324Y-72614D01*
X90325Y-72727D01*
X90387Y-72790D01*
X90700Y-72790D01*
X90700Y-72597D01*
X90700Y-72377D01*
X90700Y-72185D01*
X90692Y-72185D01*
X90692Y-72085D01*
X90700Y-72085D01*
X90700Y-71672D01*
X90638Y-71610D01*
X90601Y-71523D01*
X90541Y-71462D01*
X90606Y-71449D01*
X90618Y-71441D01*
X90630Y-71449D01*
X90709Y-71464D01*
X90725Y-71547D01*
X90790Y-71644D01*
X90809Y-71663D01*
G54D10*
G36*
X91027Y-61115D02*
X91020Y-61115D01*
X91020Y-61122D01*
X90920Y-61122D01*
X90920Y-61115D01*
X90712Y-61115D01*
X90507Y-61115D01*
X90300Y-61115D01*
X90300Y-61122D01*
X90200Y-61122D01*
X90200Y-61115D01*
X90192Y-61115D01*
X90192Y-61015D01*
X90200Y-61015D01*
X90200Y-61007D01*
X90300Y-61007D01*
X90300Y-61015D01*
X90507Y-61015D01*
X90712Y-61015D01*
X90920Y-61015D01*
X90920Y-61007D01*
X91020Y-61007D01*
X91020Y-61015D01*
X91027Y-61015D01*
X91027Y-61115D01*
X91027Y-61115D01*
G37*
G54D32*
X91027Y-61115D02*
X91020Y-61115D01*
X91020Y-61122D01*
X90920Y-61122D01*
X90920Y-61115D01*
X90712Y-61115D01*
X90507Y-61115D01*
X90300Y-61115D01*
X90300Y-61122D01*
X90200Y-61122D01*
X90200Y-61115D01*
X90192Y-61115D01*
X90192Y-61015D01*
X90200Y-61015D01*
X90200Y-61007D01*
X90300Y-61007D01*
X90300Y-61015D01*
X90507Y-61015D01*
X90712Y-61015D01*
X90920Y-61015D01*
X90920Y-61007D01*
X91020Y-61007D01*
X91020Y-61015D01*
X91027Y-61015D01*
X91027Y-61115D01*
G54D10*
G36*
X92295Y-63355D02*
X92052Y-63597D01*
X92042Y-63612D01*
X91630Y-64025D01*
X91109Y-64025D01*
X91319Y-63814D01*
X91404Y-63815D01*
X91560Y-63750D01*
X91680Y-63631D01*
X91744Y-63474D01*
X91745Y-63355D01*
X92295Y-63355D01*
X92295Y-63355D01*
G37*
G54D32*
X92295Y-63355D02*
X92052Y-63597D01*
X92042Y-63612D01*
X91630Y-64025D01*
X91109Y-64025D01*
X91319Y-63814D01*
X91404Y-63815D01*
X91560Y-63750D01*
X91680Y-63631D01*
X91744Y-63474D01*
X91745Y-63355D01*
X92295Y-63355D01*
G54D10*
G36*
X93372Y-63810D02*
X93365Y-63810D01*
X93365Y-63817D01*
X93265Y-63817D01*
X93265Y-63810D01*
X92852Y-63810D01*
X92790Y-63872D01*
X92789Y-63984D01*
X92827Y-64076D01*
X92886Y-64135D01*
X92877Y-64144D01*
X92854Y-64135D01*
X92685Y-64134D01*
X92529Y-64199D01*
X92409Y-64318D01*
X92345Y-64475D01*
X92344Y-64630D01*
X90680Y-64630D01*
X90345Y-64630D01*
X90230Y-64652D01*
X90132Y-64717D01*
X89766Y-65083D01*
X89701Y-65181D01*
X89679Y-65295D01*
X89679Y-65436D01*
X89607Y-65450D01*
X89583Y-65466D01*
X89540Y-65448D01*
X89493Y-65503D01*
X89493Y-65538D01*
X89467Y-65578D01*
X89440Y-65538D01*
X89440Y-65503D01*
X89393Y-65448D01*
X89350Y-65466D01*
X89327Y-65450D01*
X89211Y-65427D01*
X89095Y-65450D01*
X89083Y-65458D01*
X89071Y-65450D01*
X88999Y-65436D01*
X88999Y-64724D01*
X89099Y-64625D01*
X90385Y-64625D01*
X91755Y-64625D01*
X91755Y-64624D01*
X91869Y-64602D01*
X91869Y-64602D01*
X91967Y-64537D01*
X92477Y-64027D01*
X92477Y-64027D01*
X92477Y-64027D01*
X92482Y-64022D01*
X92492Y-64007D01*
X92744Y-63754D01*
X92829Y-63755D01*
X92938Y-63710D01*
X93265Y-63710D01*
X93265Y-63702D01*
X93365Y-63702D01*
X93365Y-63710D01*
X93372Y-63710D01*
X93372Y-63810D01*
X93372Y-63810D01*
G37*
G54D32*
X93372Y-63810D02*
X93365Y-63810D01*
X93365Y-63817D01*
X93265Y-63817D01*
X93265Y-63810D01*
X92852Y-63810D01*
X92790Y-63872D01*
X92789Y-63984D01*
X92827Y-64076D01*
X92886Y-64135D01*
X92877Y-64144D01*
X92854Y-64135D01*
X92685Y-64134D01*
X92529Y-64199D01*
X92409Y-64318D01*
X92345Y-64475D01*
X92344Y-64630D01*
X90680Y-64630D01*
X90345Y-64630D01*
X90230Y-64652D01*
X90132Y-64717D01*
X89766Y-65083D01*
X89701Y-65181D01*
X89679Y-65295D01*
X89679Y-65436D01*
X89607Y-65450D01*
X89583Y-65466D01*
X89540Y-65448D01*
X89493Y-65503D01*
X89493Y-65538D01*
X89467Y-65578D01*
X89440Y-65538D01*
X89440Y-65503D01*
X89393Y-65448D01*
X89350Y-65466D01*
X89327Y-65450D01*
X89211Y-65427D01*
X89095Y-65450D01*
X89083Y-65458D01*
X89071Y-65450D01*
X88999Y-65436D01*
X88999Y-64724D01*
X89099Y-64625D01*
X90385Y-64625D01*
X91755Y-64625D01*
X91755Y-64624D01*
X91869Y-64602D01*
X91869Y-64602D01*
X91967Y-64537D01*
X92477Y-64027D01*
X92477Y-64027D01*
X92477Y-64027D01*
X92482Y-64022D01*
X92492Y-64007D01*
X92744Y-63754D01*
X92829Y-63755D01*
X92938Y-63710D01*
X93265Y-63710D01*
X93265Y-63702D01*
X93365Y-63702D01*
X93365Y-63710D01*
X93372Y-63710D01*
X93372Y-63810D01*
G54D10*
G36*
X93780Y-68830D02*
X93745Y-68865D01*
X93440Y-68865D01*
X93325Y-68887D01*
X93227Y-68952D01*
X92702Y-69477D01*
X92637Y-69575D01*
X92615Y-69690D01*
X92615Y-69820D01*
X92600Y-69834D01*
X92548Y-69781D01*
X92604Y-69644D01*
X92605Y-69475D01*
X92540Y-69319D01*
X92421Y-69199D01*
X92264Y-69135D01*
X92095Y-69134D01*
X91996Y-69176D01*
X91935Y-69029D01*
X91816Y-68909D01*
X91659Y-68845D01*
X91490Y-68844D01*
X91334Y-68909D01*
X91214Y-69028D01*
X91150Y-69185D01*
X91149Y-69270D01*
X90610Y-69810D01*
X90289Y-69490D01*
X90290Y-69405D01*
X90225Y-69249D01*
X90106Y-69129D01*
X89949Y-69065D01*
X89838Y-69064D01*
X89815Y-69009D01*
X89696Y-68889D01*
X89564Y-68835D01*
X89565Y-68710D01*
X89500Y-68554D01*
X89403Y-68457D01*
X89510Y-68351D01*
X89574Y-68194D01*
X89575Y-68025D01*
X89510Y-67869D01*
X89469Y-67828D01*
X89585Y-67780D01*
X89626Y-67739D01*
X89640Y-67744D01*
X89809Y-67745D01*
X89965Y-67680D01*
X90085Y-67561D01*
X90149Y-67404D01*
X90150Y-67235D01*
X90085Y-67079D01*
X90023Y-67017D01*
X90023Y-66651D01*
X90095Y-66636D01*
X90107Y-66628D01*
X90118Y-66636D01*
X90234Y-66659D01*
X90350Y-66636D01*
X90362Y-66628D01*
X90374Y-66636D01*
X90490Y-66659D01*
X90606Y-66636D01*
X90618Y-66628D01*
X90630Y-66636D01*
X90746Y-66659D01*
X90862Y-66636D01*
X90886Y-66620D01*
X90929Y-66638D01*
X90976Y-66584D01*
X90976Y-66548D01*
X91002Y-66508D01*
X91029Y-66548D01*
X91029Y-66584D01*
X91076Y-66638D01*
X91118Y-66620D01*
X91142Y-66636D01*
X91258Y-66659D01*
X91374Y-66636D01*
X91398Y-66620D01*
X91441Y-66638D01*
X91487Y-66584D01*
X91487Y-66548D01*
X91538Y-66472D01*
X91541Y-66460D01*
X91541Y-66584D01*
X91587Y-66638D01*
X91693Y-66594D01*
X91775Y-66507D01*
X91817Y-66394D01*
X91817Y-66093D01*
X91561Y-66093D01*
X91561Y-65993D01*
X91817Y-65993D01*
X91817Y-65745D01*
X92005Y-65745D01*
X92402Y-66142D01*
X92402Y-66142D01*
X92402Y-66142D01*
X92635Y-66374D01*
X92634Y-66459D01*
X92699Y-66615D01*
X92818Y-66735D01*
X92975Y-66799D01*
X93144Y-66800D01*
X93300Y-66735D01*
X93420Y-66616D01*
X93484Y-66459D01*
X93485Y-66320D01*
X93605Y-66270D01*
X93725Y-66151D01*
X93780Y-66018D01*
X93780Y-68830D01*
X93780Y-68830D01*
G37*
G54D32*
X93780Y-68830D02*
X93745Y-68865D01*
X93440Y-68865D01*
X93325Y-68887D01*
X93227Y-68952D01*
X92702Y-69477D01*
X92637Y-69575D01*
X92615Y-69690D01*
X92615Y-69820D01*
X92600Y-69834D01*
X92548Y-69781D01*
X92604Y-69644D01*
X92605Y-69475D01*
X92540Y-69319D01*
X92421Y-69199D01*
X92264Y-69135D01*
X92095Y-69134D01*
X91996Y-69176D01*
X91935Y-69029D01*
X91816Y-68909D01*
X91659Y-68845D01*
X91490Y-68844D01*
X91334Y-68909D01*
X91214Y-69028D01*
X91150Y-69185D01*
X91149Y-69270D01*
X90610Y-69810D01*
X90289Y-69490D01*
X90290Y-69405D01*
X90225Y-69249D01*
X90106Y-69129D01*
X89949Y-69065D01*
X89838Y-69064D01*
X89815Y-69009D01*
X89696Y-68889D01*
X89564Y-68835D01*
X89565Y-68710D01*
X89500Y-68554D01*
X89403Y-68457D01*
X89510Y-68351D01*
X89574Y-68194D01*
X89575Y-68025D01*
X89510Y-67869D01*
X89469Y-67828D01*
X89585Y-67780D01*
X89626Y-67739D01*
X89640Y-67744D01*
X89809Y-67745D01*
X89965Y-67680D01*
X90085Y-67561D01*
X90149Y-67404D01*
X90150Y-67235D01*
X90085Y-67079D01*
X90023Y-67017D01*
X90023Y-66651D01*
X90095Y-66636D01*
X90107Y-66628D01*
X90118Y-66636D01*
X90234Y-66659D01*
X90350Y-66636D01*
X90362Y-66628D01*
X90374Y-66636D01*
X90490Y-66659D01*
X90606Y-66636D01*
X90618Y-66628D01*
X90630Y-66636D01*
X90746Y-66659D01*
X90862Y-66636D01*
X90886Y-66620D01*
X90929Y-66638D01*
X90976Y-66584D01*
X90976Y-66548D01*
X91002Y-66508D01*
X91029Y-66548D01*
X91029Y-66584D01*
X91076Y-66638D01*
X91118Y-66620D01*
X91142Y-66636D01*
X91258Y-66659D01*
X91374Y-66636D01*
X91398Y-66620D01*
X91441Y-66638D01*
X91487Y-66584D01*
X91487Y-66548D01*
X91538Y-66472D01*
X91541Y-66460D01*
X91541Y-66584D01*
X91587Y-66638D01*
X91693Y-66594D01*
X91775Y-66507D01*
X91817Y-66394D01*
X91817Y-66093D01*
X91561Y-66093D01*
X91561Y-65993D01*
X91817Y-65993D01*
X91817Y-65745D01*
X92005Y-65745D01*
X92402Y-66142D01*
X92402Y-66142D01*
X92402Y-66142D01*
X92635Y-66374D01*
X92634Y-66459D01*
X92699Y-66615D01*
X92818Y-66735D01*
X92975Y-66799D01*
X93144Y-66800D01*
X93300Y-66735D01*
X93420Y-66616D01*
X93484Y-66459D01*
X93485Y-66320D01*
X93605Y-66270D01*
X93725Y-66151D01*
X93780Y-66018D01*
X93780Y-68830D01*
G54D10*
G36*
X94510Y-69375D02*
X93485Y-70400D01*
X93330Y-70399D01*
X93183Y-70460D01*
X93442Y-70202D01*
X93507Y-70104D01*
X93529Y-69990D01*
X93530Y-69990D01*
X93530Y-69714D01*
X93634Y-69610D01*
X93950Y-69610D01*
X93970Y-69610D01*
X94084Y-69587D01*
X94182Y-69522D01*
X94222Y-69461D01*
X94462Y-69222D01*
X94462Y-69222D01*
X94488Y-69182D01*
X94497Y-69197D01*
X94510Y-69209D01*
X94510Y-69375D01*
X94510Y-69375D01*
G37*
G54D32*
X94510Y-69375D02*
X93485Y-70400D01*
X93330Y-70399D01*
X93183Y-70460D01*
X93442Y-70202D01*
X93507Y-70104D01*
X93529Y-69990D01*
X93530Y-69990D01*
X93530Y-69714D01*
X93634Y-69610D01*
X93950Y-69610D01*
X93970Y-69610D01*
X94084Y-69587D01*
X94182Y-69522D01*
X94222Y-69461D01*
X94462Y-69222D01*
X94462Y-69222D01*
X94488Y-69182D01*
X94497Y-69197D01*
X94510Y-69209D01*
X94510Y-69375D01*
G54D10*
G36*
X94826Y-63809D02*
X94767Y-63867D01*
X94702Y-63965D01*
X94680Y-64080D01*
X94680Y-65024D01*
X94625Y-65024D01*
X94550Y-65056D01*
X94550Y-63820D01*
X94612Y-63820D01*
X94675Y-63757D01*
X94675Y-63445D01*
X94667Y-63445D01*
X94667Y-63345D01*
X94675Y-63345D01*
X94675Y-63337D01*
X94775Y-63337D01*
X94775Y-63345D01*
X94782Y-63345D01*
X94782Y-63445D01*
X94775Y-63445D01*
X94775Y-63757D01*
X94826Y-63809D01*
X94826Y-63809D01*
G37*
G54D32*
X94826Y-63809D02*
X94767Y-63867D01*
X94702Y-63965D01*
X94680Y-64080D01*
X94680Y-65024D01*
X94625Y-65024D01*
X94550Y-65056D01*
X94550Y-63820D01*
X94612Y-63820D01*
X94675Y-63757D01*
X94675Y-63445D01*
X94667Y-63445D01*
X94667Y-63345D01*
X94675Y-63345D01*
X94675Y-63337D01*
X94775Y-63337D01*
X94775Y-63345D01*
X94782Y-63345D01*
X94782Y-63445D01*
X94775Y-63445D01*
X94775Y-63757D01*
X94826Y-63809D01*
G54D10*
G36*
X97839Y-64739D02*
X97416Y-64739D01*
X97357Y-64763D01*
X97278Y-64763D01*
X97216Y-64826D01*
X97216Y-64846D01*
X96241Y-64846D01*
X95910Y-64515D01*
X95910Y-63619D01*
X96783Y-64492D01*
X96783Y-64492D01*
X96880Y-64557D01*
X96995Y-64580D01*
X96995Y-64580D01*
X97216Y-64580D01*
X97216Y-64601D01*
X97278Y-64663D01*
X97357Y-64663D01*
X97416Y-64688D01*
X97515Y-64688D01*
X97839Y-64688D01*
X97839Y-64739D01*
X97839Y-64739D01*
G37*
G54D32*
X97839Y-64739D02*
X97416Y-64739D01*
X97357Y-64763D01*
X97278Y-64763D01*
X97216Y-64826D01*
X97216Y-64846D01*
X96241Y-64846D01*
X95910Y-64515D01*
X95910Y-63619D01*
X96783Y-64492D01*
X96783Y-64492D01*
X96880Y-64557D01*
X96995Y-64580D01*
X96995Y-64580D01*
X97216Y-64580D01*
X97216Y-64601D01*
X97278Y-64663D01*
X97357Y-64663D01*
X97416Y-64688D01*
X97515Y-64688D01*
X97839Y-64688D01*
X97839Y-64739D01*
G54D10*
G36*
X117969Y-59914D02*
X117955Y-77404D01*
X117668Y-77404D01*
X117668Y-63627D01*
X117668Y-61627D01*
X117660Y-61332D01*
X117562Y-61096D01*
X117447Y-61045D01*
X117376Y-61116D01*
X117376Y-60975D01*
X117325Y-60859D01*
X117050Y-60754D01*
X116754Y-60762D01*
X116519Y-60859D01*
X116468Y-60975D01*
X116922Y-61429D01*
X117376Y-60975D01*
X117376Y-61116D01*
X116993Y-61500D01*
X117447Y-61954D01*
X117562Y-61903D01*
X117668Y-61627D01*
X117668Y-63627D01*
X117660Y-63332D01*
X117562Y-63096D01*
X117447Y-63045D01*
X117376Y-63116D01*
X117376Y-62975D01*
X117325Y-62859D01*
X117050Y-62754D01*
X116754Y-62762D01*
X116605Y-62823D01*
X116519Y-62859D01*
X116468Y-62975D01*
X116440Y-62947D01*
X116501Y-62887D01*
X116605Y-62636D01*
X116605Y-62364D01*
X116501Y-62113D01*
X116440Y-62052D01*
X116468Y-62024D01*
X116519Y-62140D01*
X116794Y-62245D01*
X117089Y-62237D01*
X117325Y-62140D01*
X117376Y-62024D01*
X116922Y-61570D01*
X116916Y-61576D01*
X116851Y-61511D01*
X116846Y-61505D01*
X116851Y-61500D01*
X116397Y-61045D01*
X116282Y-61096D01*
X116176Y-61372D01*
X116184Y-61667D01*
X116282Y-61903D01*
X116397Y-61954D01*
X116370Y-61981D01*
X116309Y-61921D01*
X116058Y-61817D01*
X115787Y-61816D01*
X115668Y-61865D01*
X115535Y-61920D01*
X115474Y-61981D01*
X115447Y-61954D01*
X115562Y-61903D01*
X115668Y-61627D01*
X115660Y-61332D01*
X115562Y-61096D01*
X115447Y-61045D01*
X115376Y-61116D01*
X115376Y-60975D01*
X115325Y-60859D01*
X115050Y-60754D01*
X114754Y-60762D01*
X114519Y-60859D01*
X114468Y-60975D01*
X114922Y-61429D01*
X115376Y-60975D01*
X115376Y-61116D01*
X114993Y-61500D01*
X114998Y-61505D01*
X114927Y-61576D01*
X114922Y-61570D01*
X114851Y-61641D01*
X114851Y-61500D01*
X114397Y-61045D01*
X114282Y-61096D01*
X114176Y-61372D01*
X114184Y-61667D01*
X114282Y-61903D01*
X114397Y-61954D01*
X114851Y-61500D01*
X114851Y-61641D01*
X114468Y-62024D01*
X114519Y-62140D01*
X114794Y-62245D01*
X115089Y-62237D01*
X115325Y-62140D01*
X115376Y-62024D01*
X115376Y-62024D01*
X115404Y-62052D01*
X115376Y-62079D01*
X115343Y-62112D01*
X115239Y-62363D01*
X115239Y-62635D01*
X115342Y-62886D01*
X115404Y-62947D01*
X115376Y-62975D01*
X115325Y-62859D01*
X115050Y-62754D01*
X114754Y-62762D01*
X114519Y-62859D01*
X114468Y-62975D01*
X114922Y-63429D01*
X114927Y-63423D01*
X114998Y-63494D01*
X114993Y-63500D01*
X115447Y-63954D01*
X115562Y-63903D01*
X115668Y-63627D01*
X115660Y-63332D01*
X115562Y-63096D01*
X115447Y-63045D01*
X115474Y-63018D01*
X115534Y-63078D01*
X115785Y-63182D01*
X116057Y-63183D01*
X116308Y-63079D01*
X116370Y-63018D01*
X116397Y-63045D01*
X116282Y-63096D01*
X116176Y-63372D01*
X116184Y-63667D01*
X116282Y-63903D01*
X116397Y-63954D01*
X116851Y-63500D01*
X116846Y-63494D01*
X116916Y-63423D01*
X116922Y-63429D01*
X117376Y-62975D01*
X117376Y-63116D01*
X116993Y-63500D01*
X117447Y-63954D01*
X117562Y-63903D01*
X117668Y-63627D01*
X117668Y-77404D01*
X117376Y-77403D01*
X117376Y-64024D01*
X116922Y-63570D01*
X116851Y-63641D01*
X116468Y-64024D01*
X116519Y-64140D01*
X116794Y-64245D01*
X117089Y-64237D01*
X117325Y-64140D01*
X117376Y-64024D01*
X117376Y-77403D01*
X115668Y-77399D01*
X115376Y-77399D01*
X115376Y-64024D01*
X114922Y-63570D01*
X114851Y-63641D01*
X114851Y-63500D01*
X114397Y-63045D01*
X114282Y-63096D01*
X114176Y-63372D01*
X114184Y-63667D01*
X114282Y-63903D01*
X114397Y-63954D01*
X114851Y-63500D01*
X114851Y-63641D01*
X114468Y-64024D01*
X114519Y-64140D01*
X114794Y-64245D01*
X115089Y-64237D01*
X115325Y-64140D01*
X115376Y-64024D01*
X115376Y-77399D01*
X109725Y-77386D01*
X109725Y-75497D01*
X109565Y-75111D01*
X109270Y-74815D01*
X108884Y-74655D01*
X108467Y-74654D01*
X108081Y-74814D01*
X107785Y-75109D01*
X107625Y-75495D01*
X107624Y-75912D01*
X107784Y-76299D01*
X108079Y-76594D01*
X108465Y-76754D01*
X108882Y-76755D01*
X109269Y-76595D01*
X109564Y-76300D01*
X109724Y-75914D01*
X109725Y-75497D01*
X109725Y-77386D01*
X94790Y-77353D01*
X98769Y-73375D01*
X102440Y-73375D01*
X101810Y-74005D01*
X101381Y-74005D01*
X101321Y-73944D01*
X101164Y-73880D01*
X100995Y-73879D01*
X100839Y-73944D01*
X100719Y-74063D01*
X100655Y-74220D01*
X100654Y-74389D01*
X100719Y-74545D01*
X100838Y-74665D01*
X100995Y-74729D01*
X101164Y-74730D01*
X101320Y-74665D01*
X101381Y-74605D01*
X101935Y-74605D01*
X101935Y-74604D01*
X102049Y-74582D01*
X102049Y-74582D01*
X102147Y-74517D01*
X104674Y-71990D01*
X108780Y-71990D01*
X108780Y-71989D01*
X108894Y-71967D01*
X108894Y-71967D01*
X108992Y-71902D01*
X109864Y-71030D01*
X111300Y-71030D01*
X111345Y-71020D01*
X111392Y-71015D01*
X111402Y-71009D01*
X111414Y-71007D01*
X111453Y-70981D01*
X111494Y-70958D01*
X112769Y-69873D01*
X112776Y-69864D01*
X112787Y-69857D01*
X112813Y-69817D01*
X112842Y-69781D01*
X112845Y-69770D01*
X112852Y-69759D01*
X112861Y-69713D01*
X112873Y-69668D01*
X112872Y-69657D01*
X112875Y-69645D01*
X112875Y-65265D01*
X112872Y-65253D01*
X112874Y-65240D01*
X112860Y-65192D01*
X112852Y-65150D01*
X112845Y-65140D01*
X112842Y-65127D01*
X112830Y-65112D01*
X112830Y-62032D01*
X112670Y-61646D01*
X112375Y-61350D01*
X111989Y-61190D01*
X111572Y-61189D01*
X111186Y-61349D01*
X110890Y-61644D01*
X110730Y-62030D01*
X110729Y-62447D01*
X110889Y-62834D01*
X111184Y-63129D01*
X111570Y-63289D01*
X111987Y-63290D01*
X112374Y-63130D01*
X112669Y-62835D01*
X112829Y-62449D01*
X112830Y-62032D01*
X112830Y-65112D01*
X112810Y-65088D01*
X112787Y-65052D01*
X112777Y-65046D01*
X112769Y-65035D01*
X111384Y-63861D01*
X111343Y-63838D01*
X111304Y-63812D01*
X111292Y-63810D01*
X111281Y-63804D01*
X111235Y-63799D01*
X111190Y-63790D01*
X109040Y-63790D01*
X108925Y-63812D01*
X108827Y-63877D01*
X108440Y-64265D01*
X108355Y-64264D01*
X108199Y-64329D01*
X108079Y-64448D01*
X108015Y-64605D01*
X108014Y-64774D01*
X108079Y-64930D01*
X108198Y-65050D01*
X108355Y-65114D01*
X108524Y-65115D01*
X108680Y-65050D01*
X108800Y-64931D01*
X108864Y-64774D01*
X108865Y-64689D01*
X109164Y-64390D01*
X111079Y-64390D01*
X112275Y-65403D01*
X112275Y-68040D01*
X112164Y-67995D01*
X111995Y-67994D01*
X111839Y-68059D01*
X111785Y-68112D01*
X111765Y-68092D01*
X111470Y-68092D01*
X111470Y-68426D01*
X111532Y-68489D01*
X111627Y-68489D01*
X111654Y-68477D01*
X111654Y-68504D01*
X111719Y-68660D01*
X111737Y-68678D01*
X111452Y-68963D01*
X111452Y-68661D01*
X111414Y-68569D01*
X111344Y-68499D01*
X111311Y-68485D01*
X111370Y-68426D01*
X111370Y-68092D01*
X111362Y-68092D01*
X111362Y-67992D01*
X111370Y-67992D01*
X111370Y-67984D01*
X111470Y-67984D01*
X111470Y-67992D01*
X111765Y-67992D01*
X111827Y-67929D01*
X111827Y-67894D01*
X111827Y-67795D01*
X111789Y-67703D01*
X111776Y-67690D01*
X111800Y-67666D01*
X111864Y-67509D01*
X111865Y-67340D01*
X111800Y-67184D01*
X111681Y-67064D01*
X111524Y-67000D01*
X111355Y-66999D01*
X111199Y-67064D01*
X111079Y-67183D01*
X111015Y-67340D01*
X111014Y-67425D01*
X110845Y-67595D01*
X110777Y-67594D01*
X110462Y-67594D01*
X110371Y-67632D01*
X110300Y-67703D01*
X110262Y-67795D01*
X110262Y-67894D01*
X110262Y-68288D01*
X110300Y-68380D01*
X110370Y-68450D01*
X110462Y-68488D01*
X110562Y-68489D01*
X110770Y-68489D01*
X110746Y-68498D01*
X110675Y-68569D01*
X110637Y-68661D01*
X110637Y-68760D01*
X110637Y-69154D01*
X110675Y-69246D01*
X110678Y-69249D01*
X110673Y-69251D01*
X110602Y-69321D01*
X110564Y-69413D01*
X110564Y-69513D01*
X110564Y-70103D01*
X110602Y-70195D01*
X110672Y-70265D01*
X110764Y-70304D01*
X110864Y-70304D01*
X111337Y-70304D01*
X111189Y-70430D01*
X109794Y-70430D01*
X109917Y-70307D01*
X109917Y-70307D01*
X109982Y-70209D01*
X110004Y-70095D01*
X110005Y-70095D01*
X110005Y-69676D01*
X110065Y-69616D01*
X110129Y-69459D01*
X110130Y-69290D01*
X110065Y-69134D01*
X109946Y-69014D01*
X109789Y-68950D01*
X109620Y-68949D01*
X109464Y-69014D01*
X109344Y-69133D01*
X109280Y-69290D01*
X109279Y-69459D01*
X109344Y-69615D01*
X109405Y-69676D01*
X109405Y-69970D01*
X109165Y-70210D01*
X109165Y-70140D01*
X109100Y-69984D01*
X108981Y-69864D01*
X108824Y-69800D01*
X108655Y-69799D01*
X108499Y-69864D01*
X108453Y-69910D01*
X106934Y-69910D01*
X106712Y-69688D01*
X106795Y-69606D01*
X106859Y-69449D01*
X106860Y-69280D01*
X106795Y-69124D01*
X106765Y-69094D01*
X106765Y-68294D01*
X106909Y-68150D01*
X107549Y-68150D01*
X107500Y-68270D01*
X107499Y-68439D01*
X107564Y-68595D01*
X107683Y-68715D01*
X107840Y-68779D01*
X108009Y-68780D01*
X108165Y-68715D01*
X108206Y-68675D01*
X109138Y-68675D01*
X109198Y-68735D01*
X109355Y-68799D01*
X109524Y-68800D01*
X109680Y-68735D01*
X109800Y-68616D01*
X109864Y-68459D01*
X109865Y-68290D01*
X109800Y-68134D01*
X109681Y-68014D01*
X109524Y-67950D01*
X109355Y-67949D01*
X109199Y-68014D01*
X109138Y-68075D01*
X108416Y-68075D01*
X108474Y-67934D01*
X108475Y-67765D01*
X108410Y-67609D01*
X108291Y-67489D01*
X108134Y-67425D01*
X107965Y-67424D01*
X107809Y-67489D01*
X107748Y-67550D01*
X106785Y-67550D01*
X106670Y-67572D01*
X106572Y-67637D01*
X106252Y-67957D01*
X106245Y-67969D01*
X106245Y-67054D01*
X106444Y-66855D01*
X106444Y-66855D01*
X106444Y-66855D01*
X106515Y-66902D01*
X106629Y-66924D01*
X106630Y-66925D01*
X108499Y-66925D01*
X108499Y-66969D01*
X108564Y-67125D01*
X108683Y-67245D01*
X108840Y-67309D01*
X109009Y-67310D01*
X109165Y-67245D01*
X109285Y-67126D01*
X109349Y-66969D01*
X109350Y-66800D01*
X109285Y-66644D01*
X109166Y-66524D01*
X109009Y-66460D01*
X108924Y-66459D01*
X108877Y-66412D01*
X108779Y-66347D01*
X108665Y-66325D01*
X106851Y-66325D01*
X106795Y-66189D01*
X106676Y-66069D01*
X106519Y-66005D01*
X106350Y-66004D01*
X106194Y-66069D01*
X106074Y-66188D01*
X106010Y-66345D01*
X106009Y-66440D01*
X105732Y-66717D01*
X105667Y-66815D01*
X105645Y-66930D01*
X105645Y-69345D01*
X105667Y-69459D01*
X105726Y-69547D01*
X105709Y-69554D01*
X105589Y-69673D01*
X105525Y-69830D01*
X105524Y-69915D01*
X104980Y-70460D01*
X104980Y-66790D01*
X104980Y-66002D01*
X104942Y-65910D01*
X104871Y-65840D01*
X104779Y-65802D01*
X104690Y-65802D01*
X104690Y-60747D01*
X104690Y-60593D01*
X104628Y-60531D01*
X104215Y-60531D01*
X104215Y-60885D01*
X104277Y-60948D01*
X104391Y-60948D01*
X104490Y-60947D01*
X104582Y-60909D01*
X104652Y-60839D01*
X104690Y-60747D01*
X104690Y-65802D01*
X104680Y-65802D01*
X104675Y-65802D01*
X104612Y-65864D01*
X104612Y-66346D01*
X104917Y-66346D01*
X104979Y-66284D01*
X104980Y-66002D01*
X104980Y-66790D01*
X104979Y-66509D01*
X104917Y-66446D01*
X104612Y-66446D01*
X104612Y-66928D01*
X104675Y-66991D01*
X104680Y-66991D01*
X104779Y-66991D01*
X104871Y-66953D01*
X104942Y-66882D01*
X104980Y-66790D01*
X104980Y-70460D01*
X104790Y-70650D01*
X104512Y-70650D01*
X104512Y-66928D01*
X104512Y-66446D01*
X104512Y-66346D01*
X104512Y-65864D01*
X104450Y-65802D01*
X104444Y-65802D01*
X104345Y-65802D01*
X104253Y-65840D01*
X104183Y-65910D01*
X104145Y-66002D01*
X104145Y-66284D01*
X104207Y-66346D01*
X104512Y-66346D01*
X104512Y-66446D01*
X104207Y-66446D01*
X104145Y-66509D01*
X104145Y-66790D01*
X104183Y-66882D01*
X104253Y-66953D01*
X104345Y-66991D01*
X104444Y-66991D01*
X104450Y-66991D01*
X104512Y-66928D01*
X104512Y-70650D01*
X104115Y-70650D01*
X104115Y-60885D01*
X104115Y-60531D01*
X103701Y-60531D01*
X103639Y-60593D01*
X103639Y-60747D01*
X103677Y-60839D01*
X103747Y-60909D01*
X103839Y-60947D01*
X103938Y-60948D01*
X104052Y-60948D01*
X104115Y-60885D01*
X104115Y-70650D01*
X102104Y-70650D01*
X102105Y-70515D01*
X102057Y-70400D01*
X102610Y-70400D01*
X102610Y-70399D01*
X102724Y-70377D01*
X102724Y-70377D01*
X102822Y-70312D01*
X103312Y-69822D01*
X103312Y-69822D01*
X103377Y-69724D01*
X103380Y-69710D01*
X103424Y-69710D01*
X103516Y-69672D01*
X103586Y-69601D01*
X103624Y-69509D01*
X103625Y-69410D01*
X103625Y-69060D01*
X103587Y-68968D01*
X103528Y-68909D01*
X103586Y-68851D01*
X103624Y-68759D01*
X103625Y-68660D01*
X103625Y-68310D01*
X103587Y-68218D01*
X103516Y-68148D01*
X103424Y-68110D01*
X103400Y-68110D01*
X103400Y-67916D01*
X103452Y-67916D01*
X103838Y-67916D01*
X103930Y-67878D01*
X104000Y-67808D01*
X104038Y-67716D01*
X104039Y-67617D01*
X104039Y-67026D01*
X104001Y-66934D01*
X103930Y-66864D01*
X103896Y-66849D01*
X103896Y-66454D01*
X103950Y-66401D01*
X104014Y-66244D01*
X104015Y-66075D01*
X103950Y-65919D01*
X103831Y-65799D01*
X103674Y-65735D01*
X103505Y-65734D01*
X103349Y-65799D01*
X103229Y-65918D01*
X103165Y-66075D01*
X103164Y-66244D01*
X103229Y-66400D01*
X103296Y-66467D01*
X103296Y-66825D01*
X103239Y-66825D01*
X102853Y-66825D01*
X102846Y-66829D01*
X102838Y-66826D01*
X102739Y-66825D01*
X102353Y-66825D01*
X102346Y-66829D01*
X102338Y-66826D01*
X102239Y-66825D01*
X102208Y-66825D01*
X102146Y-66888D01*
X102146Y-67321D01*
X102153Y-67321D01*
X102153Y-67421D01*
X102146Y-67421D01*
X102146Y-67429D01*
X102046Y-67429D01*
X102046Y-67421D01*
X102039Y-67421D01*
X102039Y-67321D01*
X102046Y-67321D01*
X102046Y-66888D01*
X101983Y-66825D01*
X101952Y-66825D01*
X101853Y-66826D01*
X101846Y-66828D01*
X101838Y-66826D01*
X101739Y-66825D01*
X101353Y-66825D01*
X101346Y-66829D01*
X101338Y-66826D01*
X101239Y-66825D01*
X100853Y-66825D01*
X100761Y-66863D01*
X100691Y-66934D01*
X100653Y-67026D01*
X100653Y-67125D01*
X100653Y-67177D01*
X100574Y-67145D01*
X100405Y-67144D01*
X100285Y-67194D01*
X100271Y-67179D01*
X100114Y-67115D01*
X99945Y-67114D01*
X99789Y-67179D01*
X99787Y-67181D01*
X99674Y-67135D01*
X99505Y-67134D01*
X99349Y-67199D01*
X99229Y-67318D01*
X99165Y-67475D01*
X99164Y-67644D01*
X99229Y-67800D01*
X99290Y-67861D01*
X99290Y-69260D01*
X99312Y-69374D01*
X99377Y-69472D01*
X100170Y-70264D01*
X100093Y-70296D01*
X100022Y-70366D01*
X99984Y-70458D01*
X99984Y-70558D01*
X99984Y-71148D01*
X100022Y-71240D01*
X100092Y-71310D01*
X100184Y-71349D01*
X100284Y-71349D01*
X100874Y-71349D01*
X100966Y-71311D01*
X101037Y-71240D01*
X101075Y-71149D01*
X101075Y-71060D01*
X101120Y-71060D01*
X101365Y-71060D01*
X100982Y-71442D01*
X100982Y-71442D01*
X99870Y-72555D01*
X99035Y-72555D01*
X99035Y-61097D01*
X99035Y-60624D01*
X98997Y-60532D01*
X98926Y-60462D01*
X98835Y-60424D01*
X98735Y-60424D01*
X97760Y-60424D01*
X97760Y-60392D01*
X97697Y-60330D01*
X97385Y-60330D01*
X97385Y-60742D01*
X97447Y-60805D01*
X97550Y-60805D01*
X97550Y-61014D01*
X97337Y-61014D01*
X97246Y-61052D01*
X97175Y-61123D01*
X97137Y-61215D01*
X97137Y-61314D01*
X97137Y-61786D01*
X97175Y-61878D01*
X97245Y-61949D01*
X97337Y-61987D01*
X97436Y-61987D01*
X98303Y-61987D01*
X98395Y-61949D01*
X98465Y-61879D01*
X98503Y-61787D01*
X98503Y-61687D01*
X98503Y-61396D01*
X98834Y-61396D01*
X98926Y-61358D01*
X98996Y-61288D01*
X99035Y-61196D01*
X99035Y-61097D01*
X99035Y-72555D01*
X98602Y-72555D01*
X98602Y-67125D01*
X98602Y-66794D01*
X98539Y-66732D01*
X98155Y-66732D01*
X98155Y-67263D01*
X98218Y-67325D01*
X98302Y-67326D01*
X98401Y-67325D01*
X98493Y-67287D01*
X98564Y-67217D01*
X98602Y-67125D01*
X98602Y-72555D01*
X98355Y-72555D01*
X98240Y-72577D01*
X98142Y-72642D01*
X98055Y-72729D01*
X98055Y-67263D01*
X98055Y-66732D01*
X97672Y-66732D01*
X97609Y-66794D01*
X97609Y-67125D01*
X97647Y-67217D01*
X97718Y-67287D01*
X97809Y-67325D01*
X97909Y-67326D01*
X97993Y-67325D01*
X98055Y-67263D01*
X98055Y-72729D01*
X96735Y-74050D01*
X96735Y-70757D01*
X96575Y-70371D01*
X96280Y-70075D01*
X95894Y-69915D01*
X95477Y-69914D01*
X95091Y-70074D01*
X94795Y-70369D01*
X94635Y-70755D01*
X94634Y-71172D01*
X94794Y-71559D01*
X95089Y-71854D01*
X95475Y-72014D01*
X95892Y-72015D01*
X96279Y-71855D01*
X96574Y-71560D01*
X96734Y-71174D01*
X96735Y-70757D01*
X96735Y-74050D01*
X93730Y-77055D01*
X90359Y-77055D01*
X90887Y-76527D01*
X90887Y-76527D01*
X90952Y-76429D01*
X90974Y-76315D01*
X90975Y-76315D01*
X90975Y-75990D01*
X90975Y-75256D01*
X90976Y-75255D01*
X91330Y-75255D01*
X92140Y-76064D01*
X92139Y-76149D01*
X92204Y-76305D01*
X92323Y-76425D01*
X92480Y-76489D01*
X92649Y-76490D01*
X92805Y-76425D01*
X92925Y-76306D01*
X92989Y-76149D01*
X92990Y-75980D01*
X92925Y-75824D01*
X92806Y-75704D01*
X92649Y-75640D01*
X92564Y-75639D01*
X91667Y-74742D01*
X91569Y-74677D01*
X91455Y-74655D01*
X90976Y-74655D01*
X90916Y-74594D01*
X90759Y-74530D01*
X90590Y-74529D01*
X90434Y-74594D01*
X90314Y-74713D01*
X90250Y-74870D01*
X90249Y-75039D01*
X90314Y-75195D01*
X90375Y-75256D01*
X90375Y-75990D01*
X90375Y-76190D01*
X89835Y-76730D01*
X88936Y-76730D01*
X88876Y-76669D01*
X88719Y-76605D01*
X88550Y-76604D01*
X88394Y-76669D01*
X88333Y-76730D01*
X88146Y-76730D01*
X88204Y-76589D01*
X88205Y-76420D01*
X88140Y-76264D01*
X88105Y-76230D01*
X88700Y-76230D01*
X88700Y-76229D01*
X88814Y-76207D01*
X88814Y-76207D01*
X88912Y-76142D01*
X89202Y-75852D01*
X89202Y-75852D01*
X89202Y-75852D01*
X89814Y-75239D01*
X89899Y-75240D01*
X90055Y-75175D01*
X90175Y-75056D01*
X90239Y-74899D01*
X90240Y-74730D01*
X90175Y-74574D01*
X90056Y-74454D01*
X89899Y-74390D01*
X89730Y-74389D01*
X89574Y-74454D01*
X89454Y-74573D01*
X89390Y-74730D01*
X89389Y-74815D01*
X89349Y-74856D01*
X89347Y-74845D01*
X89282Y-74747D01*
X89282Y-74747D01*
X88992Y-74457D01*
X88894Y-74392D01*
X88793Y-74372D01*
X88730Y-74219D01*
X88611Y-74099D01*
X88454Y-74035D01*
X88285Y-74034D01*
X88129Y-74099D01*
X88009Y-74218D01*
X87990Y-74266D01*
X87990Y-74260D01*
X87925Y-74104D01*
X87806Y-73984D01*
X87679Y-73932D01*
X87729Y-73809D01*
X87730Y-73640D01*
X87665Y-73484D01*
X87546Y-73364D01*
X87389Y-73300D01*
X87295Y-73299D01*
X87295Y-73290D01*
X87445Y-73290D01*
X87452Y-73297D01*
X87452Y-73297D01*
X87550Y-73362D01*
X87664Y-73384D01*
X87665Y-73385D01*
X89580Y-73385D01*
X89605Y-73385D01*
X89742Y-73522D01*
X89840Y-73587D01*
X89955Y-73610D01*
X91310Y-73610D01*
X91310Y-73609D01*
X91424Y-73587D01*
X91424Y-73587D01*
X91522Y-73522D01*
X91679Y-73365D01*
X91724Y-73365D01*
X91775Y-73344D01*
X91774Y-73434D01*
X91839Y-73590D01*
X91958Y-73710D01*
X92115Y-73774D01*
X92284Y-73775D01*
X92440Y-73710D01*
X92501Y-73650D01*
X92678Y-73650D01*
X92748Y-73720D01*
X92905Y-73784D01*
X93074Y-73785D01*
X93230Y-73720D01*
X93350Y-73601D01*
X93414Y-73444D01*
X93415Y-73275D01*
X93350Y-73119D01*
X93231Y-72999D01*
X93074Y-72935D01*
X92905Y-72934D01*
X92749Y-72999D01*
X92698Y-73050D01*
X92501Y-73050D01*
X92441Y-72989D01*
X92296Y-72930D01*
X92670Y-72930D01*
X92670Y-72929D01*
X92784Y-72907D01*
X92784Y-72907D01*
X92882Y-72842D01*
X93627Y-72097D01*
X93627Y-72097D01*
X93692Y-71999D01*
X93714Y-71885D01*
X93715Y-71885D01*
X93715Y-71126D01*
X93775Y-71066D01*
X93839Y-70909D01*
X93839Y-70894D01*
X95022Y-69712D01*
X95022Y-69712D01*
X95087Y-69614D01*
X95109Y-69500D01*
X95110Y-69500D01*
X95110Y-69085D01*
X95087Y-68970D01*
X95022Y-68872D01*
X95022Y-68872D01*
X95010Y-68860D01*
X95010Y-68850D01*
X95010Y-68840D01*
X95010Y-65751D01*
X95070Y-65691D01*
X95134Y-65534D01*
X95135Y-65419D01*
X95192Y-65362D01*
X95192Y-65362D01*
X95257Y-65264D01*
X95275Y-65170D01*
X95897Y-65792D01*
X95897Y-65792D01*
X95995Y-65857D01*
X96109Y-65879D01*
X96109Y-65879D01*
X96559Y-65879D01*
X96499Y-65938D01*
X96435Y-66095D01*
X96434Y-66264D01*
X96499Y-66420D01*
X96618Y-66540D01*
X96775Y-66604D01*
X96944Y-66605D01*
X97100Y-66540D01*
X97220Y-66421D01*
X97257Y-66330D01*
X97609Y-66330D01*
X97609Y-66569D01*
X97672Y-66632D01*
X98055Y-66632D01*
X98055Y-66624D01*
X98155Y-66624D01*
X98155Y-66632D01*
X98539Y-66632D01*
X98602Y-66569D01*
X98602Y-66239D01*
X98595Y-66223D01*
X98762Y-66057D01*
X98762Y-66057D01*
X98827Y-65959D01*
X98849Y-65845D01*
X98850Y-65845D01*
X98850Y-64120D01*
X98849Y-64119D01*
X98827Y-64005D01*
X98762Y-63907D01*
X98762Y-63907D01*
X98489Y-63635D01*
X98392Y-63570D01*
X98346Y-63561D01*
X98346Y-63522D01*
X98346Y-63207D01*
X98342Y-63198D01*
X98346Y-63188D01*
X98346Y-63089D01*
X98346Y-62774D01*
X98342Y-62765D01*
X98346Y-62755D01*
X98346Y-62656D01*
X98346Y-62341D01*
X98308Y-62249D01*
X98237Y-62179D01*
X98146Y-62140D01*
X98046Y-62140D01*
X97416Y-62140D01*
X97324Y-62178D01*
X97287Y-62216D01*
X97259Y-62188D01*
X97103Y-62123D01*
X96934Y-62123D01*
X96850Y-62158D01*
X96850Y-61690D01*
X96850Y-61220D01*
X96899Y-61220D01*
X97055Y-61155D01*
X97175Y-61036D01*
X97239Y-60879D01*
X97240Y-60787D01*
X97285Y-60742D01*
X97285Y-60330D01*
X97277Y-60330D01*
X97277Y-60230D01*
X97285Y-60230D01*
X97285Y-60222D01*
X97385Y-60222D01*
X97385Y-60230D01*
X97697Y-60230D01*
X97760Y-60167D01*
X97760Y-60060D01*
X103740Y-60060D01*
X103677Y-60123D01*
X103639Y-60215D01*
X103639Y-60368D01*
X103701Y-60431D01*
X104115Y-60431D01*
X104115Y-60423D01*
X104215Y-60423D01*
X104215Y-60431D01*
X104628Y-60431D01*
X104690Y-60368D01*
X104690Y-60215D01*
X104652Y-60123D01*
X104589Y-60060D01*
X105130Y-60060D01*
X105565Y-60494D01*
X105565Y-62595D01*
X105587Y-62709D01*
X105652Y-62807D01*
X106330Y-63484D01*
X106330Y-64110D01*
X106352Y-64224D01*
X106417Y-64322D01*
X108057Y-65962D01*
X108155Y-66027D01*
X108155Y-66027D01*
X108270Y-66050D01*
X108875Y-66050D01*
X109207Y-66382D01*
X109305Y-66447D01*
X109305Y-66447D01*
X109420Y-66470D01*
X109428Y-66470D01*
X109488Y-66530D01*
X109645Y-66594D01*
X109814Y-66595D01*
X109970Y-66530D01*
X110090Y-66411D01*
X110154Y-66254D01*
X110155Y-66085D01*
X110090Y-65929D01*
X109971Y-65809D01*
X109814Y-65745D01*
X109645Y-65744D01*
X109489Y-65809D01*
X109486Y-65812D01*
X109212Y-65537D01*
X109114Y-65472D01*
X109000Y-65450D01*
X108394Y-65450D01*
X106930Y-63985D01*
X106930Y-63360D01*
X106907Y-63245D01*
X106842Y-63147D01*
X106842Y-63147D01*
X106165Y-62470D01*
X106165Y-60370D01*
X106142Y-60255D01*
X106077Y-60157D01*
X106077Y-60157D01*
X105795Y-59876D01*
X117969Y-59914D01*
X117969Y-59914D01*
G37*
G54D32*
X117969Y-59914D02*
X117955Y-77404D01*
X117668Y-77404D01*
X117668Y-63627D01*
X117668Y-61627D01*
X117660Y-61332D01*
X117562Y-61096D01*
X117447Y-61045D01*
X117376Y-61116D01*
X117376Y-60975D01*
X117325Y-60859D01*
X117050Y-60754D01*
X116754Y-60762D01*
X116519Y-60859D01*
X116468Y-60975D01*
X116922Y-61429D01*
X117376Y-60975D01*
X117376Y-61116D01*
X116993Y-61500D01*
X117447Y-61954D01*
X117562Y-61903D01*
X117668Y-61627D01*
X117668Y-63627D01*
X117660Y-63332D01*
X117562Y-63096D01*
X117447Y-63045D01*
X117376Y-63116D01*
X117376Y-62975D01*
X117325Y-62859D01*
X117050Y-62754D01*
X116754Y-62762D01*
X116605Y-62823D01*
X116519Y-62859D01*
X116468Y-62975D01*
X116440Y-62947D01*
X116501Y-62887D01*
X116605Y-62636D01*
X116605Y-62364D01*
X116501Y-62113D01*
X116440Y-62052D01*
X116468Y-62024D01*
X116519Y-62140D01*
X116794Y-62245D01*
X117089Y-62237D01*
X117325Y-62140D01*
X117376Y-62024D01*
X116922Y-61570D01*
X116916Y-61576D01*
X116851Y-61511D01*
X116846Y-61505D01*
X116851Y-61500D01*
X116397Y-61045D01*
X116282Y-61096D01*
X116176Y-61372D01*
X116184Y-61667D01*
X116282Y-61903D01*
X116397Y-61954D01*
X116370Y-61981D01*
X116309Y-61921D01*
X116058Y-61817D01*
X115787Y-61816D01*
X115668Y-61865D01*
X115535Y-61920D01*
X115474Y-61981D01*
X115447Y-61954D01*
X115562Y-61903D01*
X115668Y-61627D01*
X115660Y-61332D01*
X115562Y-61096D01*
X115447Y-61045D01*
X115376Y-61116D01*
X115376Y-60975D01*
X115325Y-60859D01*
X115050Y-60754D01*
X114754Y-60762D01*
X114519Y-60859D01*
X114468Y-60975D01*
X114922Y-61429D01*
X115376Y-60975D01*
X115376Y-61116D01*
X114993Y-61500D01*
X114998Y-61505D01*
X114927Y-61576D01*
X114922Y-61570D01*
X114851Y-61641D01*
X114851Y-61500D01*
X114397Y-61045D01*
X114282Y-61096D01*
X114176Y-61372D01*
X114184Y-61667D01*
X114282Y-61903D01*
X114397Y-61954D01*
X114851Y-61500D01*
X114851Y-61641D01*
X114468Y-62024D01*
X114519Y-62140D01*
X114794Y-62245D01*
X115089Y-62237D01*
X115325Y-62140D01*
X115376Y-62024D01*
X115376Y-62024D01*
X115404Y-62052D01*
X115376Y-62079D01*
X115343Y-62112D01*
X115239Y-62363D01*
X115239Y-62635D01*
X115342Y-62886D01*
X115404Y-62947D01*
X115376Y-62975D01*
X115325Y-62859D01*
X115050Y-62754D01*
X114754Y-62762D01*
X114519Y-62859D01*
X114468Y-62975D01*
X114922Y-63429D01*
X114927Y-63423D01*
X114998Y-63494D01*
X114993Y-63500D01*
X115447Y-63954D01*
X115562Y-63903D01*
X115668Y-63627D01*
X115660Y-63332D01*
X115562Y-63096D01*
X115447Y-63045D01*
X115474Y-63018D01*
X115534Y-63078D01*
X115785Y-63182D01*
X116057Y-63183D01*
X116308Y-63079D01*
X116370Y-63018D01*
X116397Y-63045D01*
X116282Y-63096D01*
X116176Y-63372D01*
X116184Y-63667D01*
X116282Y-63903D01*
X116397Y-63954D01*
X116851Y-63500D01*
X116846Y-63494D01*
X116916Y-63423D01*
X116922Y-63429D01*
X117376Y-62975D01*
X117376Y-63116D01*
X116993Y-63500D01*
X117447Y-63954D01*
X117562Y-63903D01*
X117668Y-63627D01*
X117668Y-77404D01*
X117376Y-77403D01*
X117376Y-64024D01*
X116922Y-63570D01*
X116851Y-63641D01*
X116468Y-64024D01*
X116519Y-64140D01*
X116794Y-64245D01*
X117089Y-64237D01*
X117325Y-64140D01*
X117376Y-64024D01*
X117376Y-77403D01*
X115668Y-77399D01*
X115376Y-77399D01*
X115376Y-64024D01*
X114922Y-63570D01*
X114851Y-63641D01*
X114851Y-63500D01*
X114397Y-63045D01*
X114282Y-63096D01*
X114176Y-63372D01*
X114184Y-63667D01*
X114282Y-63903D01*
X114397Y-63954D01*
X114851Y-63500D01*
X114851Y-63641D01*
X114468Y-64024D01*
X114519Y-64140D01*
X114794Y-64245D01*
X115089Y-64237D01*
X115325Y-64140D01*
X115376Y-64024D01*
X115376Y-77399D01*
X109725Y-77386D01*
X109725Y-75497D01*
X109565Y-75111D01*
X109270Y-74815D01*
X108884Y-74655D01*
X108467Y-74654D01*
X108081Y-74814D01*
X107785Y-75109D01*
X107625Y-75495D01*
X107624Y-75912D01*
X107784Y-76299D01*
X108079Y-76594D01*
X108465Y-76754D01*
X108882Y-76755D01*
X109269Y-76595D01*
X109564Y-76300D01*
X109724Y-75914D01*
X109725Y-75497D01*
X109725Y-77386D01*
X94790Y-77353D01*
X98769Y-73375D01*
X102440Y-73375D01*
X101810Y-74005D01*
X101381Y-74005D01*
X101321Y-73944D01*
X101164Y-73880D01*
X100995Y-73879D01*
X100839Y-73944D01*
X100719Y-74063D01*
X100655Y-74220D01*
X100654Y-74389D01*
X100719Y-74545D01*
X100838Y-74665D01*
X100995Y-74729D01*
X101164Y-74730D01*
X101320Y-74665D01*
X101381Y-74605D01*
X101935Y-74605D01*
X101935Y-74604D01*
X102049Y-74582D01*
X102049Y-74582D01*
X102147Y-74517D01*
X104674Y-71990D01*
X108780Y-71990D01*
X108780Y-71989D01*
X108894Y-71967D01*
X108894Y-71967D01*
X108992Y-71902D01*
X109864Y-71030D01*
X111300Y-71030D01*
X111345Y-71020D01*
X111392Y-71015D01*
X111402Y-71009D01*
X111414Y-71007D01*
X111453Y-70981D01*
X111494Y-70958D01*
X112769Y-69873D01*
X112776Y-69864D01*
X112787Y-69857D01*
X112813Y-69817D01*
X112842Y-69781D01*
X112845Y-69770D01*
X112852Y-69759D01*
X112861Y-69713D01*
X112873Y-69668D01*
X112872Y-69657D01*
X112875Y-69645D01*
X112875Y-65265D01*
X112872Y-65253D01*
X112874Y-65240D01*
X112860Y-65192D01*
X112852Y-65150D01*
X112845Y-65140D01*
X112842Y-65127D01*
X112830Y-65112D01*
X112830Y-62032D01*
X112670Y-61646D01*
X112375Y-61350D01*
X111989Y-61190D01*
X111572Y-61189D01*
X111186Y-61349D01*
X110890Y-61644D01*
X110730Y-62030D01*
X110729Y-62447D01*
X110889Y-62834D01*
X111184Y-63129D01*
X111570Y-63289D01*
X111987Y-63290D01*
X112374Y-63130D01*
X112669Y-62835D01*
X112829Y-62449D01*
X112830Y-62032D01*
X112830Y-65112D01*
X112810Y-65088D01*
X112787Y-65052D01*
X112777Y-65046D01*
X112769Y-65035D01*
X111384Y-63861D01*
X111343Y-63838D01*
X111304Y-63812D01*
X111292Y-63810D01*
X111281Y-63804D01*
X111235Y-63799D01*
X111190Y-63790D01*
X109040Y-63790D01*
X108925Y-63812D01*
X108827Y-63877D01*
X108440Y-64265D01*
X108355Y-64264D01*
X108199Y-64329D01*
X108079Y-64448D01*
X108015Y-64605D01*
X108014Y-64774D01*
X108079Y-64930D01*
X108198Y-65050D01*
X108355Y-65114D01*
X108524Y-65115D01*
X108680Y-65050D01*
X108800Y-64931D01*
X108864Y-64774D01*
X108865Y-64689D01*
X109164Y-64390D01*
X111079Y-64390D01*
X112275Y-65403D01*
X112275Y-68040D01*
X112164Y-67995D01*
X111995Y-67994D01*
X111839Y-68059D01*
X111785Y-68112D01*
X111765Y-68092D01*
X111470Y-68092D01*
X111470Y-68426D01*
X111532Y-68489D01*
X111627Y-68489D01*
X111654Y-68477D01*
X111654Y-68504D01*
X111719Y-68660D01*
X111737Y-68678D01*
X111452Y-68963D01*
X111452Y-68661D01*
X111414Y-68569D01*
X111344Y-68499D01*
X111311Y-68485D01*
X111370Y-68426D01*
X111370Y-68092D01*
X111362Y-68092D01*
X111362Y-67992D01*
X111370Y-67992D01*
X111370Y-67984D01*
X111470Y-67984D01*
X111470Y-67992D01*
X111765Y-67992D01*
X111827Y-67929D01*
X111827Y-67894D01*
X111827Y-67795D01*
X111789Y-67703D01*
X111776Y-67690D01*
X111800Y-67666D01*
X111864Y-67509D01*
X111865Y-67340D01*
X111800Y-67184D01*
X111681Y-67064D01*
X111524Y-67000D01*
X111355Y-66999D01*
X111199Y-67064D01*
X111079Y-67183D01*
X111015Y-67340D01*
X111014Y-67425D01*
X110845Y-67595D01*
X110777Y-67594D01*
X110462Y-67594D01*
X110371Y-67632D01*
X110300Y-67703D01*
X110262Y-67795D01*
X110262Y-67894D01*
X110262Y-68288D01*
X110300Y-68380D01*
X110370Y-68450D01*
X110462Y-68488D01*
X110562Y-68489D01*
X110770Y-68489D01*
X110746Y-68498D01*
X110675Y-68569D01*
X110637Y-68661D01*
X110637Y-68760D01*
X110637Y-69154D01*
X110675Y-69246D01*
X110678Y-69249D01*
X110673Y-69251D01*
X110602Y-69321D01*
X110564Y-69413D01*
X110564Y-69513D01*
X110564Y-70103D01*
X110602Y-70195D01*
X110672Y-70265D01*
X110764Y-70304D01*
X110864Y-70304D01*
X111337Y-70304D01*
X111189Y-70430D01*
X109794Y-70430D01*
X109917Y-70307D01*
X109917Y-70307D01*
X109982Y-70209D01*
X110004Y-70095D01*
X110005Y-70095D01*
X110005Y-69676D01*
X110065Y-69616D01*
X110129Y-69459D01*
X110130Y-69290D01*
X110065Y-69134D01*
X109946Y-69014D01*
X109789Y-68950D01*
X109620Y-68949D01*
X109464Y-69014D01*
X109344Y-69133D01*
X109280Y-69290D01*
X109279Y-69459D01*
X109344Y-69615D01*
X109405Y-69676D01*
X109405Y-69970D01*
X109165Y-70210D01*
X109165Y-70140D01*
X109100Y-69984D01*
X108981Y-69864D01*
X108824Y-69800D01*
X108655Y-69799D01*
X108499Y-69864D01*
X108453Y-69910D01*
X106934Y-69910D01*
X106712Y-69688D01*
X106795Y-69606D01*
X106859Y-69449D01*
X106860Y-69280D01*
X106795Y-69124D01*
X106765Y-69094D01*
X106765Y-68294D01*
X106909Y-68150D01*
X107549Y-68150D01*
X107500Y-68270D01*
X107499Y-68439D01*
X107564Y-68595D01*
X107683Y-68715D01*
X107840Y-68779D01*
X108009Y-68780D01*
X108165Y-68715D01*
X108206Y-68675D01*
X109138Y-68675D01*
X109198Y-68735D01*
X109355Y-68799D01*
X109524Y-68800D01*
X109680Y-68735D01*
X109800Y-68616D01*
X109864Y-68459D01*
X109865Y-68290D01*
X109800Y-68134D01*
X109681Y-68014D01*
X109524Y-67950D01*
X109355Y-67949D01*
X109199Y-68014D01*
X109138Y-68075D01*
X108416Y-68075D01*
X108474Y-67934D01*
X108475Y-67765D01*
X108410Y-67609D01*
X108291Y-67489D01*
X108134Y-67425D01*
X107965Y-67424D01*
X107809Y-67489D01*
X107748Y-67550D01*
X106785Y-67550D01*
X106670Y-67572D01*
X106572Y-67637D01*
X106252Y-67957D01*
X106245Y-67969D01*
X106245Y-67054D01*
X106444Y-66855D01*
X106444Y-66855D01*
X106444Y-66855D01*
X106515Y-66902D01*
X106629Y-66924D01*
X106630Y-66925D01*
X108499Y-66925D01*
X108499Y-66969D01*
X108564Y-67125D01*
X108683Y-67245D01*
X108840Y-67309D01*
X109009Y-67310D01*
X109165Y-67245D01*
X109285Y-67126D01*
X109349Y-66969D01*
X109350Y-66800D01*
X109285Y-66644D01*
X109166Y-66524D01*
X109009Y-66460D01*
X108924Y-66459D01*
X108877Y-66412D01*
X108779Y-66347D01*
X108665Y-66325D01*
X106851Y-66325D01*
X106795Y-66189D01*
X106676Y-66069D01*
X106519Y-66005D01*
X106350Y-66004D01*
X106194Y-66069D01*
X106074Y-66188D01*
X106010Y-66345D01*
X106009Y-66440D01*
X105732Y-66717D01*
X105667Y-66815D01*
X105645Y-66930D01*
X105645Y-69345D01*
X105667Y-69459D01*
X105726Y-69547D01*
X105709Y-69554D01*
X105589Y-69673D01*
X105525Y-69830D01*
X105524Y-69915D01*
X104980Y-70460D01*
X104980Y-66790D01*
X104980Y-66002D01*
X104942Y-65910D01*
X104871Y-65840D01*
X104779Y-65802D01*
X104690Y-65802D01*
X104690Y-60747D01*
X104690Y-60593D01*
X104628Y-60531D01*
X104215Y-60531D01*
X104215Y-60885D01*
X104277Y-60948D01*
X104391Y-60948D01*
X104490Y-60947D01*
X104582Y-60909D01*
X104652Y-60839D01*
X104690Y-60747D01*
X104690Y-65802D01*
X104680Y-65802D01*
X104675Y-65802D01*
X104612Y-65864D01*
X104612Y-66346D01*
X104917Y-66346D01*
X104979Y-66284D01*
X104980Y-66002D01*
X104980Y-66790D01*
X104979Y-66509D01*
X104917Y-66446D01*
X104612Y-66446D01*
X104612Y-66928D01*
X104675Y-66991D01*
X104680Y-66991D01*
X104779Y-66991D01*
X104871Y-66953D01*
X104942Y-66882D01*
X104980Y-66790D01*
X104980Y-70460D01*
X104790Y-70650D01*
X104512Y-70650D01*
X104512Y-66928D01*
X104512Y-66446D01*
X104512Y-66346D01*
X104512Y-65864D01*
X104450Y-65802D01*
X104444Y-65802D01*
X104345Y-65802D01*
X104253Y-65840D01*
X104183Y-65910D01*
X104145Y-66002D01*
X104145Y-66284D01*
X104207Y-66346D01*
X104512Y-66346D01*
X104512Y-66446D01*
X104207Y-66446D01*
X104145Y-66509D01*
X104145Y-66790D01*
X104183Y-66882D01*
X104253Y-66953D01*
X104345Y-66991D01*
X104444Y-66991D01*
X104450Y-66991D01*
X104512Y-66928D01*
X104512Y-70650D01*
X104115Y-70650D01*
X104115Y-60885D01*
X104115Y-60531D01*
X103701Y-60531D01*
X103639Y-60593D01*
X103639Y-60747D01*
X103677Y-60839D01*
X103747Y-60909D01*
X103839Y-60947D01*
X103938Y-60948D01*
X104052Y-60948D01*
X104115Y-60885D01*
X104115Y-70650D01*
X102104Y-70650D01*
X102105Y-70515D01*
X102057Y-70400D01*
X102610Y-70400D01*
X102610Y-70399D01*
X102724Y-70377D01*
X102724Y-70377D01*
X102822Y-70312D01*
X103312Y-69822D01*
X103312Y-69822D01*
X103377Y-69724D01*
X103380Y-69710D01*
X103424Y-69710D01*
X103516Y-69672D01*
X103586Y-69601D01*
X103624Y-69509D01*
X103625Y-69410D01*
X103625Y-69060D01*
X103587Y-68968D01*
X103528Y-68909D01*
X103586Y-68851D01*
X103624Y-68759D01*
X103625Y-68660D01*
X103625Y-68310D01*
X103587Y-68218D01*
X103516Y-68148D01*
X103424Y-68110D01*
X103400Y-68110D01*
X103400Y-67916D01*
X103452Y-67916D01*
X103838Y-67916D01*
X103930Y-67878D01*
X104000Y-67808D01*
X104038Y-67716D01*
X104039Y-67617D01*
X104039Y-67026D01*
X104001Y-66934D01*
X103930Y-66864D01*
X103896Y-66849D01*
X103896Y-66454D01*
X103950Y-66401D01*
X104014Y-66244D01*
X104015Y-66075D01*
X103950Y-65919D01*
X103831Y-65799D01*
X103674Y-65735D01*
X103505Y-65734D01*
X103349Y-65799D01*
X103229Y-65918D01*
X103165Y-66075D01*
X103164Y-66244D01*
X103229Y-66400D01*
X103296Y-66467D01*
X103296Y-66825D01*
X103239Y-66825D01*
X102853Y-66825D01*
X102846Y-66829D01*
X102838Y-66826D01*
X102739Y-66825D01*
X102353Y-66825D01*
X102346Y-66829D01*
X102338Y-66826D01*
X102239Y-66825D01*
X102208Y-66825D01*
X102146Y-66888D01*
X102146Y-67321D01*
X102153Y-67321D01*
X102153Y-67421D01*
X102146Y-67421D01*
X102146Y-67429D01*
X102046Y-67429D01*
X102046Y-67421D01*
X102039Y-67421D01*
X102039Y-67321D01*
X102046Y-67321D01*
X102046Y-66888D01*
X101983Y-66825D01*
X101952Y-66825D01*
X101853Y-66826D01*
X101846Y-66828D01*
X101838Y-66826D01*
X101739Y-66825D01*
X101353Y-66825D01*
X101346Y-66829D01*
X101338Y-66826D01*
X101239Y-66825D01*
X100853Y-66825D01*
X100761Y-66863D01*
X100691Y-66934D01*
X100653Y-67026D01*
X100653Y-67125D01*
X100653Y-67177D01*
X100574Y-67145D01*
X100405Y-67144D01*
X100285Y-67194D01*
X100271Y-67179D01*
X100114Y-67115D01*
X99945Y-67114D01*
X99789Y-67179D01*
X99787Y-67181D01*
X99674Y-67135D01*
X99505Y-67134D01*
X99349Y-67199D01*
X99229Y-67318D01*
X99165Y-67475D01*
X99164Y-67644D01*
X99229Y-67800D01*
X99290Y-67861D01*
X99290Y-69260D01*
X99312Y-69374D01*
X99377Y-69472D01*
X100170Y-70264D01*
X100093Y-70296D01*
X100022Y-70366D01*
X99984Y-70458D01*
X99984Y-70558D01*
X99984Y-71148D01*
X100022Y-71240D01*
X100092Y-71310D01*
X100184Y-71349D01*
X100284Y-71349D01*
X100874Y-71349D01*
X100966Y-71311D01*
X101037Y-71240D01*
X101075Y-71149D01*
X101075Y-71060D01*
X101120Y-71060D01*
X101365Y-71060D01*
X100982Y-71442D01*
X100982Y-71442D01*
X99870Y-72555D01*
X99035Y-72555D01*
X99035Y-61097D01*
X99035Y-60624D01*
X98997Y-60532D01*
X98926Y-60462D01*
X98835Y-60424D01*
X98735Y-60424D01*
X97760Y-60424D01*
X97760Y-60392D01*
X97697Y-60330D01*
X97385Y-60330D01*
X97385Y-60742D01*
X97447Y-60805D01*
X97550Y-60805D01*
X97550Y-61014D01*
X97337Y-61014D01*
X97246Y-61052D01*
X97175Y-61123D01*
X97137Y-61215D01*
X97137Y-61314D01*
X97137Y-61786D01*
X97175Y-61878D01*
X97245Y-61949D01*
X97337Y-61987D01*
X97436Y-61987D01*
X98303Y-61987D01*
X98395Y-61949D01*
X98465Y-61879D01*
X98503Y-61787D01*
X98503Y-61687D01*
X98503Y-61396D01*
X98834Y-61396D01*
X98926Y-61358D01*
X98996Y-61288D01*
X99035Y-61196D01*
X99035Y-61097D01*
X99035Y-72555D01*
X98602Y-72555D01*
X98602Y-67125D01*
X98602Y-66794D01*
X98539Y-66732D01*
X98155Y-66732D01*
X98155Y-67263D01*
X98218Y-67325D01*
X98302Y-67326D01*
X98401Y-67325D01*
X98493Y-67287D01*
X98564Y-67217D01*
X98602Y-67125D01*
X98602Y-72555D01*
X98355Y-72555D01*
X98240Y-72577D01*
X98142Y-72642D01*
X98055Y-72729D01*
X98055Y-67263D01*
X98055Y-66732D01*
X97672Y-66732D01*
X97609Y-66794D01*
X97609Y-67125D01*
X97647Y-67217D01*
X97718Y-67287D01*
X97809Y-67325D01*
X97909Y-67326D01*
X97993Y-67325D01*
X98055Y-67263D01*
X98055Y-72729D01*
X96735Y-74050D01*
X96735Y-70757D01*
X96575Y-70371D01*
X96280Y-70075D01*
X95894Y-69915D01*
X95477Y-69914D01*
X95091Y-70074D01*
X94795Y-70369D01*
X94635Y-70755D01*
X94634Y-71172D01*
X94794Y-71559D01*
X95089Y-71854D01*
X95475Y-72014D01*
X95892Y-72015D01*
X96279Y-71855D01*
X96574Y-71560D01*
X96734Y-71174D01*
X96735Y-70757D01*
X96735Y-74050D01*
X93730Y-77055D01*
X90359Y-77055D01*
X90887Y-76527D01*
X90887Y-76527D01*
X90952Y-76429D01*
X90974Y-76315D01*
X90975Y-76315D01*
X90975Y-75990D01*
X90975Y-75256D01*
X90976Y-75255D01*
X91330Y-75255D01*
X92140Y-76064D01*
X92139Y-76149D01*
X92204Y-76305D01*
X92323Y-76425D01*
X92480Y-76489D01*
X92649Y-76490D01*
X92805Y-76425D01*
X92925Y-76306D01*
X92989Y-76149D01*
X92990Y-75980D01*
X92925Y-75824D01*
X92806Y-75704D01*
X92649Y-75640D01*
X92564Y-75639D01*
X91667Y-74742D01*
X91569Y-74677D01*
X91455Y-74655D01*
X90976Y-74655D01*
X90916Y-74594D01*
X90759Y-74530D01*
X90590Y-74529D01*
X90434Y-74594D01*
X90314Y-74713D01*
X90250Y-74870D01*
X90249Y-75039D01*
X90314Y-75195D01*
X90375Y-75256D01*
X90375Y-75990D01*
X90375Y-76190D01*
X89835Y-76730D01*
X88936Y-76730D01*
X88876Y-76669D01*
X88719Y-76605D01*
X88550Y-76604D01*
X88394Y-76669D01*
X88333Y-76730D01*
X88146Y-76730D01*
X88204Y-76589D01*
X88205Y-76420D01*
X88140Y-76264D01*
X88105Y-76230D01*
X88700Y-76230D01*
X88700Y-76229D01*
X88814Y-76207D01*
X88814Y-76207D01*
X88912Y-76142D01*
X89202Y-75852D01*
X89202Y-75852D01*
X89202Y-75852D01*
X89814Y-75239D01*
X89899Y-75240D01*
X90055Y-75175D01*
X90175Y-75056D01*
X90239Y-74899D01*
X90240Y-74730D01*
X90175Y-74574D01*
X90056Y-74454D01*
X89899Y-74390D01*
X89730Y-74389D01*
X89574Y-74454D01*
X89454Y-74573D01*
X89390Y-74730D01*
X89389Y-74815D01*
X89349Y-74856D01*
X89347Y-74845D01*
X89282Y-74747D01*
X89282Y-74747D01*
X88992Y-74457D01*
X88894Y-74392D01*
X88793Y-74372D01*
X88730Y-74219D01*
X88611Y-74099D01*
X88454Y-74035D01*
X88285Y-74034D01*
X88129Y-74099D01*
X88009Y-74218D01*
X87990Y-74266D01*
X87990Y-74260D01*
X87925Y-74104D01*
X87806Y-73984D01*
X87679Y-73932D01*
X87729Y-73809D01*
X87730Y-73640D01*
X87665Y-73484D01*
X87546Y-73364D01*
X87389Y-73300D01*
X87295Y-73299D01*
X87295Y-73290D01*
X87445Y-73290D01*
X87452Y-73297D01*
X87452Y-73297D01*
X87550Y-73362D01*
X87664Y-73384D01*
X87665Y-73385D01*
X89580Y-73385D01*
X89605Y-73385D01*
X89742Y-73522D01*
X89840Y-73587D01*
X89955Y-73610D01*
X91310Y-73610D01*
X91310Y-73609D01*
X91424Y-73587D01*
X91424Y-73587D01*
X91522Y-73522D01*
X91679Y-73365D01*
X91724Y-73365D01*
X91775Y-73344D01*
X91774Y-73434D01*
X91839Y-73590D01*
X91958Y-73710D01*
X92115Y-73774D01*
X92284Y-73775D01*
X92440Y-73710D01*
X92501Y-73650D01*
X92678Y-73650D01*
X92748Y-73720D01*
X92905Y-73784D01*
X93074Y-73785D01*
X93230Y-73720D01*
X93350Y-73601D01*
X93414Y-73444D01*
X93415Y-73275D01*
X93350Y-73119D01*
X93231Y-72999D01*
X93074Y-72935D01*
X92905Y-72934D01*
X92749Y-72999D01*
X92698Y-73050D01*
X92501Y-73050D01*
X92441Y-72989D01*
X92296Y-72930D01*
X92670Y-72930D01*
X92670Y-72929D01*
X92784Y-72907D01*
X92784Y-72907D01*
X92882Y-72842D01*
X93627Y-72097D01*
X93627Y-72097D01*
X93692Y-71999D01*
X93714Y-71885D01*
X93715Y-71885D01*
X93715Y-71126D01*
X93775Y-71066D01*
X93839Y-70909D01*
X93839Y-70894D01*
X95022Y-69712D01*
X95022Y-69712D01*
X95087Y-69614D01*
X95109Y-69500D01*
X95110Y-69500D01*
X95110Y-69085D01*
X95087Y-68970D01*
X95022Y-68872D01*
X95022Y-68872D01*
X95010Y-68860D01*
X95010Y-68850D01*
X95010Y-68840D01*
X95010Y-65751D01*
X95070Y-65691D01*
X95134Y-65534D01*
X95135Y-65419D01*
X95192Y-65362D01*
X95192Y-65362D01*
X95257Y-65264D01*
X95275Y-65170D01*
X95897Y-65792D01*
X95897Y-65792D01*
X95995Y-65857D01*
X96109Y-65879D01*
X96109Y-65879D01*
X96559Y-65879D01*
X96499Y-65938D01*
X96435Y-66095D01*
X96434Y-66264D01*
X96499Y-66420D01*
X96618Y-66540D01*
X96775Y-66604D01*
X96944Y-66605D01*
X97100Y-66540D01*
X97220Y-66421D01*
X97257Y-66330D01*
X97609Y-66330D01*
X97609Y-66569D01*
X97672Y-66632D01*
X98055Y-66632D01*
X98055Y-66624D01*
X98155Y-66624D01*
X98155Y-66632D01*
X98539Y-66632D01*
X98602Y-66569D01*
X98602Y-66239D01*
X98595Y-66223D01*
X98762Y-66057D01*
X98762Y-66057D01*
X98827Y-65959D01*
X98849Y-65845D01*
X98850Y-65845D01*
X98850Y-64120D01*
X98849Y-64119D01*
X98827Y-64005D01*
X98762Y-63907D01*
X98762Y-63907D01*
X98489Y-63635D01*
X98392Y-63570D01*
X98346Y-63561D01*
X98346Y-63522D01*
X98346Y-63207D01*
X98342Y-63198D01*
X98346Y-63188D01*
X98346Y-63089D01*
X98346Y-62774D01*
X98342Y-62765D01*
X98346Y-62755D01*
X98346Y-62656D01*
X98346Y-62341D01*
X98308Y-62249D01*
X98237Y-62179D01*
X98146Y-62140D01*
X98046Y-62140D01*
X97416Y-62140D01*
X97324Y-62178D01*
X97287Y-62216D01*
X97259Y-62188D01*
X97103Y-62123D01*
X96934Y-62123D01*
X96850Y-62158D01*
X96850Y-61690D01*
X96850Y-61220D01*
X96899Y-61220D01*
X97055Y-61155D01*
X97175Y-61036D01*
X97239Y-60879D01*
X97240Y-60787D01*
X97285Y-60742D01*
X97285Y-60330D01*
X97277Y-60330D01*
X97277Y-60230D01*
X97285Y-60230D01*
X97285Y-60222D01*
X97385Y-60222D01*
X97385Y-60230D01*
X97697Y-60230D01*
X97760Y-60167D01*
X97760Y-60060D01*
X103740Y-60060D01*
X103677Y-60123D01*
X103639Y-60215D01*
X103639Y-60368D01*
X103701Y-60431D01*
X104115Y-60431D01*
X104115Y-60423D01*
X104215Y-60423D01*
X104215Y-60431D01*
X104628Y-60431D01*
X104690Y-60368D01*
X104690Y-60215D01*
X104652Y-60123D01*
X104589Y-60060D01*
X105130Y-60060D01*
X105565Y-60494D01*
X105565Y-62595D01*
X105587Y-62709D01*
X105652Y-62807D01*
X106330Y-63484D01*
X106330Y-64110D01*
X106352Y-64224D01*
X106417Y-64322D01*
X108057Y-65962D01*
X108155Y-66027D01*
X108155Y-66027D01*
X108270Y-66050D01*
X108875Y-66050D01*
X109207Y-66382D01*
X109305Y-66447D01*
X109305Y-66447D01*
X109420Y-66470D01*
X109428Y-66470D01*
X109488Y-66530D01*
X109645Y-66594D01*
X109814Y-66595D01*
X109970Y-66530D01*
X110090Y-66411D01*
X110154Y-66254D01*
X110155Y-66085D01*
X110090Y-65929D01*
X109971Y-65809D01*
X109814Y-65745D01*
X109645Y-65744D01*
X109489Y-65809D01*
X109486Y-65812D01*
X109212Y-65537D01*
X109114Y-65472D01*
X109000Y-65450D01*
X108394Y-65450D01*
X106930Y-63985D01*
X106930Y-63360D01*
X106907Y-63245D01*
X106842Y-63147D01*
X106842Y-63147D01*
X106165Y-62470D01*
X106165Y-60370D01*
X106142Y-60255D01*
X106077Y-60157D01*
X106077Y-60157D01*
X105795Y-59876D01*
X117969Y-59914D01*
M02*
