G04 (created by PCBNEW (2013-07-07 BZR 4022)-stable) date 09/11/2014 09:40:27*
%MOIN*%
G04 Gerber Fmt 3.4, Leading zero omitted, Abs format*
%FSLAX34Y34*%
G01*
G70*
G90*
G04 APERTURE LIST*
%ADD10C,0.00590551*%
%ADD11R,0.0315X0.0394*%
%ADD12R,0.0590551X0.0590551*%
%ADD13C,0.0866142*%
%ADD14C,0.0984252*%
%ADD15R,0.055X0.035*%
%ADD16R,0.035X0.055*%
%ADD17R,0.0464567X0.0669291*%
%ADD18R,0.0708661X0.0393701*%
%ADD19R,0.0944882X0.0551181*%
%ADD20R,0.106299X0.0551181*%
%ADD21R,0.0629921X0.0511811*%
%ADD22R,0.0413386X0.0767717*%
%ADD23R,0.0570866X0.0866142*%
%ADD24R,0.2165X0.0787*%
%ADD25C,0.0511811*%
%ADD26R,0.23622X0.0787402*%
%ADD27O,0.0185039X0.0787402*%
%ADD28R,0.06X0.06*%
%ADD29C,0.06*%
%ADD30C,0.0433071*%
%ADD31C,0.16*%
G04 APERTURE END LIST*
G54D10*
G54D11*
X111045Y-68908D03*
X111420Y-68042D03*
X110670Y-68042D03*
G54D12*
X111110Y-69758D03*
X100530Y-70803D03*
G54D13*
X115922Y-62500D03*
G54D14*
X114922Y-63500D03*
X114922Y-61500D03*
X116922Y-61500D03*
X116922Y-63500D03*
G54D15*
X76890Y-70755D03*
X76890Y-70005D03*
X81030Y-70680D03*
X81030Y-69930D03*
G54D16*
X74545Y-65240D03*
X73795Y-65240D03*
X74545Y-67240D03*
X73795Y-67240D03*
X87385Y-71720D03*
X86635Y-71720D03*
G54D15*
X103100Y-69285D03*
X103100Y-68535D03*
X102390Y-69295D03*
X102390Y-68545D03*
X101090Y-69345D03*
X101090Y-68595D03*
G54D16*
X95635Y-60760D03*
X94885Y-60760D03*
X96585Y-60280D03*
X97335Y-60280D03*
G54D15*
X92470Y-61075D03*
X92470Y-61825D03*
X91750Y-61075D03*
X91750Y-61825D03*
X90250Y-61815D03*
X90250Y-61065D03*
X90970Y-61815D03*
X90970Y-61065D03*
X93315Y-64510D03*
X93315Y-63760D03*
X94725Y-62645D03*
X94725Y-63395D03*
G54D16*
X87915Y-72360D03*
X88665Y-72360D03*
X89465Y-71940D03*
X90215Y-71940D03*
X91500Y-72840D03*
X90750Y-72840D03*
G54D15*
X83310Y-73575D03*
X83310Y-74325D03*
X86770Y-73345D03*
X86770Y-74095D03*
G54D16*
X91500Y-72135D03*
X90750Y-72135D03*
X85535Y-63905D03*
X86285Y-63905D03*
X85905Y-72110D03*
X85155Y-72110D03*
G54D17*
X103596Y-67371D03*
X103096Y-67371D03*
X102596Y-67371D03*
X102096Y-67371D03*
X101596Y-67371D03*
X101096Y-67371D03*
G54D18*
X97781Y-62548D03*
X97781Y-62981D03*
X97781Y-63414D03*
X97781Y-63847D03*
X97781Y-64280D03*
X97781Y-64713D03*
X97781Y-65146D03*
X97781Y-65579D03*
G54D19*
X97820Y-61501D03*
G54D20*
X98292Y-60910D03*
G54D21*
X104165Y-60481D03*
G54D22*
X104562Y-66396D03*
G54D23*
X98105Y-66682D03*
G54D24*
X76845Y-72140D03*
X80545Y-72140D03*
G54D25*
X68203Y-68956D03*
X68203Y-67223D03*
G54D26*
X76848Y-65413D03*
X76848Y-67106D03*
G54D27*
X91514Y-70856D03*
X91258Y-70856D03*
X91002Y-70856D03*
X90746Y-70856D03*
X90490Y-70856D03*
X90234Y-70856D03*
X89979Y-70856D03*
X89723Y-70856D03*
X89467Y-70856D03*
X89211Y-70856D03*
X88955Y-70856D03*
X88699Y-70856D03*
X88443Y-70856D03*
X88187Y-70856D03*
X87931Y-70856D03*
X87675Y-70856D03*
X87420Y-70856D03*
X87164Y-70856D03*
X86908Y-70856D03*
X86652Y-70856D03*
X86396Y-70856D03*
X86140Y-70856D03*
X85884Y-70856D03*
X85628Y-70856D03*
X85372Y-70856D03*
X85116Y-70856D03*
X84860Y-70856D03*
X84605Y-70856D03*
X84349Y-70856D03*
X84093Y-70856D03*
X83837Y-70856D03*
X83581Y-70856D03*
X83325Y-70856D03*
X83325Y-66043D03*
X83581Y-66043D03*
X83837Y-66043D03*
X84093Y-66043D03*
X84349Y-66043D03*
X84605Y-66043D03*
X84860Y-66043D03*
X85116Y-66043D03*
X85372Y-66043D03*
X85628Y-66043D03*
X85884Y-66043D03*
X86140Y-66043D03*
X86396Y-66043D03*
X86652Y-66043D03*
X86908Y-66043D03*
X87164Y-66043D03*
X87420Y-66043D03*
X87675Y-66043D03*
X87931Y-66043D03*
X88187Y-66043D03*
X88443Y-66043D03*
X88699Y-66043D03*
X88955Y-66043D03*
X89211Y-66043D03*
X89467Y-66043D03*
X89723Y-66043D03*
X89979Y-66043D03*
X90234Y-66043D03*
X90490Y-66043D03*
X90746Y-66043D03*
X91002Y-66043D03*
X91258Y-66043D03*
X91514Y-66043D03*
G54D28*
X68540Y-73875D03*
G54D29*
X67540Y-73875D03*
G54D28*
X70740Y-73390D03*
G54D29*
X70740Y-74390D03*
G54D30*
X69488Y-62045D03*
X69488Y-64644D03*
G54D31*
X77370Y-61215D03*
X95685Y-70965D03*
X111780Y-62240D03*
X108675Y-75705D03*
M02*
