G04 (created by PCBNEW (2013-07-07 BZR 4022)-stable) date 09/11/2014 09:40:27*
%MOIN*%
G04 Gerber Fmt 3.4, Leading zero omitted, Abs format*
%FSLAX34Y34*%
G01*
G70*
G90*
G04 APERTURE LIST*
%ADD10C,0.00590551*%
%ADD11C,0.0031*%
%ADD12C,0.0039*%
%ADD13C,0.0047*%
%ADD14C,0.0043*%
G04 APERTURE END LIST*
G54D10*
G54D11*
X110644Y-68337D02*
G75*
G03X110644Y-68337I-62J0D01*
G74*
G01*
X111545Y-68675D02*
X111545Y-68275D01*
X110520Y-68675D02*
X110520Y-68275D01*
X111545Y-68275D02*
X110520Y-68275D01*
X110520Y-68675D02*
X111545Y-68675D01*
G54D10*
X111560Y-70215D02*
X111560Y-69315D01*
X110660Y-69315D02*
X110660Y-70215D01*
X110660Y-70215D02*
X111560Y-70215D01*
X110660Y-69315D02*
X111560Y-69315D01*
X100980Y-71260D02*
X100980Y-70360D01*
X100080Y-70360D02*
X100080Y-71260D01*
X100080Y-71260D02*
X100980Y-71260D01*
X100080Y-70360D02*
X100980Y-70360D01*
G54D12*
X76640Y-71030D02*
G75*
G03X76640Y-71030I-50J0D01*
G74*
G01*
X76590Y-70580D02*
X76590Y-70980D01*
X76590Y-70980D02*
X77190Y-70980D01*
X77190Y-70980D02*
X77190Y-70580D01*
X77190Y-70180D02*
X77190Y-69780D01*
X77190Y-69780D02*
X76590Y-69780D01*
X76590Y-69780D02*
X76590Y-70180D01*
X80780Y-70955D02*
G75*
G03X80780Y-70955I-50J0D01*
G74*
G01*
X80730Y-70505D02*
X80730Y-70905D01*
X80730Y-70905D02*
X81330Y-70905D01*
X81330Y-70905D02*
X81330Y-70505D01*
X81330Y-70105D02*
X81330Y-69705D01*
X81330Y-69705D02*
X80730Y-69705D01*
X80730Y-69705D02*
X80730Y-70105D01*
X74870Y-65540D02*
G75*
G03X74870Y-65540I-50J0D01*
G74*
G01*
X74370Y-65540D02*
X74770Y-65540D01*
X74770Y-65540D02*
X74770Y-64940D01*
X74770Y-64940D02*
X74370Y-64940D01*
X73970Y-64940D02*
X73570Y-64940D01*
X73570Y-64940D02*
X73570Y-65540D01*
X73570Y-65540D02*
X73970Y-65540D01*
X74870Y-67540D02*
G75*
G03X74870Y-67540I-50J0D01*
G74*
G01*
X74370Y-67540D02*
X74770Y-67540D01*
X74770Y-67540D02*
X74770Y-66940D01*
X74770Y-66940D02*
X74370Y-66940D01*
X73970Y-66940D02*
X73570Y-66940D01*
X73570Y-66940D02*
X73570Y-67540D01*
X73570Y-67540D02*
X73970Y-67540D01*
X87710Y-72020D02*
G75*
G03X87710Y-72020I-50J0D01*
G74*
G01*
X87210Y-72020D02*
X87610Y-72020D01*
X87610Y-72020D02*
X87610Y-71420D01*
X87610Y-71420D02*
X87210Y-71420D01*
X86810Y-71420D02*
X86410Y-71420D01*
X86410Y-71420D02*
X86410Y-72020D01*
X86410Y-72020D02*
X86810Y-72020D01*
X102850Y-69560D02*
G75*
G03X102850Y-69560I-50J0D01*
G74*
G01*
X102800Y-69110D02*
X102800Y-69510D01*
X102800Y-69510D02*
X103400Y-69510D01*
X103400Y-69510D02*
X103400Y-69110D01*
X103400Y-68710D02*
X103400Y-68310D01*
X103400Y-68310D02*
X102800Y-68310D01*
X102800Y-68310D02*
X102800Y-68710D01*
X102140Y-69570D02*
G75*
G03X102140Y-69570I-50J0D01*
G74*
G01*
X102090Y-69120D02*
X102090Y-69520D01*
X102090Y-69520D02*
X102690Y-69520D01*
X102690Y-69520D02*
X102690Y-69120D01*
X102690Y-68720D02*
X102690Y-68320D01*
X102690Y-68320D02*
X102090Y-68320D01*
X102090Y-68320D02*
X102090Y-68720D01*
X100840Y-69620D02*
G75*
G03X100840Y-69620I-50J0D01*
G74*
G01*
X100790Y-69170D02*
X100790Y-69570D01*
X100790Y-69570D02*
X101390Y-69570D01*
X101390Y-69570D02*
X101390Y-69170D01*
X101390Y-68770D02*
X101390Y-68370D01*
X101390Y-68370D02*
X100790Y-68370D01*
X100790Y-68370D02*
X100790Y-68770D01*
X95960Y-61060D02*
G75*
G03X95960Y-61060I-50J0D01*
G74*
G01*
X95460Y-61060D02*
X95860Y-61060D01*
X95860Y-61060D02*
X95860Y-60460D01*
X95860Y-60460D02*
X95460Y-60460D01*
X95060Y-60460D02*
X94660Y-60460D01*
X94660Y-60460D02*
X94660Y-61060D01*
X94660Y-61060D02*
X95060Y-61060D01*
X96360Y-59980D02*
G75*
G03X96360Y-59980I-50J0D01*
G74*
G01*
X96760Y-59980D02*
X96360Y-59980D01*
X96360Y-59980D02*
X96360Y-60580D01*
X96360Y-60580D02*
X96760Y-60580D01*
X97160Y-60580D02*
X97560Y-60580D01*
X97560Y-60580D02*
X97560Y-59980D01*
X97560Y-59980D02*
X97160Y-59980D01*
X92820Y-60800D02*
G75*
G03X92820Y-60800I-50J0D01*
G74*
G01*
X92770Y-61250D02*
X92770Y-60850D01*
X92770Y-60850D02*
X92170Y-60850D01*
X92170Y-60850D02*
X92170Y-61250D01*
X92170Y-61650D02*
X92170Y-62050D01*
X92170Y-62050D02*
X92770Y-62050D01*
X92770Y-62050D02*
X92770Y-61650D01*
X92100Y-60800D02*
G75*
G03X92100Y-60800I-50J0D01*
G74*
G01*
X92050Y-61250D02*
X92050Y-60850D01*
X92050Y-60850D02*
X91450Y-60850D01*
X91450Y-60850D02*
X91450Y-61250D01*
X91450Y-61650D02*
X91450Y-62050D01*
X91450Y-62050D02*
X92050Y-62050D01*
X92050Y-62050D02*
X92050Y-61650D01*
X90000Y-62090D02*
G75*
G03X90000Y-62090I-50J0D01*
G74*
G01*
X89950Y-61640D02*
X89950Y-62040D01*
X89950Y-62040D02*
X90550Y-62040D01*
X90550Y-62040D02*
X90550Y-61640D01*
X90550Y-61240D02*
X90550Y-60840D01*
X90550Y-60840D02*
X89950Y-60840D01*
X89950Y-60840D02*
X89950Y-61240D01*
X90720Y-62090D02*
G75*
G03X90720Y-62090I-50J0D01*
G74*
G01*
X90670Y-61640D02*
X90670Y-62040D01*
X90670Y-62040D02*
X91270Y-62040D01*
X91270Y-62040D02*
X91270Y-61640D01*
X91270Y-61240D02*
X91270Y-60840D01*
X91270Y-60840D02*
X90670Y-60840D01*
X90670Y-60840D02*
X90670Y-61240D01*
X93065Y-64785D02*
G75*
G03X93065Y-64785I-50J0D01*
G74*
G01*
X93015Y-64335D02*
X93015Y-64735D01*
X93015Y-64735D02*
X93615Y-64735D01*
X93615Y-64735D02*
X93615Y-64335D01*
X93615Y-63935D02*
X93615Y-63535D01*
X93615Y-63535D02*
X93015Y-63535D01*
X93015Y-63535D02*
X93015Y-63935D01*
X95075Y-62370D02*
G75*
G03X95075Y-62370I-50J0D01*
G74*
G01*
X95025Y-62820D02*
X95025Y-62420D01*
X95025Y-62420D02*
X94425Y-62420D01*
X94425Y-62420D02*
X94425Y-62820D01*
X94425Y-63220D02*
X94425Y-63620D01*
X94425Y-63620D02*
X95025Y-63620D01*
X95025Y-63620D02*
X95025Y-63220D01*
X87690Y-72060D02*
G75*
G03X87690Y-72060I-50J0D01*
G74*
G01*
X88090Y-72060D02*
X87690Y-72060D01*
X87690Y-72060D02*
X87690Y-72660D01*
X87690Y-72660D02*
X88090Y-72660D01*
X88490Y-72660D02*
X88890Y-72660D01*
X88890Y-72660D02*
X88890Y-72060D01*
X88890Y-72060D02*
X88490Y-72060D01*
X89240Y-71640D02*
G75*
G03X89240Y-71640I-50J0D01*
G74*
G01*
X89640Y-71640D02*
X89240Y-71640D01*
X89240Y-71640D02*
X89240Y-72240D01*
X89240Y-72240D02*
X89640Y-72240D01*
X90040Y-72240D02*
X90440Y-72240D01*
X90440Y-72240D02*
X90440Y-71640D01*
X90440Y-71640D02*
X90040Y-71640D01*
X91825Y-73140D02*
G75*
G03X91825Y-73140I-50J0D01*
G74*
G01*
X91325Y-73140D02*
X91725Y-73140D01*
X91725Y-73140D02*
X91725Y-72540D01*
X91725Y-72540D02*
X91325Y-72540D01*
X90925Y-72540D02*
X90525Y-72540D01*
X90525Y-72540D02*
X90525Y-73140D01*
X90525Y-73140D02*
X90925Y-73140D01*
X83660Y-73300D02*
G75*
G03X83660Y-73300I-50J0D01*
G74*
G01*
X83610Y-73750D02*
X83610Y-73350D01*
X83610Y-73350D02*
X83010Y-73350D01*
X83010Y-73350D02*
X83010Y-73750D01*
X83010Y-74150D02*
X83010Y-74550D01*
X83010Y-74550D02*
X83610Y-74550D01*
X83610Y-74550D02*
X83610Y-74150D01*
X87120Y-73070D02*
G75*
G03X87120Y-73070I-50J0D01*
G74*
G01*
X87070Y-73520D02*
X87070Y-73120D01*
X87070Y-73120D02*
X86470Y-73120D01*
X86470Y-73120D02*
X86470Y-73520D01*
X86470Y-73920D02*
X86470Y-74320D01*
X86470Y-74320D02*
X87070Y-74320D01*
X87070Y-74320D02*
X87070Y-73920D01*
X91825Y-72435D02*
G75*
G03X91825Y-72435I-50J0D01*
G74*
G01*
X91325Y-72435D02*
X91725Y-72435D01*
X91725Y-72435D02*
X91725Y-71835D01*
X91725Y-71835D02*
X91325Y-71835D01*
X90925Y-71835D02*
X90525Y-71835D01*
X90525Y-71835D02*
X90525Y-72435D01*
X90525Y-72435D02*
X90925Y-72435D01*
X85310Y-63605D02*
G75*
G03X85310Y-63605I-50J0D01*
G74*
G01*
X85710Y-63605D02*
X85310Y-63605D01*
X85310Y-63605D02*
X85310Y-64205D01*
X85310Y-64205D02*
X85710Y-64205D01*
X86110Y-64205D02*
X86510Y-64205D01*
X86510Y-64205D02*
X86510Y-63605D01*
X86510Y-63605D02*
X86110Y-63605D01*
X86230Y-72410D02*
G75*
G03X86230Y-72410I-50J0D01*
G74*
G01*
X85730Y-72410D02*
X86130Y-72410D01*
X86130Y-72410D02*
X86130Y-71810D01*
X86130Y-71810D02*
X85730Y-71810D01*
X85330Y-71810D02*
X84930Y-71810D01*
X84930Y-71810D02*
X84930Y-72410D01*
X84930Y-72410D02*
X85330Y-72410D01*
G54D10*
X104690Y-65075D02*
G75*
G02X104690Y-62125I1475J1475D01*
G74*
G01*
X104729Y-60383D02*
X104729Y-67016D01*
X98096Y-60383D02*
X98096Y-67016D01*
X98096Y-60383D02*
X104729Y-60383D01*
X98096Y-67016D02*
X104729Y-67016D01*
X76745Y-72790D02*
X76745Y-72640D01*
X76745Y-71490D02*
X76745Y-71640D01*
X80645Y-71490D02*
X80645Y-71640D01*
X80645Y-72790D02*
X80645Y-72640D01*
X80945Y-73140D02*
X80945Y-72640D01*
X80945Y-71140D02*
X80945Y-71640D01*
X76445Y-71140D02*
X76445Y-71640D01*
X76445Y-73140D02*
X76445Y-72640D01*
X76745Y-71490D02*
X76995Y-71240D01*
X76995Y-71240D02*
X80395Y-71240D01*
X80395Y-71240D02*
X80645Y-71490D01*
X80645Y-72790D02*
X80395Y-73040D01*
X80395Y-73040D02*
X76995Y-73040D01*
X76995Y-73040D02*
X76745Y-72790D01*
X80945Y-71140D02*
X76445Y-71140D01*
X76445Y-73140D02*
X80945Y-73140D01*
X75588Y-64960D02*
X78108Y-64960D01*
X75588Y-67559D02*
X78108Y-67559D01*
X78108Y-64960D02*
X78108Y-67559D01*
X75588Y-64960D02*
X75588Y-67559D01*
X83024Y-70469D02*
X83024Y-66430D01*
X91815Y-70469D02*
X91815Y-66430D01*
X83024Y-66430D02*
X91815Y-66430D01*
X83024Y-70469D02*
X91815Y-70469D01*
G54D13*
X111653Y-68285D02*
X111653Y-68456D01*
X111953Y-68371D02*
X111653Y-68371D01*
X111682Y-68542D02*
X111667Y-68556D01*
X111653Y-68585D01*
X111653Y-68656D01*
X111667Y-68685D01*
X111682Y-68699D01*
X111710Y-68714D01*
X111739Y-68714D01*
X111782Y-68699D01*
X111953Y-68528D01*
X111953Y-68714D01*
G54D12*
X111421Y-68451D02*
X111393Y-68460D01*
X111384Y-68470D01*
X111374Y-68489D01*
X111374Y-68517D01*
X111384Y-68535D01*
X111393Y-68545D01*
X111412Y-68554D01*
X111487Y-68554D01*
X111487Y-68357D01*
X111421Y-68357D01*
X111403Y-68367D01*
X111393Y-68376D01*
X111384Y-68395D01*
X111384Y-68414D01*
X111393Y-68432D01*
X111403Y-68442D01*
X111421Y-68451D01*
X111487Y-68451D01*
X111299Y-68545D02*
X111271Y-68554D01*
X111224Y-68554D01*
X111206Y-68545D01*
X111196Y-68535D01*
X111187Y-68517D01*
X111187Y-68498D01*
X111196Y-68479D01*
X111206Y-68470D01*
X111224Y-68460D01*
X111262Y-68451D01*
X111281Y-68442D01*
X111290Y-68432D01*
X111299Y-68414D01*
X111299Y-68395D01*
X111290Y-68376D01*
X111281Y-68367D01*
X111262Y-68357D01*
X111215Y-68357D01*
X111187Y-68367D01*
X111130Y-68357D02*
X111065Y-68554D01*
X110999Y-68357D01*
X110840Y-68357D02*
X110933Y-68357D01*
X110943Y-68451D01*
X110933Y-68442D01*
X110915Y-68432D01*
X110868Y-68432D01*
X110849Y-68442D01*
X110840Y-68451D01*
X110830Y-68470D01*
X110830Y-68517D01*
X110840Y-68535D01*
X110849Y-68545D01*
X110868Y-68554D01*
X110915Y-68554D01*
X110933Y-68545D01*
X110943Y-68535D01*
X110755Y-68376D02*
X110746Y-68367D01*
X110727Y-68357D01*
X110680Y-68357D01*
X110661Y-68367D01*
X110652Y-68376D01*
X110643Y-68395D01*
X110643Y-68414D01*
X110652Y-68442D01*
X110765Y-68554D01*
X110643Y-68554D01*
G54D10*
X110690Y-70374D02*
X110690Y-69980D01*
X110540Y-69980D01*
X110503Y-69999D01*
X110484Y-70018D01*
X110465Y-70055D01*
X110465Y-70111D01*
X110484Y-70149D01*
X110503Y-70168D01*
X110540Y-70186D01*
X110690Y-70186D01*
X110278Y-70374D02*
X110203Y-70374D01*
X110165Y-70355D01*
X110146Y-70336D01*
X110109Y-70280D01*
X110090Y-70205D01*
X110090Y-70055D01*
X110109Y-70018D01*
X110128Y-69999D01*
X110165Y-69980D01*
X110240Y-69980D01*
X110278Y-69999D01*
X110296Y-70018D01*
X110315Y-70055D01*
X110315Y-70149D01*
X110296Y-70186D01*
X110278Y-70205D01*
X110240Y-70224D01*
X110165Y-70224D01*
X110128Y-70205D01*
X110109Y-70186D01*
X110090Y-70149D01*
X111282Y-70524D02*
X111320Y-70505D01*
X111376Y-70505D01*
X111432Y-70524D01*
X111470Y-70561D01*
X111489Y-70599D01*
X111507Y-70674D01*
X111507Y-70730D01*
X111489Y-70805D01*
X111470Y-70843D01*
X111432Y-70880D01*
X111376Y-70899D01*
X111339Y-70899D01*
X111282Y-70880D01*
X111264Y-70861D01*
X111264Y-70730D01*
X111339Y-70730D01*
X111114Y-70880D02*
X111058Y-70899D01*
X110964Y-70899D01*
X110926Y-70880D01*
X110908Y-70861D01*
X110889Y-70824D01*
X110889Y-70786D01*
X110908Y-70749D01*
X110926Y-70730D01*
X110964Y-70711D01*
X111039Y-70693D01*
X111076Y-70674D01*
X111095Y-70655D01*
X111114Y-70618D01*
X111114Y-70580D01*
X111095Y-70543D01*
X111076Y-70524D01*
X111039Y-70505D01*
X110945Y-70505D01*
X110889Y-70524D01*
X110720Y-70899D02*
X110720Y-70505D01*
X110589Y-70786D01*
X110458Y-70505D01*
X110458Y-70899D01*
X110364Y-70936D02*
X110064Y-70936D01*
X109970Y-70899D02*
X109970Y-70505D01*
X109820Y-70505D01*
X109783Y-70524D01*
X109764Y-70543D01*
X109745Y-70580D01*
X109745Y-70636D01*
X109764Y-70674D01*
X109783Y-70693D01*
X109820Y-70711D01*
X109970Y-70711D01*
X109614Y-70505D02*
X109520Y-70899D01*
X109445Y-70618D01*
X109370Y-70899D01*
X109276Y-70505D01*
X108902Y-70899D02*
X109033Y-70711D01*
X109127Y-70899D02*
X109127Y-70505D01*
X108977Y-70505D01*
X108939Y-70524D01*
X108920Y-70543D01*
X108902Y-70580D01*
X108902Y-70636D01*
X108920Y-70674D01*
X108939Y-70693D01*
X108977Y-70711D01*
X109127Y-70711D01*
X101008Y-72144D02*
X101008Y-71750D01*
X100858Y-71750D01*
X100820Y-71769D01*
X100801Y-71788D01*
X100783Y-71825D01*
X100783Y-71881D01*
X100801Y-71919D01*
X100820Y-71938D01*
X100858Y-71956D01*
X101008Y-71956D01*
X100408Y-72144D02*
X100633Y-72144D01*
X100520Y-72144D02*
X100520Y-71750D01*
X100558Y-71806D01*
X100595Y-71844D01*
X100633Y-71863D01*
X100070Y-71750D02*
X100145Y-71750D01*
X100183Y-71769D01*
X100201Y-71788D01*
X100239Y-71844D01*
X100258Y-71919D01*
X100258Y-72069D01*
X100239Y-72106D01*
X100220Y-72125D01*
X100183Y-72144D01*
X100108Y-72144D01*
X100070Y-72125D01*
X100051Y-72106D01*
X100033Y-72069D01*
X100033Y-71975D01*
X100051Y-71938D01*
X100070Y-71919D01*
X100108Y-71900D01*
X100183Y-71900D01*
X100220Y-71919D01*
X100239Y-71938D01*
X100258Y-71975D01*
X101673Y-72125D02*
X101617Y-72144D01*
X101523Y-72144D01*
X101486Y-72125D01*
X101467Y-72106D01*
X101448Y-72069D01*
X101448Y-72031D01*
X101467Y-71994D01*
X101486Y-71975D01*
X101523Y-71956D01*
X101598Y-71938D01*
X101636Y-71919D01*
X101654Y-71900D01*
X101673Y-71863D01*
X101673Y-71825D01*
X101654Y-71788D01*
X101636Y-71769D01*
X101598Y-71750D01*
X101504Y-71750D01*
X101448Y-71769D01*
X101279Y-72144D02*
X101279Y-71750D01*
X101092Y-72144D02*
X101092Y-71750D01*
X100961Y-72031D01*
X100829Y-71750D01*
X100829Y-72144D01*
X100736Y-72181D02*
X100436Y-72181D01*
X100398Y-71750D02*
X100267Y-72144D01*
X100136Y-71750D01*
X100005Y-72144D02*
X100005Y-71750D01*
X99855Y-71750D01*
X99817Y-71769D01*
X99798Y-71788D01*
X99780Y-71825D01*
X99780Y-71881D01*
X99798Y-71919D01*
X99817Y-71938D01*
X99855Y-71956D01*
X100005Y-71956D01*
X99611Y-72144D02*
X99611Y-71750D01*
X99461Y-71750D01*
X99423Y-71769D01*
X99405Y-71788D01*
X99386Y-71825D01*
X99386Y-71881D01*
X99405Y-71919D01*
X99423Y-71938D01*
X99461Y-71956D01*
X99611Y-71956D01*
G54D14*
X77075Y-70253D02*
X77085Y-70243D01*
X77094Y-70215D01*
X77094Y-70197D01*
X77085Y-70168D01*
X77066Y-70150D01*
X77047Y-70140D01*
X77010Y-70131D01*
X76982Y-70131D01*
X76944Y-70140D01*
X76925Y-70150D01*
X76907Y-70168D01*
X76897Y-70197D01*
X76897Y-70215D01*
X76907Y-70243D01*
X76916Y-70253D01*
X76897Y-70319D02*
X76897Y-70440D01*
X76972Y-70375D01*
X76972Y-70403D01*
X76982Y-70422D01*
X76991Y-70431D01*
X77010Y-70440D01*
X77057Y-70440D01*
X77075Y-70431D01*
X77085Y-70422D01*
X77094Y-70403D01*
X77094Y-70347D01*
X77085Y-70328D01*
X77075Y-70319D01*
X76982Y-70553D02*
X76972Y-70534D01*
X76963Y-70525D01*
X76944Y-70516D01*
X76935Y-70516D01*
X76916Y-70525D01*
X76907Y-70534D01*
X76897Y-70553D01*
X76897Y-70591D01*
X76907Y-70609D01*
X76916Y-70619D01*
X76935Y-70628D01*
X76944Y-70628D01*
X76963Y-70619D01*
X76972Y-70609D01*
X76982Y-70591D01*
X76982Y-70553D01*
X76991Y-70534D01*
X77000Y-70525D01*
X77019Y-70516D01*
X77057Y-70516D01*
X77075Y-70525D01*
X77085Y-70534D01*
X77094Y-70553D01*
X77094Y-70591D01*
X77085Y-70609D01*
X77075Y-70619D01*
X77057Y-70628D01*
X77019Y-70628D01*
X77000Y-70619D01*
X76991Y-70609D01*
X76982Y-70591D01*
X76819Y-70168D02*
X76819Y-70056D01*
X76819Y-70112D02*
X76622Y-70112D01*
X76650Y-70093D01*
X76669Y-70075D01*
X76679Y-70056D01*
X76622Y-70347D02*
X76622Y-70253D01*
X76716Y-70243D01*
X76707Y-70253D01*
X76697Y-70272D01*
X76697Y-70319D01*
X76707Y-70337D01*
X76716Y-70347D01*
X76735Y-70356D01*
X76782Y-70356D01*
X76800Y-70347D01*
X76810Y-70337D01*
X76819Y-70319D01*
X76819Y-70272D01*
X76810Y-70253D01*
X76800Y-70243D01*
X76688Y-70440D02*
X76885Y-70440D01*
X76697Y-70440D02*
X76688Y-70459D01*
X76688Y-70497D01*
X76697Y-70516D01*
X76707Y-70525D01*
X76725Y-70534D01*
X76782Y-70534D01*
X76800Y-70525D01*
X76810Y-70516D01*
X76819Y-70497D01*
X76819Y-70459D01*
X76810Y-70440D01*
X76716Y-70684D02*
X76716Y-70619D01*
X76819Y-70619D02*
X76622Y-70619D01*
X76622Y-70713D01*
X81215Y-70178D02*
X81225Y-70168D01*
X81234Y-70140D01*
X81234Y-70122D01*
X81225Y-70093D01*
X81206Y-70075D01*
X81187Y-70065D01*
X81150Y-70056D01*
X81122Y-70056D01*
X81084Y-70065D01*
X81065Y-70075D01*
X81047Y-70093D01*
X81037Y-70122D01*
X81037Y-70140D01*
X81047Y-70168D01*
X81056Y-70178D01*
X81037Y-70244D02*
X81037Y-70365D01*
X81112Y-70300D01*
X81112Y-70328D01*
X81122Y-70347D01*
X81131Y-70356D01*
X81150Y-70365D01*
X81197Y-70365D01*
X81215Y-70356D01*
X81225Y-70347D01*
X81234Y-70328D01*
X81234Y-70272D01*
X81225Y-70253D01*
X81215Y-70244D01*
X81037Y-70431D02*
X81037Y-70562D01*
X81234Y-70478D01*
X80959Y-70093D02*
X80959Y-69981D01*
X80959Y-70037D02*
X80762Y-70037D01*
X80790Y-70018D01*
X80809Y-70000D01*
X80819Y-69981D01*
X80762Y-70272D02*
X80762Y-70178D01*
X80856Y-70168D01*
X80847Y-70178D01*
X80837Y-70197D01*
X80837Y-70244D01*
X80847Y-70262D01*
X80856Y-70272D01*
X80875Y-70281D01*
X80922Y-70281D01*
X80940Y-70272D01*
X80950Y-70262D01*
X80959Y-70244D01*
X80959Y-70197D01*
X80950Y-70178D01*
X80940Y-70168D01*
X80828Y-70365D02*
X81025Y-70365D01*
X80837Y-70365D02*
X80828Y-70384D01*
X80828Y-70422D01*
X80837Y-70441D01*
X80847Y-70450D01*
X80865Y-70459D01*
X80922Y-70459D01*
X80940Y-70450D01*
X80950Y-70441D01*
X80959Y-70422D01*
X80959Y-70384D01*
X80950Y-70365D01*
X80856Y-70609D02*
X80856Y-70544D01*
X80959Y-70544D02*
X80762Y-70544D01*
X80762Y-70638D01*
X74296Y-65175D02*
X74306Y-65185D01*
X74334Y-65194D01*
X74352Y-65194D01*
X74381Y-65185D01*
X74399Y-65166D01*
X74409Y-65147D01*
X74418Y-65110D01*
X74418Y-65082D01*
X74409Y-65044D01*
X74399Y-65025D01*
X74381Y-65007D01*
X74352Y-64997D01*
X74334Y-64997D01*
X74306Y-65007D01*
X74296Y-65016D01*
X74221Y-65016D02*
X74212Y-65007D01*
X74193Y-64997D01*
X74146Y-64997D01*
X74127Y-65007D01*
X74118Y-65016D01*
X74109Y-65035D01*
X74109Y-65054D01*
X74118Y-65082D01*
X74230Y-65194D01*
X74109Y-65194D01*
X74033Y-65016D02*
X74024Y-65007D01*
X74005Y-64997D01*
X73958Y-64997D01*
X73940Y-65007D01*
X73930Y-65016D01*
X73921Y-65035D01*
X73921Y-65054D01*
X73930Y-65082D01*
X74043Y-65194D01*
X73921Y-65194D01*
X74381Y-65469D02*
X74493Y-65469D01*
X74437Y-65469D02*
X74437Y-65272D01*
X74456Y-65300D01*
X74474Y-65319D01*
X74493Y-65329D01*
X74259Y-65272D02*
X74240Y-65272D01*
X74221Y-65282D01*
X74212Y-65291D01*
X74202Y-65310D01*
X74193Y-65347D01*
X74193Y-65394D01*
X74202Y-65432D01*
X74212Y-65450D01*
X74221Y-65460D01*
X74240Y-65469D01*
X74259Y-65469D01*
X74277Y-65460D01*
X74287Y-65450D01*
X74296Y-65432D01*
X74306Y-65394D01*
X74306Y-65347D01*
X74296Y-65310D01*
X74287Y-65291D01*
X74277Y-65282D01*
X74259Y-65272D01*
X74109Y-65338D02*
X74109Y-65535D01*
X74109Y-65347D02*
X74090Y-65338D01*
X74052Y-65338D01*
X74033Y-65347D01*
X74024Y-65357D01*
X74015Y-65375D01*
X74015Y-65432D01*
X74024Y-65450D01*
X74033Y-65460D01*
X74052Y-65469D01*
X74090Y-65469D01*
X74109Y-65460D01*
X73865Y-65366D02*
X73930Y-65366D01*
X73930Y-65469D02*
X73930Y-65272D01*
X73836Y-65272D01*
X74296Y-67175D02*
X74306Y-67185D01*
X74334Y-67194D01*
X74352Y-67194D01*
X74381Y-67185D01*
X74399Y-67166D01*
X74409Y-67147D01*
X74418Y-67110D01*
X74418Y-67082D01*
X74409Y-67044D01*
X74399Y-67025D01*
X74381Y-67007D01*
X74352Y-66997D01*
X74334Y-66997D01*
X74306Y-67007D01*
X74296Y-67016D01*
X74221Y-67016D02*
X74212Y-67007D01*
X74193Y-66997D01*
X74146Y-66997D01*
X74127Y-67007D01*
X74118Y-67016D01*
X74109Y-67035D01*
X74109Y-67054D01*
X74118Y-67082D01*
X74230Y-67194D01*
X74109Y-67194D01*
X73921Y-67194D02*
X74033Y-67194D01*
X73977Y-67194D02*
X73977Y-66997D01*
X73996Y-67025D01*
X74015Y-67044D01*
X74033Y-67054D01*
X74817Y-67469D02*
X74817Y-67272D01*
X74704Y-67469D01*
X74704Y-67272D01*
X74498Y-67450D02*
X74507Y-67460D01*
X74535Y-67469D01*
X74554Y-67469D01*
X74582Y-67460D01*
X74601Y-67441D01*
X74610Y-67422D01*
X74620Y-67385D01*
X74620Y-67357D01*
X74610Y-67319D01*
X74601Y-67300D01*
X74582Y-67282D01*
X74554Y-67272D01*
X74535Y-67272D01*
X74507Y-67282D01*
X74498Y-67291D01*
X74357Y-67544D02*
X74367Y-67535D01*
X74385Y-67507D01*
X74395Y-67488D01*
X74404Y-67460D01*
X74413Y-67413D01*
X74413Y-67375D01*
X74404Y-67329D01*
X74395Y-67300D01*
X74385Y-67282D01*
X74367Y-67253D01*
X74357Y-67244D01*
X74179Y-67469D02*
X74291Y-67469D01*
X74235Y-67469D02*
X74235Y-67272D01*
X74254Y-67300D01*
X74273Y-67319D01*
X74291Y-67329D01*
X74057Y-67272D02*
X74038Y-67272D01*
X74019Y-67282D01*
X74010Y-67291D01*
X74001Y-67310D01*
X73991Y-67347D01*
X73991Y-67394D01*
X74001Y-67432D01*
X74010Y-67450D01*
X74019Y-67460D01*
X74038Y-67469D01*
X74057Y-67469D01*
X74076Y-67460D01*
X74085Y-67450D01*
X74094Y-67432D01*
X74104Y-67394D01*
X74104Y-67347D01*
X74094Y-67310D01*
X74085Y-67291D01*
X74076Y-67282D01*
X74057Y-67272D01*
X73907Y-67338D02*
X73907Y-67535D01*
X73907Y-67347D02*
X73888Y-67338D01*
X73851Y-67338D01*
X73832Y-67347D01*
X73822Y-67357D01*
X73813Y-67375D01*
X73813Y-67432D01*
X73822Y-67450D01*
X73832Y-67460D01*
X73851Y-67469D01*
X73888Y-67469D01*
X73907Y-67460D01*
X73663Y-67366D02*
X73729Y-67366D01*
X73729Y-67469D02*
X73729Y-67272D01*
X73635Y-67272D01*
X73579Y-67544D02*
X73569Y-67535D01*
X73550Y-67507D01*
X73541Y-67488D01*
X73532Y-67460D01*
X73522Y-67413D01*
X73522Y-67375D01*
X73532Y-67329D01*
X73541Y-67300D01*
X73550Y-67282D01*
X73569Y-67253D01*
X73579Y-67244D01*
X87136Y-71674D02*
X87202Y-71580D01*
X87249Y-71674D02*
X87249Y-71477D01*
X87174Y-71477D01*
X87155Y-71487D01*
X87146Y-71496D01*
X87136Y-71515D01*
X87136Y-71543D01*
X87146Y-71562D01*
X87155Y-71571D01*
X87174Y-71580D01*
X87249Y-71580D01*
X87061Y-71496D02*
X87052Y-71487D01*
X87033Y-71477D01*
X86986Y-71477D01*
X86967Y-71487D01*
X86958Y-71496D01*
X86949Y-71515D01*
X86949Y-71534D01*
X86958Y-71562D01*
X87070Y-71674D01*
X86949Y-71674D01*
X86883Y-71477D02*
X86752Y-71477D01*
X86836Y-71674D01*
X87127Y-71949D02*
X87239Y-71949D01*
X87183Y-71949D02*
X87183Y-71752D01*
X87202Y-71780D01*
X87221Y-71799D01*
X87239Y-71809D01*
X87005Y-71752D02*
X86986Y-71752D01*
X86967Y-71762D01*
X86958Y-71771D01*
X86949Y-71790D01*
X86939Y-71827D01*
X86939Y-71874D01*
X86949Y-71912D01*
X86958Y-71930D01*
X86967Y-71940D01*
X86986Y-71949D01*
X87005Y-71949D01*
X87024Y-71940D01*
X87033Y-71930D01*
X87042Y-71912D01*
X87052Y-71874D01*
X87052Y-71827D01*
X87042Y-71790D01*
X87033Y-71771D01*
X87024Y-71762D01*
X87005Y-71752D01*
X86855Y-71949D02*
X86855Y-71752D01*
X86836Y-71874D02*
X86780Y-71949D01*
X86780Y-71818D02*
X86855Y-71893D01*
X103304Y-68783D02*
X103210Y-68717D01*
X103304Y-68670D02*
X103107Y-68670D01*
X103107Y-68745D01*
X103117Y-68764D01*
X103126Y-68773D01*
X103145Y-68783D01*
X103173Y-68783D01*
X103192Y-68773D01*
X103201Y-68764D01*
X103210Y-68745D01*
X103210Y-68670D01*
X103304Y-68970D02*
X103304Y-68858D01*
X103304Y-68914D02*
X103107Y-68914D01*
X103135Y-68895D01*
X103154Y-68877D01*
X103164Y-68858D01*
X103304Y-69064D02*
X103304Y-69102D01*
X103295Y-69121D01*
X103285Y-69130D01*
X103257Y-69149D01*
X103220Y-69158D01*
X103145Y-69158D01*
X103126Y-69149D01*
X103117Y-69139D01*
X103107Y-69121D01*
X103107Y-69083D01*
X103117Y-69064D01*
X103126Y-69055D01*
X103145Y-69046D01*
X103192Y-69046D01*
X103210Y-69055D01*
X103220Y-69064D01*
X103229Y-69083D01*
X103229Y-69121D01*
X103220Y-69139D01*
X103210Y-69149D01*
X103192Y-69158D01*
X102851Y-68759D02*
X102842Y-68769D01*
X102832Y-68788D01*
X102832Y-68834D01*
X102842Y-68853D01*
X102851Y-68863D01*
X102870Y-68872D01*
X102889Y-68872D01*
X102917Y-68863D01*
X103029Y-68750D01*
X103029Y-68872D01*
X102851Y-68947D02*
X102842Y-68956D01*
X102832Y-68975D01*
X102832Y-69022D01*
X102842Y-69041D01*
X102851Y-69050D01*
X102870Y-69060D01*
X102889Y-69060D01*
X102917Y-69050D01*
X103029Y-68938D01*
X103029Y-69060D01*
X102594Y-68793D02*
X102500Y-68727D01*
X102594Y-68680D02*
X102397Y-68680D01*
X102397Y-68755D01*
X102407Y-68774D01*
X102416Y-68783D01*
X102435Y-68793D01*
X102463Y-68793D01*
X102482Y-68783D01*
X102491Y-68774D01*
X102500Y-68755D01*
X102500Y-68680D01*
X102416Y-68868D02*
X102407Y-68877D01*
X102397Y-68896D01*
X102397Y-68943D01*
X102407Y-68962D01*
X102416Y-68971D01*
X102435Y-68980D01*
X102454Y-68980D01*
X102482Y-68971D01*
X102594Y-68859D01*
X102594Y-68980D01*
X102397Y-69102D02*
X102397Y-69121D01*
X102407Y-69140D01*
X102416Y-69149D01*
X102435Y-69159D01*
X102472Y-69168D01*
X102519Y-69168D01*
X102557Y-69159D01*
X102575Y-69149D01*
X102585Y-69140D01*
X102594Y-69121D01*
X102594Y-69102D01*
X102585Y-69084D01*
X102575Y-69074D01*
X102557Y-69065D01*
X102519Y-69056D01*
X102472Y-69056D01*
X102435Y-69065D01*
X102416Y-69074D01*
X102407Y-69084D01*
X102397Y-69102D01*
X102141Y-68769D02*
X102132Y-68779D01*
X102122Y-68798D01*
X102122Y-68844D01*
X102132Y-68863D01*
X102141Y-68873D01*
X102160Y-68882D01*
X102179Y-68882D01*
X102207Y-68873D01*
X102319Y-68760D01*
X102319Y-68882D01*
X102141Y-68957D02*
X102132Y-68966D01*
X102122Y-68985D01*
X102122Y-69032D01*
X102132Y-69051D01*
X102141Y-69060D01*
X102160Y-69070D01*
X102179Y-69070D01*
X102207Y-69060D01*
X102319Y-68948D01*
X102319Y-69070D01*
X101294Y-68843D02*
X101200Y-68777D01*
X101294Y-68730D02*
X101097Y-68730D01*
X101097Y-68805D01*
X101107Y-68824D01*
X101116Y-68833D01*
X101135Y-68843D01*
X101163Y-68843D01*
X101182Y-68833D01*
X101191Y-68824D01*
X101200Y-68805D01*
X101200Y-68730D01*
X101116Y-68918D02*
X101107Y-68927D01*
X101097Y-68946D01*
X101097Y-68993D01*
X101107Y-69012D01*
X101116Y-69021D01*
X101135Y-69030D01*
X101154Y-69030D01*
X101182Y-69021D01*
X101294Y-68909D01*
X101294Y-69030D01*
X101294Y-69218D02*
X101294Y-69106D01*
X101294Y-69162D02*
X101097Y-69162D01*
X101125Y-69143D01*
X101144Y-69124D01*
X101154Y-69106D01*
X100841Y-68819D02*
X100832Y-68829D01*
X100822Y-68848D01*
X100822Y-68894D01*
X100832Y-68913D01*
X100841Y-68923D01*
X100860Y-68932D01*
X100879Y-68932D01*
X100907Y-68923D01*
X101019Y-68810D01*
X101019Y-68932D01*
X100841Y-69007D02*
X100832Y-69016D01*
X100822Y-69035D01*
X100822Y-69082D01*
X100832Y-69101D01*
X100841Y-69110D01*
X100860Y-69120D01*
X100879Y-69120D01*
X100907Y-69110D01*
X101019Y-68998D01*
X101019Y-69120D01*
X95386Y-60714D02*
X95452Y-60620D01*
X95499Y-60714D02*
X95499Y-60517D01*
X95424Y-60517D01*
X95405Y-60527D01*
X95396Y-60536D01*
X95386Y-60555D01*
X95386Y-60583D01*
X95396Y-60602D01*
X95405Y-60611D01*
X95424Y-60620D01*
X95499Y-60620D01*
X95311Y-60536D02*
X95302Y-60527D01*
X95283Y-60517D01*
X95236Y-60517D01*
X95217Y-60527D01*
X95208Y-60536D01*
X95199Y-60555D01*
X95199Y-60574D01*
X95208Y-60602D01*
X95320Y-60714D01*
X95199Y-60714D01*
X95105Y-60714D02*
X95067Y-60714D01*
X95048Y-60705D01*
X95039Y-60695D01*
X95020Y-60667D01*
X95011Y-60630D01*
X95011Y-60555D01*
X95020Y-60536D01*
X95030Y-60527D01*
X95048Y-60517D01*
X95086Y-60517D01*
X95105Y-60527D01*
X95114Y-60536D01*
X95123Y-60555D01*
X95123Y-60602D01*
X95114Y-60620D01*
X95105Y-60630D01*
X95086Y-60639D01*
X95048Y-60639D01*
X95030Y-60630D01*
X95020Y-60620D01*
X95011Y-60602D01*
X95377Y-60989D02*
X95489Y-60989D01*
X95433Y-60989D02*
X95433Y-60792D01*
X95452Y-60820D01*
X95471Y-60839D01*
X95489Y-60849D01*
X95255Y-60792D02*
X95236Y-60792D01*
X95217Y-60802D01*
X95208Y-60811D01*
X95199Y-60830D01*
X95189Y-60867D01*
X95189Y-60914D01*
X95199Y-60952D01*
X95208Y-60970D01*
X95217Y-60980D01*
X95236Y-60989D01*
X95255Y-60989D01*
X95274Y-60980D01*
X95283Y-60970D01*
X95292Y-60952D01*
X95302Y-60914D01*
X95302Y-60867D01*
X95292Y-60830D01*
X95283Y-60811D01*
X95274Y-60802D01*
X95255Y-60792D01*
X95105Y-60989D02*
X95105Y-60792D01*
X95086Y-60914D02*
X95030Y-60989D01*
X95030Y-60858D02*
X95105Y-60933D01*
X97086Y-60484D02*
X97152Y-60390D01*
X97199Y-60484D02*
X97199Y-60287D01*
X97124Y-60287D01*
X97105Y-60297D01*
X97096Y-60306D01*
X97086Y-60325D01*
X97086Y-60353D01*
X97096Y-60372D01*
X97105Y-60381D01*
X97124Y-60390D01*
X97199Y-60390D01*
X97011Y-60306D02*
X97002Y-60297D01*
X96983Y-60287D01*
X96936Y-60287D01*
X96917Y-60297D01*
X96908Y-60306D01*
X96899Y-60325D01*
X96899Y-60344D01*
X96908Y-60372D01*
X97020Y-60484D01*
X96899Y-60484D01*
X96786Y-60372D02*
X96805Y-60362D01*
X96814Y-60353D01*
X96823Y-60334D01*
X96823Y-60325D01*
X96814Y-60306D01*
X96805Y-60297D01*
X96786Y-60287D01*
X96748Y-60287D01*
X96730Y-60297D01*
X96720Y-60306D01*
X96711Y-60325D01*
X96711Y-60334D01*
X96720Y-60353D01*
X96730Y-60362D01*
X96748Y-60372D01*
X96786Y-60372D01*
X96805Y-60381D01*
X96814Y-60390D01*
X96823Y-60409D01*
X96823Y-60447D01*
X96814Y-60465D01*
X96805Y-60475D01*
X96786Y-60484D01*
X96748Y-60484D01*
X96730Y-60475D01*
X96720Y-60465D01*
X96711Y-60447D01*
X96711Y-60409D01*
X96720Y-60390D01*
X96730Y-60381D01*
X96748Y-60372D01*
X97016Y-60209D02*
X97128Y-60209D01*
X97072Y-60209D02*
X97072Y-60012D01*
X97091Y-60040D01*
X97110Y-60059D01*
X97128Y-60069D01*
X96931Y-60209D02*
X96931Y-60012D01*
X96866Y-60153D01*
X96800Y-60012D01*
X96800Y-60209D01*
X92424Y-61417D02*
X92330Y-61351D01*
X92424Y-61304D02*
X92227Y-61304D01*
X92227Y-61379D01*
X92237Y-61398D01*
X92246Y-61407D01*
X92265Y-61417D01*
X92293Y-61417D01*
X92312Y-61407D01*
X92321Y-61398D01*
X92330Y-61379D01*
X92330Y-61304D01*
X92246Y-61492D02*
X92237Y-61501D01*
X92227Y-61520D01*
X92227Y-61567D01*
X92237Y-61586D01*
X92246Y-61595D01*
X92265Y-61604D01*
X92284Y-61604D01*
X92312Y-61595D01*
X92424Y-61482D01*
X92424Y-61604D01*
X92699Y-61116D02*
X92699Y-61004D01*
X92699Y-61060D02*
X92502Y-61060D01*
X92530Y-61041D01*
X92549Y-61023D01*
X92559Y-61004D01*
X92699Y-61201D02*
X92502Y-61201D01*
X92624Y-61220D02*
X92699Y-61276D01*
X92568Y-61276D02*
X92643Y-61201D01*
X92493Y-61501D02*
X92746Y-61332D01*
X92699Y-61670D02*
X92699Y-61557D01*
X92699Y-61614D02*
X92502Y-61614D01*
X92530Y-61595D01*
X92549Y-61576D01*
X92559Y-61557D01*
X92699Y-61745D02*
X92502Y-61895D01*
X92502Y-61773D02*
X92512Y-61792D01*
X92530Y-61801D01*
X92549Y-61792D01*
X92559Y-61773D01*
X92549Y-61754D01*
X92530Y-61745D01*
X92512Y-61754D01*
X92502Y-61773D01*
X92690Y-61886D02*
X92671Y-61895D01*
X92652Y-61886D01*
X92643Y-61867D01*
X92652Y-61848D01*
X92671Y-61839D01*
X92690Y-61848D01*
X92699Y-61867D01*
X92690Y-61886D01*
X91685Y-61417D02*
X91695Y-61407D01*
X91704Y-61379D01*
X91704Y-61360D01*
X91695Y-61332D01*
X91676Y-61313D01*
X91657Y-61304D01*
X91620Y-61295D01*
X91592Y-61295D01*
X91554Y-61304D01*
X91535Y-61313D01*
X91517Y-61332D01*
X91507Y-61360D01*
X91507Y-61379D01*
X91517Y-61407D01*
X91526Y-61417D01*
X91704Y-61510D02*
X91704Y-61548D01*
X91695Y-61567D01*
X91685Y-61576D01*
X91657Y-61595D01*
X91620Y-61604D01*
X91545Y-61604D01*
X91526Y-61595D01*
X91517Y-61586D01*
X91507Y-61567D01*
X91507Y-61529D01*
X91517Y-61510D01*
X91526Y-61501D01*
X91545Y-61492D01*
X91592Y-61492D01*
X91610Y-61501D01*
X91620Y-61510D01*
X91629Y-61529D01*
X91629Y-61567D01*
X91620Y-61586D01*
X91610Y-61595D01*
X91592Y-61604D01*
X91979Y-61145D02*
X91979Y-61032D01*
X91979Y-61088D02*
X91782Y-61088D01*
X91810Y-61070D01*
X91829Y-61051D01*
X91839Y-61032D01*
X91782Y-61267D02*
X91782Y-61285D01*
X91792Y-61304D01*
X91801Y-61313D01*
X91820Y-61323D01*
X91857Y-61332D01*
X91904Y-61332D01*
X91942Y-61323D01*
X91960Y-61313D01*
X91970Y-61304D01*
X91979Y-61285D01*
X91979Y-61267D01*
X91970Y-61248D01*
X91960Y-61238D01*
X91942Y-61229D01*
X91904Y-61220D01*
X91857Y-61220D01*
X91820Y-61229D01*
X91801Y-61238D01*
X91792Y-61248D01*
X91782Y-61267D01*
X91782Y-61454D02*
X91782Y-61473D01*
X91792Y-61492D01*
X91801Y-61501D01*
X91820Y-61510D01*
X91857Y-61520D01*
X91904Y-61520D01*
X91942Y-61510D01*
X91960Y-61501D01*
X91970Y-61492D01*
X91979Y-61473D01*
X91979Y-61454D01*
X91970Y-61435D01*
X91960Y-61426D01*
X91942Y-61417D01*
X91904Y-61407D01*
X91857Y-61407D01*
X91820Y-61417D01*
X91801Y-61426D01*
X91792Y-61435D01*
X91782Y-61454D01*
X91848Y-61604D02*
X91979Y-61604D01*
X91867Y-61604D02*
X91857Y-61614D01*
X91848Y-61632D01*
X91848Y-61661D01*
X91857Y-61679D01*
X91876Y-61689D01*
X91979Y-61689D01*
X91876Y-61848D02*
X91876Y-61783D01*
X91979Y-61783D02*
X91782Y-61783D01*
X91782Y-61876D01*
X90435Y-61313D02*
X90445Y-61303D01*
X90454Y-61275D01*
X90454Y-61257D01*
X90445Y-61228D01*
X90426Y-61210D01*
X90407Y-61200D01*
X90370Y-61191D01*
X90342Y-61191D01*
X90304Y-61200D01*
X90285Y-61210D01*
X90267Y-61228D01*
X90257Y-61257D01*
X90257Y-61275D01*
X90267Y-61303D01*
X90276Y-61313D01*
X90454Y-61500D02*
X90454Y-61388D01*
X90454Y-61444D02*
X90257Y-61444D01*
X90285Y-61425D01*
X90304Y-61407D01*
X90314Y-61388D01*
X90257Y-61622D02*
X90257Y-61641D01*
X90267Y-61660D01*
X90276Y-61669D01*
X90295Y-61679D01*
X90332Y-61688D01*
X90379Y-61688D01*
X90417Y-61679D01*
X90435Y-61669D01*
X90445Y-61660D01*
X90454Y-61641D01*
X90454Y-61622D01*
X90445Y-61604D01*
X90435Y-61594D01*
X90417Y-61585D01*
X90379Y-61576D01*
X90332Y-61576D01*
X90295Y-61585D01*
X90276Y-61594D01*
X90267Y-61604D01*
X90257Y-61622D01*
X90179Y-61135D02*
X90179Y-61022D01*
X90179Y-61078D02*
X89982Y-61078D01*
X90010Y-61060D01*
X90029Y-61041D01*
X90039Y-61022D01*
X89982Y-61257D02*
X89982Y-61275D01*
X89992Y-61294D01*
X90001Y-61303D01*
X90020Y-61313D01*
X90057Y-61322D01*
X90104Y-61322D01*
X90142Y-61313D01*
X90160Y-61303D01*
X90170Y-61294D01*
X90179Y-61275D01*
X90179Y-61257D01*
X90170Y-61238D01*
X90160Y-61228D01*
X90142Y-61219D01*
X90104Y-61210D01*
X90057Y-61210D01*
X90020Y-61219D01*
X90001Y-61228D01*
X89992Y-61238D01*
X89982Y-61257D01*
X89982Y-61444D02*
X89982Y-61463D01*
X89992Y-61482D01*
X90001Y-61491D01*
X90020Y-61500D01*
X90057Y-61510D01*
X90104Y-61510D01*
X90142Y-61500D01*
X90160Y-61491D01*
X90170Y-61482D01*
X90179Y-61463D01*
X90179Y-61444D01*
X90170Y-61425D01*
X90160Y-61416D01*
X90142Y-61407D01*
X90104Y-61397D01*
X90057Y-61397D01*
X90020Y-61407D01*
X90001Y-61416D01*
X89992Y-61425D01*
X89982Y-61444D01*
X90048Y-61594D02*
X90179Y-61594D01*
X90067Y-61594D02*
X90057Y-61604D01*
X90048Y-61622D01*
X90048Y-61651D01*
X90057Y-61669D01*
X90076Y-61679D01*
X90179Y-61679D01*
X90076Y-61838D02*
X90076Y-61773D01*
X90179Y-61773D02*
X89982Y-61773D01*
X89982Y-61866D01*
X91174Y-61407D02*
X91080Y-61341D01*
X91174Y-61294D02*
X90977Y-61294D01*
X90977Y-61369D01*
X90987Y-61388D01*
X90996Y-61397D01*
X91015Y-61407D01*
X91043Y-61407D01*
X91062Y-61397D01*
X91071Y-61388D01*
X91080Y-61369D01*
X91080Y-61294D01*
X90977Y-61472D02*
X90977Y-61594D01*
X91052Y-61529D01*
X91052Y-61557D01*
X91062Y-61576D01*
X91071Y-61585D01*
X91090Y-61594D01*
X91137Y-61594D01*
X91155Y-61585D01*
X91165Y-61576D01*
X91174Y-61557D01*
X91174Y-61500D01*
X91165Y-61482D01*
X91155Y-61472D01*
X90899Y-61106D02*
X90899Y-60994D01*
X90899Y-61050D02*
X90702Y-61050D01*
X90730Y-61031D01*
X90749Y-61013D01*
X90759Y-60994D01*
X90899Y-61191D02*
X90702Y-61191D01*
X90824Y-61210D02*
X90899Y-61266D01*
X90768Y-61266D02*
X90843Y-61191D01*
X90693Y-61491D02*
X90946Y-61322D01*
X90899Y-61660D02*
X90899Y-61547D01*
X90899Y-61604D02*
X90702Y-61604D01*
X90730Y-61585D01*
X90749Y-61566D01*
X90759Y-61547D01*
X90899Y-61735D02*
X90702Y-61885D01*
X90702Y-61763D02*
X90712Y-61782D01*
X90730Y-61791D01*
X90749Y-61782D01*
X90759Y-61763D01*
X90749Y-61744D01*
X90730Y-61735D01*
X90712Y-61744D01*
X90702Y-61763D01*
X90890Y-61876D02*
X90871Y-61885D01*
X90852Y-61876D01*
X90843Y-61857D01*
X90852Y-61838D01*
X90871Y-61829D01*
X90890Y-61838D01*
X90899Y-61857D01*
X90890Y-61876D01*
X93500Y-64102D02*
X93510Y-64092D01*
X93519Y-64064D01*
X93519Y-64045D01*
X93510Y-64017D01*
X93491Y-63998D01*
X93472Y-63989D01*
X93435Y-63980D01*
X93407Y-63980D01*
X93369Y-63989D01*
X93350Y-63998D01*
X93332Y-64017D01*
X93322Y-64045D01*
X93322Y-64064D01*
X93332Y-64092D01*
X93341Y-64102D01*
X93519Y-64289D02*
X93519Y-64177D01*
X93519Y-64233D02*
X93322Y-64233D01*
X93350Y-64214D01*
X93369Y-64195D01*
X93379Y-64177D01*
X93244Y-63501D02*
X93244Y-63389D01*
X93244Y-63445D02*
X93047Y-63445D01*
X93075Y-63426D01*
X93094Y-63407D01*
X93104Y-63389D01*
X93047Y-63623D02*
X93047Y-63642D01*
X93057Y-63661D01*
X93066Y-63670D01*
X93085Y-63680D01*
X93122Y-63689D01*
X93169Y-63689D01*
X93207Y-63680D01*
X93225Y-63670D01*
X93235Y-63661D01*
X93244Y-63642D01*
X93244Y-63623D01*
X93235Y-63604D01*
X93225Y-63595D01*
X93207Y-63586D01*
X93169Y-63576D01*
X93122Y-63576D01*
X93085Y-63586D01*
X93066Y-63595D01*
X93057Y-63604D01*
X93047Y-63623D01*
X93113Y-63858D02*
X93244Y-63858D01*
X93113Y-63773D02*
X93216Y-63773D01*
X93235Y-63783D01*
X93244Y-63801D01*
X93244Y-63830D01*
X93235Y-63848D01*
X93225Y-63858D01*
X93141Y-64017D02*
X93141Y-63952D01*
X93244Y-63952D02*
X93047Y-63952D01*
X93047Y-64045D01*
X93038Y-64261D02*
X93291Y-64092D01*
X93047Y-64411D02*
X93047Y-64374D01*
X93057Y-64355D01*
X93066Y-64346D01*
X93094Y-64327D01*
X93132Y-64317D01*
X93207Y-64317D01*
X93225Y-64327D01*
X93235Y-64336D01*
X93244Y-64355D01*
X93244Y-64392D01*
X93235Y-64411D01*
X93225Y-64421D01*
X93207Y-64430D01*
X93160Y-64430D01*
X93141Y-64421D01*
X93132Y-64411D01*
X93122Y-64392D01*
X93122Y-64355D01*
X93132Y-64336D01*
X93141Y-64327D01*
X93160Y-64317D01*
X93225Y-64514D02*
X93235Y-64524D01*
X93244Y-64514D01*
X93235Y-64505D01*
X93225Y-64514D01*
X93244Y-64514D01*
X93047Y-64589D02*
X93047Y-64711D01*
X93122Y-64646D01*
X93122Y-64674D01*
X93132Y-64693D01*
X93141Y-64702D01*
X93160Y-64711D01*
X93207Y-64711D01*
X93225Y-64702D01*
X93235Y-64693D01*
X93244Y-64674D01*
X93244Y-64618D01*
X93235Y-64599D01*
X93225Y-64589D01*
X93047Y-64768D02*
X93244Y-64833D01*
X93047Y-64899D01*
X94660Y-62987D02*
X94670Y-62977D01*
X94679Y-62949D01*
X94679Y-62930D01*
X94670Y-62902D01*
X94651Y-62883D01*
X94632Y-62874D01*
X94595Y-62865D01*
X94567Y-62865D01*
X94529Y-62874D01*
X94510Y-62883D01*
X94492Y-62902D01*
X94482Y-62930D01*
X94482Y-62949D01*
X94492Y-62977D01*
X94501Y-62987D01*
X94501Y-63062D02*
X94492Y-63071D01*
X94482Y-63090D01*
X94482Y-63137D01*
X94492Y-63156D01*
X94501Y-63165D01*
X94520Y-63174D01*
X94539Y-63174D01*
X94567Y-63165D01*
X94679Y-63052D01*
X94679Y-63174D01*
X94954Y-62715D02*
X94954Y-62602D01*
X94954Y-62658D02*
X94757Y-62658D01*
X94785Y-62640D01*
X94804Y-62621D01*
X94814Y-62602D01*
X94757Y-62837D02*
X94757Y-62855D01*
X94767Y-62874D01*
X94776Y-62883D01*
X94795Y-62893D01*
X94832Y-62902D01*
X94879Y-62902D01*
X94917Y-62893D01*
X94935Y-62883D01*
X94945Y-62874D01*
X94954Y-62855D01*
X94954Y-62837D01*
X94945Y-62818D01*
X94935Y-62808D01*
X94917Y-62799D01*
X94879Y-62790D01*
X94832Y-62790D01*
X94795Y-62799D01*
X94776Y-62808D01*
X94767Y-62818D01*
X94757Y-62837D01*
X94757Y-63024D02*
X94757Y-63043D01*
X94767Y-63062D01*
X94776Y-63071D01*
X94795Y-63080D01*
X94832Y-63090D01*
X94879Y-63090D01*
X94917Y-63080D01*
X94935Y-63071D01*
X94945Y-63062D01*
X94954Y-63043D01*
X94954Y-63024D01*
X94945Y-63005D01*
X94935Y-62996D01*
X94917Y-62987D01*
X94879Y-62977D01*
X94832Y-62977D01*
X94795Y-62987D01*
X94776Y-62996D01*
X94767Y-63005D01*
X94757Y-63024D01*
X94823Y-63174D02*
X94954Y-63174D01*
X94842Y-63174D02*
X94832Y-63184D01*
X94823Y-63202D01*
X94823Y-63231D01*
X94832Y-63249D01*
X94851Y-63259D01*
X94954Y-63259D01*
X94851Y-63418D02*
X94851Y-63353D01*
X94954Y-63353D02*
X94757Y-63353D01*
X94757Y-63446D01*
X88322Y-72545D02*
X88332Y-72555D01*
X88360Y-72564D01*
X88379Y-72564D01*
X88407Y-72555D01*
X88426Y-72536D01*
X88435Y-72517D01*
X88444Y-72480D01*
X88444Y-72452D01*
X88435Y-72414D01*
X88426Y-72395D01*
X88407Y-72377D01*
X88379Y-72367D01*
X88360Y-72367D01*
X88332Y-72377D01*
X88322Y-72386D01*
X88257Y-72367D02*
X88135Y-72367D01*
X88200Y-72442D01*
X88172Y-72442D01*
X88153Y-72452D01*
X88144Y-72461D01*
X88135Y-72480D01*
X88135Y-72527D01*
X88144Y-72545D01*
X88153Y-72555D01*
X88172Y-72564D01*
X88229Y-72564D01*
X88247Y-72555D01*
X88257Y-72545D01*
X88923Y-72289D02*
X89035Y-72289D01*
X88979Y-72289D02*
X88979Y-72092D01*
X88998Y-72120D01*
X89017Y-72139D01*
X89035Y-72149D01*
X88801Y-72092D02*
X88782Y-72092D01*
X88763Y-72102D01*
X88754Y-72111D01*
X88744Y-72130D01*
X88735Y-72167D01*
X88735Y-72214D01*
X88744Y-72252D01*
X88754Y-72270D01*
X88763Y-72280D01*
X88782Y-72289D01*
X88801Y-72289D01*
X88820Y-72280D01*
X88829Y-72270D01*
X88838Y-72252D01*
X88848Y-72214D01*
X88848Y-72167D01*
X88838Y-72130D01*
X88829Y-72111D01*
X88820Y-72102D01*
X88801Y-72092D01*
X88566Y-72158D02*
X88566Y-72289D01*
X88651Y-72158D02*
X88651Y-72261D01*
X88641Y-72280D01*
X88623Y-72289D01*
X88594Y-72289D01*
X88576Y-72280D01*
X88566Y-72270D01*
X88407Y-72186D02*
X88472Y-72186D01*
X88472Y-72289D02*
X88472Y-72092D01*
X88379Y-72092D01*
X88163Y-72083D02*
X88332Y-72336D01*
X88013Y-72092D02*
X88050Y-72092D01*
X88069Y-72102D01*
X88078Y-72111D01*
X88097Y-72139D01*
X88107Y-72177D01*
X88107Y-72252D01*
X88097Y-72270D01*
X88088Y-72280D01*
X88069Y-72289D01*
X88032Y-72289D01*
X88013Y-72280D01*
X88003Y-72270D01*
X87994Y-72252D01*
X87994Y-72205D01*
X88003Y-72186D01*
X88013Y-72177D01*
X88032Y-72167D01*
X88069Y-72167D01*
X88088Y-72177D01*
X88097Y-72186D01*
X88107Y-72205D01*
X87910Y-72270D02*
X87900Y-72280D01*
X87910Y-72289D01*
X87919Y-72280D01*
X87910Y-72270D01*
X87910Y-72289D01*
X87835Y-72092D02*
X87713Y-72092D01*
X87778Y-72167D01*
X87750Y-72167D01*
X87731Y-72177D01*
X87722Y-72186D01*
X87713Y-72205D01*
X87713Y-72252D01*
X87722Y-72270D01*
X87731Y-72280D01*
X87750Y-72289D01*
X87806Y-72289D01*
X87825Y-72280D01*
X87835Y-72270D01*
X87656Y-72092D02*
X87591Y-72289D01*
X87525Y-72092D01*
X89872Y-72125D02*
X89882Y-72135D01*
X89910Y-72144D01*
X89929Y-72144D01*
X89957Y-72135D01*
X89976Y-72116D01*
X89985Y-72097D01*
X89994Y-72060D01*
X89994Y-72032D01*
X89985Y-71994D01*
X89976Y-71975D01*
X89957Y-71957D01*
X89929Y-71947D01*
X89910Y-71947D01*
X89882Y-71957D01*
X89872Y-71966D01*
X89703Y-72013D02*
X89703Y-72144D01*
X89750Y-71938D02*
X89797Y-72079D01*
X89675Y-72079D01*
X90144Y-71869D02*
X90257Y-71869D01*
X90201Y-71869D02*
X90201Y-71672D01*
X90219Y-71700D01*
X90238Y-71719D01*
X90257Y-71729D01*
X90022Y-71672D02*
X90004Y-71672D01*
X89985Y-71682D01*
X89976Y-71691D01*
X89966Y-71710D01*
X89957Y-71747D01*
X89957Y-71794D01*
X89966Y-71832D01*
X89976Y-71850D01*
X89985Y-71860D01*
X90004Y-71869D01*
X90022Y-71869D01*
X90041Y-71860D01*
X90051Y-71850D01*
X90060Y-71832D01*
X90069Y-71794D01*
X90069Y-71747D01*
X90060Y-71710D01*
X90051Y-71691D01*
X90041Y-71682D01*
X90022Y-71672D01*
X89835Y-71672D02*
X89816Y-71672D01*
X89797Y-71682D01*
X89788Y-71691D01*
X89779Y-71710D01*
X89769Y-71747D01*
X89769Y-71794D01*
X89779Y-71832D01*
X89788Y-71850D01*
X89797Y-71860D01*
X89816Y-71869D01*
X89835Y-71869D01*
X89854Y-71860D01*
X89863Y-71850D01*
X89872Y-71832D01*
X89882Y-71794D01*
X89882Y-71747D01*
X89872Y-71710D01*
X89863Y-71691D01*
X89854Y-71682D01*
X89835Y-71672D01*
X89685Y-71738D02*
X89685Y-71869D01*
X89685Y-71757D02*
X89675Y-71747D01*
X89657Y-71738D01*
X89628Y-71738D01*
X89610Y-71747D01*
X89600Y-71766D01*
X89600Y-71869D01*
X89441Y-71766D02*
X89506Y-71766D01*
X89506Y-71869D02*
X89506Y-71672D01*
X89413Y-71672D01*
X91157Y-72775D02*
X91167Y-72785D01*
X91195Y-72794D01*
X91214Y-72794D01*
X91242Y-72785D01*
X91261Y-72766D01*
X91270Y-72747D01*
X91279Y-72710D01*
X91279Y-72682D01*
X91270Y-72644D01*
X91261Y-72625D01*
X91242Y-72607D01*
X91214Y-72597D01*
X91195Y-72597D01*
X91167Y-72607D01*
X91157Y-72616D01*
X90979Y-72597D02*
X91073Y-72597D01*
X91082Y-72691D01*
X91073Y-72682D01*
X91054Y-72672D01*
X91007Y-72672D01*
X90988Y-72682D01*
X90979Y-72691D01*
X90970Y-72710D01*
X90970Y-72757D01*
X90979Y-72775D01*
X90988Y-72785D01*
X91007Y-72794D01*
X91054Y-72794D01*
X91073Y-72785D01*
X91082Y-72775D01*
X91429Y-73069D02*
X91542Y-73069D01*
X91486Y-73069D02*
X91486Y-72872D01*
X91504Y-72900D01*
X91523Y-72919D01*
X91542Y-72929D01*
X91307Y-72872D02*
X91289Y-72872D01*
X91270Y-72882D01*
X91261Y-72891D01*
X91251Y-72910D01*
X91242Y-72947D01*
X91242Y-72994D01*
X91251Y-73032D01*
X91261Y-73050D01*
X91270Y-73060D01*
X91289Y-73069D01*
X91307Y-73069D01*
X91326Y-73060D01*
X91336Y-73050D01*
X91345Y-73032D01*
X91354Y-72994D01*
X91354Y-72947D01*
X91345Y-72910D01*
X91336Y-72891D01*
X91326Y-72882D01*
X91307Y-72872D01*
X91120Y-72872D02*
X91101Y-72872D01*
X91082Y-72882D01*
X91073Y-72891D01*
X91064Y-72910D01*
X91054Y-72947D01*
X91054Y-72994D01*
X91064Y-73032D01*
X91073Y-73050D01*
X91082Y-73060D01*
X91101Y-73069D01*
X91120Y-73069D01*
X91139Y-73060D01*
X91148Y-73050D01*
X91157Y-73032D01*
X91167Y-72994D01*
X91167Y-72947D01*
X91157Y-72910D01*
X91148Y-72891D01*
X91139Y-72882D01*
X91120Y-72872D01*
X90970Y-72938D02*
X90970Y-73069D01*
X90970Y-72957D02*
X90960Y-72947D01*
X90942Y-72938D01*
X90913Y-72938D01*
X90895Y-72947D01*
X90885Y-72966D01*
X90885Y-73069D01*
X90726Y-72966D02*
X90791Y-72966D01*
X90791Y-73069D02*
X90791Y-72872D01*
X90698Y-72872D01*
X83245Y-73917D02*
X83255Y-73907D01*
X83264Y-73879D01*
X83264Y-73860D01*
X83255Y-73832D01*
X83236Y-73813D01*
X83217Y-73804D01*
X83180Y-73795D01*
X83152Y-73795D01*
X83114Y-73804D01*
X83095Y-73813D01*
X83077Y-73832D01*
X83067Y-73860D01*
X83067Y-73879D01*
X83077Y-73907D01*
X83086Y-73917D01*
X83067Y-74086D02*
X83067Y-74048D01*
X83077Y-74029D01*
X83086Y-74020D01*
X83114Y-74001D01*
X83152Y-73992D01*
X83227Y-73992D01*
X83245Y-74001D01*
X83255Y-74010D01*
X83264Y-74029D01*
X83264Y-74067D01*
X83255Y-74086D01*
X83245Y-74095D01*
X83227Y-74104D01*
X83180Y-74104D01*
X83161Y-74095D01*
X83152Y-74086D01*
X83142Y-74067D01*
X83142Y-74029D01*
X83152Y-74010D01*
X83161Y-74001D01*
X83180Y-73992D01*
X83539Y-73645D02*
X83539Y-73532D01*
X83539Y-73588D02*
X83342Y-73588D01*
X83370Y-73570D01*
X83389Y-73551D01*
X83399Y-73532D01*
X83342Y-73767D02*
X83342Y-73785D01*
X83352Y-73804D01*
X83361Y-73813D01*
X83380Y-73823D01*
X83417Y-73832D01*
X83464Y-73832D01*
X83502Y-73823D01*
X83520Y-73813D01*
X83530Y-73804D01*
X83539Y-73785D01*
X83539Y-73767D01*
X83530Y-73748D01*
X83520Y-73738D01*
X83502Y-73729D01*
X83464Y-73720D01*
X83417Y-73720D01*
X83380Y-73729D01*
X83361Y-73738D01*
X83352Y-73748D01*
X83342Y-73767D01*
X83342Y-73954D02*
X83342Y-73973D01*
X83352Y-73992D01*
X83361Y-74001D01*
X83380Y-74010D01*
X83417Y-74020D01*
X83464Y-74020D01*
X83502Y-74010D01*
X83520Y-74001D01*
X83530Y-73992D01*
X83539Y-73973D01*
X83539Y-73954D01*
X83530Y-73935D01*
X83520Y-73926D01*
X83502Y-73917D01*
X83464Y-73907D01*
X83417Y-73907D01*
X83380Y-73917D01*
X83361Y-73926D01*
X83352Y-73935D01*
X83342Y-73954D01*
X83408Y-74104D02*
X83539Y-74104D01*
X83427Y-74104D02*
X83417Y-74114D01*
X83408Y-74132D01*
X83408Y-74161D01*
X83417Y-74179D01*
X83436Y-74189D01*
X83539Y-74189D01*
X83436Y-74348D02*
X83436Y-74283D01*
X83539Y-74283D02*
X83342Y-74283D01*
X83342Y-74376D01*
X86705Y-73687D02*
X86715Y-73677D01*
X86724Y-73649D01*
X86724Y-73630D01*
X86715Y-73602D01*
X86696Y-73583D01*
X86677Y-73574D01*
X86640Y-73565D01*
X86612Y-73565D01*
X86574Y-73574D01*
X86555Y-73583D01*
X86537Y-73602D01*
X86527Y-73630D01*
X86527Y-73649D01*
X86537Y-73677D01*
X86546Y-73687D01*
X86527Y-73752D02*
X86527Y-73884D01*
X86724Y-73799D01*
X86999Y-73415D02*
X86999Y-73302D01*
X86999Y-73358D02*
X86802Y-73358D01*
X86830Y-73340D01*
X86849Y-73321D01*
X86859Y-73302D01*
X86802Y-73537D02*
X86802Y-73555D01*
X86812Y-73574D01*
X86821Y-73583D01*
X86840Y-73593D01*
X86877Y-73602D01*
X86924Y-73602D01*
X86962Y-73593D01*
X86980Y-73583D01*
X86990Y-73574D01*
X86999Y-73555D01*
X86999Y-73537D01*
X86990Y-73518D01*
X86980Y-73508D01*
X86962Y-73499D01*
X86924Y-73490D01*
X86877Y-73490D01*
X86840Y-73499D01*
X86821Y-73508D01*
X86812Y-73518D01*
X86802Y-73537D01*
X86802Y-73724D02*
X86802Y-73743D01*
X86812Y-73762D01*
X86821Y-73771D01*
X86840Y-73780D01*
X86877Y-73790D01*
X86924Y-73790D01*
X86962Y-73780D01*
X86980Y-73771D01*
X86990Y-73762D01*
X86999Y-73743D01*
X86999Y-73724D01*
X86990Y-73705D01*
X86980Y-73696D01*
X86962Y-73687D01*
X86924Y-73677D01*
X86877Y-73677D01*
X86840Y-73687D01*
X86821Y-73696D01*
X86812Y-73705D01*
X86802Y-73724D01*
X86868Y-73874D02*
X86999Y-73874D01*
X86887Y-73874D02*
X86877Y-73884D01*
X86868Y-73902D01*
X86868Y-73931D01*
X86877Y-73949D01*
X86896Y-73959D01*
X86999Y-73959D01*
X86896Y-74118D02*
X86896Y-74053D01*
X86999Y-74053D02*
X86802Y-74053D01*
X86802Y-74146D01*
X91157Y-72070D02*
X91167Y-72080D01*
X91195Y-72089D01*
X91214Y-72089D01*
X91242Y-72080D01*
X91261Y-72061D01*
X91270Y-72042D01*
X91279Y-72005D01*
X91279Y-71977D01*
X91270Y-71939D01*
X91261Y-71920D01*
X91242Y-71902D01*
X91214Y-71892D01*
X91195Y-71892D01*
X91167Y-71902D01*
X91157Y-71911D01*
X91045Y-71977D02*
X91064Y-71967D01*
X91073Y-71958D01*
X91082Y-71939D01*
X91082Y-71930D01*
X91073Y-71911D01*
X91064Y-71902D01*
X91045Y-71892D01*
X91007Y-71892D01*
X90988Y-71902D01*
X90979Y-71911D01*
X90970Y-71930D01*
X90970Y-71939D01*
X90979Y-71958D01*
X90988Y-71967D01*
X91007Y-71977D01*
X91045Y-71977D01*
X91064Y-71986D01*
X91073Y-71995D01*
X91082Y-72014D01*
X91082Y-72052D01*
X91073Y-72070D01*
X91064Y-72080D01*
X91045Y-72089D01*
X91007Y-72089D01*
X90988Y-72080D01*
X90979Y-72070D01*
X90970Y-72052D01*
X90970Y-72014D01*
X90979Y-71995D01*
X90988Y-71986D01*
X91007Y-71977D01*
X91429Y-72364D02*
X91542Y-72364D01*
X91486Y-72364D02*
X91486Y-72167D01*
X91504Y-72195D01*
X91523Y-72214D01*
X91542Y-72224D01*
X91307Y-72167D02*
X91289Y-72167D01*
X91270Y-72177D01*
X91261Y-72186D01*
X91251Y-72205D01*
X91242Y-72242D01*
X91242Y-72289D01*
X91251Y-72327D01*
X91261Y-72345D01*
X91270Y-72355D01*
X91289Y-72364D01*
X91307Y-72364D01*
X91326Y-72355D01*
X91336Y-72345D01*
X91345Y-72327D01*
X91354Y-72289D01*
X91354Y-72242D01*
X91345Y-72205D01*
X91336Y-72186D01*
X91326Y-72177D01*
X91307Y-72167D01*
X91120Y-72167D02*
X91101Y-72167D01*
X91082Y-72177D01*
X91073Y-72186D01*
X91064Y-72205D01*
X91054Y-72242D01*
X91054Y-72289D01*
X91064Y-72327D01*
X91073Y-72345D01*
X91082Y-72355D01*
X91101Y-72364D01*
X91120Y-72364D01*
X91139Y-72355D01*
X91148Y-72345D01*
X91157Y-72327D01*
X91167Y-72289D01*
X91167Y-72242D01*
X91157Y-72205D01*
X91148Y-72186D01*
X91139Y-72177D01*
X91120Y-72167D01*
X90970Y-72233D02*
X90970Y-72364D01*
X90970Y-72252D02*
X90960Y-72242D01*
X90942Y-72233D01*
X90913Y-72233D01*
X90895Y-72242D01*
X90885Y-72261D01*
X90885Y-72364D01*
X90726Y-72261D02*
X90791Y-72261D01*
X90791Y-72364D02*
X90791Y-72167D01*
X90698Y-72167D01*
X85942Y-64109D02*
X86008Y-64015D01*
X86055Y-64109D02*
X86055Y-63912D01*
X85980Y-63912D01*
X85961Y-63922D01*
X85952Y-63931D01*
X85942Y-63950D01*
X85942Y-63978D01*
X85952Y-63997D01*
X85961Y-64006D01*
X85980Y-64015D01*
X86055Y-64015D01*
X85755Y-64109D02*
X85867Y-64109D01*
X85811Y-64109D02*
X85811Y-63912D01*
X85830Y-63940D01*
X85849Y-63959D01*
X85867Y-63969D01*
X86041Y-63834D02*
X86153Y-63834D01*
X86097Y-63834D02*
X86097Y-63637D01*
X86116Y-63665D01*
X86135Y-63684D01*
X86153Y-63694D01*
X85966Y-63656D02*
X85956Y-63647D01*
X85938Y-63637D01*
X85891Y-63637D01*
X85872Y-63647D01*
X85863Y-63656D01*
X85853Y-63675D01*
X85853Y-63694D01*
X85863Y-63722D01*
X85975Y-63834D01*
X85853Y-63834D01*
X85731Y-63637D02*
X85713Y-63637D01*
X85694Y-63647D01*
X85684Y-63656D01*
X85675Y-63675D01*
X85666Y-63712D01*
X85666Y-63759D01*
X85675Y-63797D01*
X85684Y-63815D01*
X85694Y-63825D01*
X85713Y-63834D01*
X85731Y-63834D01*
X85750Y-63825D01*
X85759Y-63815D01*
X85769Y-63797D01*
X85778Y-63759D01*
X85778Y-63712D01*
X85769Y-63675D01*
X85759Y-63656D01*
X85750Y-63647D01*
X85731Y-63637D01*
X85656Y-72045D02*
X85666Y-72055D01*
X85694Y-72064D01*
X85712Y-72064D01*
X85741Y-72055D01*
X85759Y-72036D01*
X85769Y-72017D01*
X85778Y-71980D01*
X85778Y-71952D01*
X85769Y-71914D01*
X85759Y-71895D01*
X85741Y-71877D01*
X85712Y-71867D01*
X85694Y-71867D01*
X85666Y-71877D01*
X85656Y-71886D01*
X85581Y-71886D02*
X85572Y-71877D01*
X85553Y-71867D01*
X85506Y-71867D01*
X85487Y-71877D01*
X85478Y-71886D01*
X85469Y-71905D01*
X85469Y-71924D01*
X85478Y-71952D01*
X85590Y-72064D01*
X85469Y-72064D01*
X85347Y-71867D02*
X85328Y-71867D01*
X85309Y-71877D01*
X85300Y-71886D01*
X85290Y-71905D01*
X85281Y-71942D01*
X85281Y-71989D01*
X85290Y-72027D01*
X85300Y-72045D01*
X85309Y-72055D01*
X85328Y-72064D01*
X85347Y-72064D01*
X85365Y-72055D01*
X85375Y-72045D01*
X85384Y-72027D01*
X85393Y-71989D01*
X85393Y-71942D01*
X85384Y-71905D01*
X85375Y-71886D01*
X85365Y-71877D01*
X85347Y-71867D01*
X86275Y-72161D02*
X86266Y-72152D01*
X86247Y-72142D01*
X86200Y-72142D01*
X86181Y-72152D01*
X86172Y-72161D01*
X86163Y-72180D01*
X86163Y-72199D01*
X86172Y-72227D01*
X86285Y-72339D01*
X86163Y-72339D01*
X86088Y-72161D02*
X86078Y-72152D01*
X86060Y-72142D01*
X86013Y-72142D01*
X85994Y-72152D01*
X85984Y-72161D01*
X85975Y-72180D01*
X85975Y-72199D01*
X85984Y-72227D01*
X86097Y-72339D01*
X85975Y-72339D01*
X85806Y-72208D02*
X85806Y-72339D01*
X85891Y-72208D02*
X85891Y-72311D01*
X85881Y-72330D01*
X85863Y-72339D01*
X85834Y-72339D01*
X85816Y-72330D01*
X85806Y-72320D01*
X85647Y-72236D02*
X85712Y-72236D01*
X85712Y-72339D02*
X85712Y-72142D01*
X85619Y-72142D01*
X85403Y-72133D02*
X85572Y-72386D01*
X85253Y-72142D02*
X85290Y-72142D01*
X85309Y-72152D01*
X85318Y-72161D01*
X85337Y-72189D01*
X85347Y-72227D01*
X85347Y-72302D01*
X85337Y-72320D01*
X85328Y-72330D01*
X85309Y-72339D01*
X85272Y-72339D01*
X85253Y-72330D01*
X85243Y-72320D01*
X85234Y-72302D01*
X85234Y-72255D01*
X85243Y-72236D01*
X85253Y-72227D01*
X85272Y-72217D01*
X85309Y-72217D01*
X85328Y-72227D01*
X85337Y-72236D01*
X85347Y-72255D01*
X85150Y-72320D02*
X85140Y-72330D01*
X85150Y-72339D01*
X85159Y-72330D01*
X85150Y-72320D01*
X85150Y-72339D01*
X85075Y-72142D02*
X84953Y-72142D01*
X85018Y-72217D01*
X84990Y-72217D01*
X84971Y-72227D01*
X84962Y-72236D01*
X84953Y-72255D01*
X84953Y-72302D01*
X84962Y-72320D01*
X84971Y-72330D01*
X84990Y-72339D01*
X85046Y-72339D01*
X85065Y-72330D01*
X85075Y-72320D01*
X84896Y-72142D02*
X84831Y-72339D01*
X84765Y-72142D01*
G54D10*
X96680Y-63568D02*
X96961Y-63568D01*
X97018Y-63550D01*
X97055Y-63512D01*
X97074Y-63456D01*
X97074Y-63418D01*
X96811Y-63924D02*
X97074Y-63924D01*
X96661Y-63831D02*
X96943Y-63737D01*
X96943Y-63981D01*
X97074Y-60653D02*
X96680Y-60653D01*
X96961Y-60784D01*
X96680Y-60915D01*
X97074Y-60915D01*
X97074Y-61103D02*
X96680Y-61103D01*
X97036Y-61515D02*
X97055Y-61497D01*
X97074Y-61440D01*
X97074Y-61403D01*
X97055Y-61347D01*
X97018Y-61309D01*
X96980Y-61290D01*
X96905Y-61272D01*
X96849Y-61272D01*
X96774Y-61290D01*
X96736Y-61309D01*
X96699Y-61347D01*
X96680Y-61403D01*
X96680Y-61440D01*
X96699Y-61497D01*
X96718Y-61515D01*
X97074Y-61909D02*
X96886Y-61778D01*
X97074Y-61684D02*
X96680Y-61684D01*
X96680Y-61834D01*
X96699Y-61872D01*
X96718Y-61890D01*
X96755Y-61909D01*
X96811Y-61909D01*
X96849Y-61890D01*
X96868Y-61872D01*
X96886Y-61834D01*
X96886Y-61684D01*
X96680Y-62153D02*
X96680Y-62228D01*
X96699Y-62265D01*
X96736Y-62303D01*
X96811Y-62322D01*
X96943Y-62322D01*
X97018Y-62303D01*
X97055Y-62265D01*
X97074Y-62228D01*
X97074Y-62153D01*
X97055Y-62115D01*
X97018Y-62078D01*
X96943Y-62059D01*
X96811Y-62059D01*
X96736Y-62078D01*
X96699Y-62115D01*
X96680Y-62153D01*
X97055Y-62472D02*
X97074Y-62528D01*
X97074Y-62622D01*
X97055Y-62659D01*
X97036Y-62678D01*
X96999Y-62697D01*
X96961Y-62697D01*
X96924Y-62678D01*
X96905Y-62659D01*
X96886Y-62622D01*
X96868Y-62547D01*
X96849Y-62509D01*
X96830Y-62490D01*
X96793Y-62472D01*
X96755Y-62472D01*
X96718Y-62490D01*
X96699Y-62509D01*
X96680Y-62547D01*
X96680Y-62640D01*
X96699Y-62697D01*
X97074Y-62865D02*
X96680Y-62865D01*
X96680Y-62959D01*
X96699Y-63015D01*
X96736Y-63053D01*
X96774Y-63071D01*
X96849Y-63090D01*
X96905Y-63090D01*
X96980Y-63071D01*
X97018Y-63053D01*
X97055Y-63015D01*
X97074Y-62959D01*
X97074Y-62865D01*
X97111Y-63165D02*
X97111Y-63465D01*
X97055Y-63540D02*
X97074Y-63596D01*
X97074Y-63690D01*
X97055Y-63728D01*
X97036Y-63746D01*
X96999Y-63765D01*
X96961Y-63765D01*
X96924Y-63746D01*
X96905Y-63728D01*
X96886Y-63690D01*
X96868Y-63615D01*
X96849Y-63578D01*
X96830Y-63559D01*
X96793Y-63540D01*
X96755Y-63540D01*
X96718Y-63559D01*
X96699Y-63578D01*
X96680Y-63615D01*
X96680Y-63709D01*
X96699Y-63765D01*
X97074Y-63934D02*
X96680Y-63934D01*
X97074Y-64121D02*
X96680Y-64121D01*
X96961Y-64253D01*
X96680Y-64384D01*
X97074Y-64384D01*
X97111Y-64478D02*
X97111Y-64777D01*
X97036Y-65096D02*
X97055Y-65077D01*
X97074Y-65021D01*
X97074Y-64984D01*
X97055Y-64927D01*
X97018Y-64890D01*
X96980Y-64871D01*
X96905Y-64852D01*
X96849Y-64852D01*
X96774Y-64871D01*
X96736Y-64890D01*
X96699Y-64927D01*
X96680Y-64984D01*
X96680Y-65021D01*
X96699Y-65077D01*
X96718Y-65096D01*
X96680Y-65340D02*
X96680Y-65415D01*
X96699Y-65452D01*
X96736Y-65490D01*
X96811Y-65509D01*
X96943Y-65509D01*
X97018Y-65490D01*
X97055Y-65452D01*
X97074Y-65415D01*
X97074Y-65340D01*
X97055Y-65302D01*
X97018Y-65265D01*
X96943Y-65246D01*
X96811Y-65246D01*
X96736Y-65265D01*
X96699Y-65302D01*
X96680Y-65340D01*
X97074Y-65677D02*
X96680Y-65677D01*
X96961Y-65809D01*
X96680Y-65940D01*
X97074Y-65940D01*
X96868Y-66259D02*
X96886Y-66315D01*
X96905Y-66334D01*
X96943Y-66352D01*
X96999Y-66352D01*
X97036Y-66334D01*
X97055Y-66315D01*
X97074Y-66277D01*
X97074Y-66127D01*
X96680Y-66127D01*
X96680Y-66259D01*
X96699Y-66296D01*
X96718Y-66315D01*
X96755Y-66334D01*
X96793Y-66334D01*
X96830Y-66315D01*
X96849Y-66296D01*
X96868Y-66259D01*
X96868Y-66127D01*
X96680Y-66596D02*
X96680Y-66671D01*
X96699Y-66708D01*
X96736Y-66746D01*
X96811Y-66765D01*
X96943Y-66765D01*
X97018Y-66746D01*
X97055Y-66708D01*
X97074Y-66671D01*
X97074Y-66596D01*
X97055Y-66559D01*
X97018Y-66521D01*
X96943Y-66502D01*
X96811Y-66502D01*
X96736Y-66521D01*
X96699Y-66559D01*
X96680Y-66596D01*
X78910Y-72582D02*
X78700Y-72897D01*
X78700Y-72582D02*
X78910Y-72897D01*
X78415Y-72897D02*
X78595Y-72897D01*
X78505Y-72897D02*
X78505Y-72582D01*
X78535Y-72627D01*
X78565Y-72657D01*
X78595Y-72672D01*
X83539Y-71628D02*
X83569Y-71613D01*
X83599Y-71583D01*
X83644Y-71538D01*
X83674Y-71523D01*
X83704Y-71523D01*
X83689Y-71598D02*
X83719Y-71583D01*
X83749Y-71553D01*
X83764Y-71493D01*
X83764Y-71388D01*
X83749Y-71328D01*
X83719Y-71298D01*
X83689Y-71283D01*
X83629Y-71283D01*
X83599Y-71298D01*
X83569Y-71328D01*
X83554Y-71388D01*
X83554Y-71493D01*
X83569Y-71553D01*
X83599Y-71583D01*
X83629Y-71598D01*
X83689Y-71598D01*
X83434Y-71313D02*
X83419Y-71298D01*
X83389Y-71283D01*
X83314Y-71283D01*
X83284Y-71298D01*
X83269Y-71313D01*
X83254Y-71343D01*
X83254Y-71373D01*
X83269Y-71418D01*
X83449Y-71598D01*
X83254Y-71598D01*
X82984Y-71388D02*
X82984Y-71598D01*
X83059Y-71268D02*
X83134Y-71493D01*
X82939Y-71493D01*
X82819Y-71568D02*
X82804Y-71583D01*
X82819Y-71598D01*
X82834Y-71583D01*
X82819Y-71568D01*
X82819Y-71598D01*
X82609Y-71283D02*
X82579Y-71283D01*
X82549Y-71298D01*
X82534Y-71313D01*
X82519Y-71343D01*
X82504Y-71403D01*
X82504Y-71478D01*
X82519Y-71538D01*
X82534Y-71568D01*
X82549Y-71583D01*
X82579Y-71598D01*
X82609Y-71598D01*
X82639Y-71583D01*
X82654Y-71568D01*
X82669Y-71538D01*
X82684Y-71478D01*
X82684Y-71403D01*
X82669Y-71343D01*
X82654Y-71313D01*
X82639Y-71298D01*
X82609Y-71283D01*
X82309Y-71283D02*
X82279Y-71283D01*
X82249Y-71298D01*
X82234Y-71313D01*
X82219Y-71343D01*
X82204Y-71403D01*
X82204Y-71478D01*
X82219Y-71538D01*
X82234Y-71568D01*
X82249Y-71583D01*
X82279Y-71598D01*
X82309Y-71598D01*
X82339Y-71583D01*
X82354Y-71568D01*
X82369Y-71538D01*
X82384Y-71478D01*
X82384Y-71403D01*
X82369Y-71343D01*
X82354Y-71313D01*
X82339Y-71298D01*
X82309Y-71283D01*
X82009Y-71283D02*
X81979Y-71283D01*
X81949Y-71298D01*
X81934Y-71313D01*
X81919Y-71343D01*
X81904Y-71403D01*
X81904Y-71478D01*
X81919Y-71538D01*
X81934Y-71568D01*
X81949Y-71583D01*
X81979Y-71598D01*
X82009Y-71598D01*
X82039Y-71583D01*
X82054Y-71568D01*
X82069Y-71538D01*
X82084Y-71478D01*
X82084Y-71403D01*
X82069Y-71343D01*
X82054Y-71313D01*
X82039Y-71298D01*
X82009Y-71283D01*
X81769Y-71598D02*
X81769Y-71283D01*
X81664Y-71508D01*
X81559Y-71283D01*
X81559Y-71598D01*
X81409Y-71598D02*
X81409Y-71283D01*
X81409Y-71433D02*
X81229Y-71433D01*
X81229Y-71598D02*
X81229Y-71283D01*
X81109Y-71388D02*
X80944Y-71388D01*
X81109Y-71598D01*
X80944Y-71598D01*
X80599Y-71268D02*
X80869Y-71673D01*
X80494Y-71598D02*
X80494Y-71283D01*
X80494Y-71433D02*
X80314Y-71433D01*
X80314Y-71598D02*
X80314Y-71283D01*
X79984Y-71568D02*
X79999Y-71583D01*
X80044Y-71598D01*
X80074Y-71598D01*
X80119Y-71583D01*
X80149Y-71553D01*
X80164Y-71523D01*
X80179Y-71463D01*
X80179Y-71418D01*
X80164Y-71358D01*
X80149Y-71328D01*
X80119Y-71298D01*
X80074Y-71283D01*
X80044Y-71283D01*
X79999Y-71298D01*
X79984Y-71313D01*
X79849Y-71478D02*
X79609Y-71478D01*
X79324Y-71388D02*
X79324Y-71598D01*
X79399Y-71268D02*
X79474Y-71493D01*
X79279Y-71493D01*
X79144Y-71598D02*
X79084Y-71598D01*
X79054Y-71583D01*
X79039Y-71568D01*
X79009Y-71523D01*
X78994Y-71463D01*
X78994Y-71343D01*
X79009Y-71313D01*
X79024Y-71298D01*
X79054Y-71283D01*
X79114Y-71283D01*
X79144Y-71298D01*
X79159Y-71313D01*
X79174Y-71343D01*
X79174Y-71418D01*
X79159Y-71448D01*
X79144Y-71463D01*
X79114Y-71478D01*
X79054Y-71478D01*
X79024Y-71463D01*
X79009Y-71448D01*
X78994Y-71418D01*
X78874Y-71583D02*
X78829Y-71598D01*
X78754Y-71598D01*
X78724Y-71583D01*
X78709Y-71568D01*
X78695Y-71538D01*
X78695Y-71508D01*
X78709Y-71478D01*
X78724Y-71463D01*
X78754Y-71448D01*
X78814Y-71433D01*
X78844Y-71418D01*
X78859Y-71403D01*
X78874Y-71373D01*
X78874Y-71343D01*
X78859Y-71313D01*
X78844Y-71298D01*
X78814Y-71283D01*
X78739Y-71283D01*
X78695Y-71298D01*
X78560Y-71598D02*
X78560Y-71283D01*
X78455Y-71508D01*
X78350Y-71283D01*
X78350Y-71598D01*
X77975Y-71268D02*
X78245Y-71673D01*
X77885Y-71583D02*
X77840Y-71598D01*
X77765Y-71598D01*
X77735Y-71583D01*
X77720Y-71568D01*
X77705Y-71538D01*
X77705Y-71508D01*
X77720Y-71478D01*
X77735Y-71463D01*
X77765Y-71448D01*
X77825Y-71433D01*
X77855Y-71418D01*
X77870Y-71403D01*
X77885Y-71373D01*
X77885Y-71343D01*
X77870Y-71313D01*
X77855Y-71298D01*
X77825Y-71283D01*
X77750Y-71283D01*
X77705Y-71298D01*
X77570Y-71598D02*
X77570Y-71283D01*
X77465Y-71508D01*
X77360Y-71283D01*
X77360Y-71598D01*
X77210Y-71598D02*
X77210Y-71283D01*
X77135Y-71283D01*
X77090Y-71298D01*
X77060Y-71328D01*
X77045Y-71358D01*
X77030Y-71418D01*
X77030Y-71463D01*
X77045Y-71523D01*
X77060Y-71553D01*
X77090Y-71583D01*
X77135Y-71598D01*
X77210Y-71598D01*
X76670Y-71268D02*
X76940Y-71673D01*
X76580Y-71313D02*
X76565Y-71298D01*
X76535Y-71283D01*
X76460Y-71283D01*
X76430Y-71298D01*
X76415Y-71313D01*
X76400Y-71343D01*
X76400Y-71373D01*
X76415Y-71418D01*
X76595Y-71598D01*
X76400Y-71598D01*
X76205Y-71283D02*
X76175Y-71283D01*
X76145Y-71298D01*
X76130Y-71313D01*
X76115Y-71343D01*
X76100Y-71403D01*
X76100Y-71478D01*
X76115Y-71538D01*
X76130Y-71568D01*
X76145Y-71583D01*
X76175Y-71598D01*
X76205Y-71598D01*
X76235Y-71583D01*
X76250Y-71568D01*
X76265Y-71538D01*
X76280Y-71478D01*
X76280Y-71403D01*
X76265Y-71343D01*
X76250Y-71313D01*
X76235Y-71298D01*
X76205Y-71283D01*
X75965Y-71388D02*
X75965Y-71703D01*
X75965Y-71403D02*
X75935Y-71388D01*
X75875Y-71388D01*
X75845Y-71403D01*
X75830Y-71418D01*
X75815Y-71448D01*
X75815Y-71538D01*
X75830Y-71568D01*
X75845Y-71583D01*
X75875Y-71598D01*
X75935Y-71598D01*
X75965Y-71583D01*
X75680Y-71388D02*
X75680Y-71703D01*
X75680Y-71403D02*
X75650Y-71388D01*
X75590Y-71388D01*
X75560Y-71403D01*
X75545Y-71418D01*
X75530Y-71448D01*
X75530Y-71538D01*
X75545Y-71568D01*
X75560Y-71583D01*
X75590Y-71598D01*
X75650Y-71598D01*
X75680Y-71583D01*
X75395Y-71598D02*
X75395Y-71388D01*
X75395Y-71418D02*
X75380Y-71403D01*
X75350Y-71388D01*
X75305Y-71388D01*
X75275Y-71403D01*
X75260Y-71433D01*
X75260Y-71598D01*
X75260Y-71433D02*
X75245Y-71403D01*
X75215Y-71388D01*
X75170Y-71388D01*
X75140Y-71403D01*
X75125Y-71433D01*
X75125Y-71598D01*
X74750Y-71268D02*
X75020Y-71673D01*
X74660Y-71313D02*
X74645Y-71298D01*
X74615Y-71283D01*
X74540Y-71283D01*
X74510Y-71298D01*
X74495Y-71313D01*
X74480Y-71343D01*
X74480Y-71373D01*
X74495Y-71418D01*
X74675Y-71598D01*
X74480Y-71598D01*
X74285Y-71283D02*
X74255Y-71283D01*
X74225Y-71298D01*
X74210Y-71313D01*
X74195Y-71343D01*
X74180Y-71403D01*
X74180Y-71478D01*
X74195Y-71538D01*
X74210Y-71568D01*
X74225Y-71583D01*
X74255Y-71598D01*
X74285Y-71598D01*
X74315Y-71583D01*
X74330Y-71568D01*
X74345Y-71538D01*
X74360Y-71478D01*
X74360Y-71403D01*
X74345Y-71343D01*
X74330Y-71313D01*
X74315Y-71298D01*
X74285Y-71283D01*
X74045Y-71388D02*
X74045Y-71703D01*
X74045Y-71403D02*
X74015Y-71388D01*
X73955Y-71388D01*
X73925Y-71403D01*
X73910Y-71418D01*
X73895Y-71448D01*
X73895Y-71538D01*
X73910Y-71568D01*
X73925Y-71583D01*
X73955Y-71598D01*
X74015Y-71598D01*
X74045Y-71583D01*
X73655Y-71433D02*
X73760Y-71433D01*
X73760Y-71598D02*
X73760Y-71283D01*
X73610Y-71283D01*
X75039Y-66194D02*
X75039Y-66006D01*
X74645Y-66006D01*
X75039Y-66531D02*
X75039Y-66306D01*
X75039Y-66419D02*
X74645Y-66419D01*
X74701Y-66381D01*
X74739Y-66344D01*
X74758Y-66306D01*
X74683Y-62529D02*
X74664Y-62547D01*
X74645Y-62585D01*
X74645Y-62679D01*
X74664Y-62716D01*
X74683Y-62735D01*
X74720Y-62754D01*
X74758Y-62754D01*
X74814Y-62735D01*
X75039Y-62510D01*
X75039Y-62754D01*
X74683Y-62904D02*
X74664Y-62922D01*
X74645Y-62960D01*
X74645Y-63054D01*
X74664Y-63091D01*
X74683Y-63110D01*
X74720Y-63129D01*
X74758Y-63129D01*
X74814Y-63110D01*
X75039Y-62885D01*
X75039Y-63129D01*
X74776Y-63466D02*
X75039Y-63466D01*
X74776Y-63297D02*
X74983Y-63297D01*
X75020Y-63316D01*
X75039Y-63354D01*
X75039Y-63410D01*
X75020Y-63447D01*
X75001Y-63466D01*
X75039Y-63654D02*
X74645Y-63654D01*
X74833Y-63654D02*
X74833Y-63879D01*
X75039Y-63879D02*
X74645Y-63879D01*
X74626Y-64347D02*
X75133Y-64010D01*
X75039Y-64685D02*
X75039Y-64460D01*
X75039Y-64572D02*
X74645Y-64572D01*
X74701Y-64535D01*
X74739Y-64497D01*
X74758Y-64460D01*
X75001Y-64853D02*
X75020Y-64872D01*
X75039Y-64853D01*
X75020Y-64835D01*
X75001Y-64853D01*
X75039Y-64853D01*
X74645Y-65228D02*
X74645Y-65041D01*
X74833Y-65022D01*
X74814Y-65041D01*
X74795Y-65078D01*
X74795Y-65172D01*
X74814Y-65210D01*
X74833Y-65228D01*
X74870Y-65247D01*
X74964Y-65247D01*
X75001Y-65228D01*
X75020Y-65210D01*
X75039Y-65172D01*
X75039Y-65078D01*
X75020Y-65041D01*
X75001Y-65022D01*
X74926Y-65397D02*
X74926Y-65585D01*
X75039Y-65360D02*
X74645Y-65491D01*
X75039Y-65622D01*
X74626Y-66035D02*
X75133Y-65697D01*
X74851Y-66241D02*
X75039Y-66241D01*
X74645Y-66110D02*
X74851Y-66241D01*
X74645Y-66372D01*
X75020Y-66484D02*
X75039Y-66541D01*
X75039Y-66634D01*
X75020Y-66672D01*
X75001Y-66691D01*
X74964Y-66709D01*
X74926Y-66709D01*
X74889Y-66691D01*
X74870Y-66672D01*
X74851Y-66634D01*
X74833Y-66559D01*
X74814Y-66522D01*
X74795Y-66503D01*
X74758Y-66484D01*
X74720Y-66484D01*
X74683Y-66503D01*
X74664Y-66522D01*
X74645Y-66559D01*
X74645Y-66653D01*
X74664Y-66709D01*
X74645Y-66841D02*
X74645Y-67103D01*
X75039Y-66934D01*
X74645Y-67441D02*
X74645Y-67253D01*
X74833Y-67234D01*
X74814Y-67253D01*
X74795Y-67291D01*
X74795Y-67384D01*
X74814Y-67422D01*
X74833Y-67441D01*
X74870Y-67459D01*
X74964Y-67459D01*
X75001Y-67441D01*
X75020Y-67422D01*
X75039Y-67384D01*
X75039Y-67291D01*
X75020Y-67253D01*
X75001Y-67234D01*
X74626Y-67909D02*
X75133Y-67572D01*
X74645Y-68003D02*
X74645Y-68265D01*
X75039Y-68097D01*
X75039Y-68378D02*
X74776Y-68584D01*
X74776Y-68378D02*
X75039Y-68584D01*
X74814Y-68790D02*
X74795Y-68753D01*
X74776Y-68734D01*
X74739Y-68715D01*
X74720Y-68715D01*
X74683Y-68734D01*
X74664Y-68753D01*
X74645Y-68790D01*
X74645Y-68865D01*
X74664Y-68903D01*
X74683Y-68922D01*
X74720Y-68940D01*
X74739Y-68940D01*
X74776Y-68922D01*
X74795Y-68903D01*
X74814Y-68865D01*
X74814Y-68790D01*
X74833Y-68753D01*
X74851Y-68734D01*
X74889Y-68715D01*
X74964Y-68715D01*
X75001Y-68734D01*
X75020Y-68753D01*
X75039Y-68790D01*
X75039Y-68865D01*
X75020Y-68903D01*
X75001Y-68922D01*
X74964Y-68940D01*
X74889Y-68940D01*
X74851Y-68922D01*
X74833Y-68903D01*
X74814Y-68865D01*
X75039Y-69109D02*
X74776Y-69109D01*
X74814Y-69109D02*
X74795Y-69128D01*
X74776Y-69165D01*
X74776Y-69222D01*
X74795Y-69259D01*
X74833Y-69278D01*
X75039Y-69278D01*
X74833Y-69278D02*
X74795Y-69297D01*
X74776Y-69334D01*
X74776Y-69390D01*
X74795Y-69428D01*
X74833Y-69447D01*
X75039Y-69447D01*
X75039Y-69634D02*
X74776Y-69634D01*
X74814Y-69634D02*
X74795Y-69653D01*
X74776Y-69690D01*
X74776Y-69747D01*
X74795Y-69784D01*
X74833Y-69803D01*
X75039Y-69803D01*
X74833Y-69803D02*
X74795Y-69822D01*
X74776Y-69859D01*
X74776Y-69915D01*
X74795Y-69953D01*
X74833Y-69972D01*
X75039Y-69972D01*
X87719Y-71015D02*
X87719Y-71334D01*
X87701Y-71371D01*
X87682Y-71390D01*
X87644Y-71409D01*
X87569Y-71409D01*
X87532Y-71390D01*
X87513Y-71371D01*
X87494Y-71334D01*
X87494Y-71015D01*
X87326Y-71053D02*
X87307Y-71034D01*
X87270Y-71015D01*
X87176Y-71015D01*
X87138Y-71034D01*
X87120Y-71053D01*
X87101Y-71090D01*
X87101Y-71128D01*
X87120Y-71184D01*
X87345Y-71409D01*
X87101Y-71409D01*
X89613Y-71409D02*
X89613Y-71015D01*
X89613Y-71203D02*
X89388Y-71203D01*
X89388Y-71409D02*
X89388Y-71015D01*
X89126Y-71221D02*
X89126Y-71409D01*
X89257Y-71015D02*
X89126Y-71221D01*
X88994Y-71015D01*
X88676Y-71015D02*
X88863Y-71015D01*
X88882Y-71203D01*
X88863Y-71184D01*
X88826Y-71165D01*
X88732Y-71165D01*
X88694Y-71184D01*
X88676Y-71203D01*
X88657Y-71240D01*
X88657Y-71334D01*
X88676Y-71371D01*
X88694Y-71390D01*
X88732Y-71409D01*
X88826Y-71409D01*
X88863Y-71390D01*
X88882Y-71371D01*
X88488Y-71409D02*
X88488Y-71015D01*
X88394Y-71015D01*
X88338Y-71034D01*
X88301Y-71071D01*
X88282Y-71109D01*
X88263Y-71184D01*
X88263Y-71240D01*
X88282Y-71315D01*
X88301Y-71353D01*
X88338Y-71390D01*
X88394Y-71409D01*
X88488Y-71409D01*
X88094Y-71015D02*
X88094Y-71334D01*
X88076Y-71371D01*
X88057Y-71390D01*
X88019Y-71409D01*
X87944Y-71409D01*
X87907Y-71390D01*
X87888Y-71371D01*
X87869Y-71334D01*
X87869Y-71015D01*
X87476Y-71409D02*
X87701Y-71409D01*
X87588Y-71409D02*
X87588Y-71015D01*
X87626Y-71071D01*
X87663Y-71109D01*
X87701Y-71128D01*
X87326Y-71053D02*
X87307Y-71034D01*
X87270Y-71015D01*
X87176Y-71015D01*
X87138Y-71034D01*
X87120Y-71053D01*
X87101Y-71090D01*
X87101Y-71128D01*
X87120Y-71184D01*
X87345Y-71409D01*
X87101Y-71409D01*
X86726Y-71409D02*
X86951Y-71409D01*
X86838Y-71409D02*
X86838Y-71015D01*
X86876Y-71071D01*
X86913Y-71109D01*
X86951Y-71128D01*
X86388Y-71015D02*
X86463Y-71015D01*
X86501Y-71034D01*
X86520Y-71053D01*
X86557Y-71109D01*
X86576Y-71184D01*
X86576Y-71334D01*
X86557Y-71371D01*
X86538Y-71390D01*
X86501Y-71409D01*
X86426Y-71409D01*
X86388Y-71390D01*
X86370Y-71371D01*
X86351Y-71334D01*
X86351Y-71240D01*
X86370Y-71203D01*
X86388Y-71184D01*
X86426Y-71165D01*
X86501Y-71165D01*
X86538Y-71184D01*
X86557Y-71203D01*
X86576Y-71240D01*
X86201Y-71053D02*
X86182Y-71034D01*
X86145Y-71015D01*
X86051Y-71015D01*
X86013Y-71034D01*
X85995Y-71053D01*
X85976Y-71090D01*
X85976Y-71128D01*
X85995Y-71184D01*
X86220Y-71409D01*
X85976Y-71409D01*
X85826Y-71053D02*
X85807Y-71034D01*
X85770Y-71015D01*
X85676Y-71015D01*
X85638Y-71034D01*
X85620Y-71053D01*
X85601Y-71090D01*
X85601Y-71128D01*
X85620Y-71184D01*
X85845Y-71409D01*
X85601Y-71409D01*
X85432Y-71409D02*
X85432Y-71015D01*
X85339Y-71015D01*
X85282Y-71034D01*
X85245Y-71071D01*
X85226Y-71109D01*
X85207Y-71184D01*
X85207Y-71240D01*
X85226Y-71315D01*
X85245Y-71353D01*
X85282Y-71390D01*
X85339Y-71409D01*
X85432Y-71409D01*
M02*
