G04 (created by PCBNEW (2013-07-07 BZR 4022)-stable) date 09/11/2014 09:40:27*
%MOIN*%
G04 Gerber Fmt 3.4, Leading zero omitted, Abs format*
%FSLAX34Y34*%
G01*
G70*
G90*
G04 APERTURE LIST*
%ADD10C,0.00590551*%
%ADD11R,0.0413386X0.0393701*%
%ADD12R,0.0866142X0.0826772*%
%ADD13R,0.0393701X0.0413386*%
%ADD14R,0.0826772X0.0866142*%
%ADD15R,0.0118X0.0217*%
%ADD16R,0.0394X0.0315*%
%ADD17R,0.0590551X0.0590551*%
%ADD18R,0.0984252X0.165354*%
%ADD19R,0.0511811X0.0511811*%
%ADD20C,0.0866142*%
%ADD21C,0.0984252*%
%ADD22R,0.08X0.14*%
%ADD23R,0.14X0.08*%
%ADD24R,0.07X0.11*%
%ADD25R,0.035X0.055*%
%ADD26R,0.055X0.035*%
%ADD27O,0.0866142X0.0314961*%
%ADD28O,0.0314961X0.0866142*%
%ADD29R,0.100394X0.0275591*%
%ADD30R,0.106299X0.0866142*%
%ADD31C,0.0511811*%
%ADD32R,0.015748X0.106299*%
%ADD33R,0.106299X0.015748*%
%ADD34R,0.06X0.06*%
%ADD35C,0.06*%
%ADD36R,0.0669291X0.0590551*%
%ADD37R,0.0787402X0.0590551*%
%ADD38C,0.0433071*%
%ADD39C,0.16*%
G04 APERTURE END LIST*
G54D10*
G54D11*
X116908Y-66550D03*
G54D12*
X117508Y-65762D03*
X117508Y-67337D03*
G54D13*
X102520Y-76548D03*
G54D14*
X103307Y-77148D03*
X101732Y-77148D03*
G54D15*
X108578Y-68322D03*
X108775Y-68322D03*
X108972Y-68322D03*
X108972Y-68888D03*
X108775Y-68888D03*
X108578Y-68888D03*
G54D16*
X75853Y-74865D03*
X74987Y-75240D03*
X74987Y-74490D03*
G54D17*
X96104Y-74158D03*
X95120Y-74158D03*
X94136Y-74165D03*
X93152Y-74158D03*
X92167Y-74158D03*
X91183Y-74158D03*
X90199Y-74158D03*
X89215Y-74158D03*
X84656Y-74273D03*
X83672Y-74273D03*
X82687Y-74273D03*
X81703Y-74273D03*
X76993Y-74251D03*
X77977Y-74251D03*
X78962Y-74251D03*
X79946Y-74251D03*
G54D18*
X72622Y-61794D03*
X74197Y-61794D03*
G54D17*
X98730Y-61611D03*
X106860Y-62101D03*
X99690Y-61611D03*
X105915Y-62101D03*
X107800Y-61351D03*
X107815Y-60386D03*
X96495Y-73106D03*
X106305Y-74606D03*
X100655Y-61606D03*
X101620Y-61611D03*
G54D19*
X88170Y-73686D03*
G54D17*
X79225Y-68016D03*
G54D19*
X88080Y-72901D03*
G54D17*
X93250Y-72481D03*
X97995Y-75206D03*
X82725Y-72386D03*
X102580Y-61611D03*
X74790Y-72681D03*
X92650Y-71331D03*
G54D20*
X115922Y-62500D03*
G54D21*
X114922Y-63500D03*
X114922Y-61500D03*
X116922Y-61500D03*
X116922Y-63500D03*
G54D22*
X71210Y-71055D03*
X73210Y-71055D03*
X67640Y-71700D03*
X69640Y-71700D03*
G54D23*
X77520Y-66955D03*
X77520Y-64955D03*
G54D24*
X80970Y-77500D03*
X82370Y-77500D03*
G54D25*
X79825Y-69670D03*
X79075Y-69670D03*
G54D26*
X84530Y-61125D03*
X84530Y-61875D03*
X80890Y-69095D03*
X80890Y-68345D03*
G54D25*
X78075Y-63255D03*
X77325Y-63255D03*
X81545Y-60740D03*
X82295Y-60740D03*
X78090Y-64020D03*
X77340Y-64020D03*
X75990Y-63250D03*
X76740Y-63250D03*
X83785Y-64110D03*
X83035Y-64110D03*
X75990Y-64020D03*
X76740Y-64020D03*
X81540Y-64090D03*
X82290Y-64090D03*
X81540Y-63355D03*
X82290Y-63355D03*
G54D26*
X71220Y-75630D03*
X71220Y-76380D03*
G54D25*
X83785Y-63360D03*
X83035Y-63360D03*
X80525Y-61250D03*
X79775Y-61250D03*
X80855Y-61950D03*
X80105Y-61950D03*
X88995Y-76500D03*
X88245Y-76500D03*
G54D26*
X70200Y-69300D03*
X70200Y-70050D03*
X99255Y-75210D03*
X99255Y-74460D03*
X73590Y-73725D03*
X73590Y-74475D03*
X72810Y-73705D03*
X72810Y-74455D03*
G54D25*
X76125Y-75490D03*
X76875Y-75490D03*
G54D26*
X95545Y-66020D03*
X95545Y-65270D03*
G54D25*
X86655Y-77830D03*
X85905Y-77830D03*
X86675Y-77040D03*
X85925Y-77040D03*
G54D26*
X79095Y-76875D03*
X79095Y-76125D03*
G54D25*
X79950Y-77625D03*
X79200Y-77625D03*
G54D26*
X79995Y-76110D03*
X79995Y-76860D03*
G54D25*
X76485Y-69280D03*
X77235Y-69280D03*
G54D26*
X83450Y-61015D03*
X83450Y-61765D03*
G54D25*
X68465Y-77805D03*
X67715Y-77805D03*
X68475Y-76305D03*
X67725Y-76305D03*
G54D26*
X69555Y-76380D03*
X69555Y-75630D03*
X70350Y-76380D03*
X70350Y-75630D03*
G54D25*
X67715Y-77070D03*
X68465Y-77070D03*
X67710Y-75540D03*
X68460Y-75540D03*
G54D26*
X72075Y-75660D03*
X72075Y-76410D03*
G54D25*
X81555Y-64855D03*
X82305Y-64855D03*
X72945Y-72740D03*
X72195Y-72740D03*
X84775Y-75130D03*
X84025Y-75130D03*
X84765Y-75810D03*
X84015Y-75810D03*
G54D26*
X93440Y-61725D03*
X93440Y-62475D03*
X94270Y-61725D03*
X94270Y-62475D03*
G54D25*
X95715Y-63640D03*
X94965Y-63640D03*
G54D26*
X96235Y-66020D03*
X96235Y-65270D03*
G54D25*
X86660Y-73060D03*
X87410Y-73060D03*
G54D26*
X108310Y-63235D03*
X108310Y-63985D03*
X106180Y-63235D03*
X106180Y-63985D03*
G54D25*
X107615Y-63240D03*
X106865Y-63240D03*
X95645Y-60780D03*
X94895Y-60780D03*
X104325Y-62685D03*
X103575Y-62685D03*
G54D26*
X104290Y-61235D03*
X104290Y-60485D03*
X105390Y-61245D03*
X105390Y-60495D03*
G54D25*
X105125Y-61935D03*
X104375Y-61935D03*
G54D26*
X106140Y-61235D03*
X106140Y-60485D03*
G54D25*
X74545Y-67835D03*
X73795Y-67835D03*
G54D26*
X106875Y-61245D03*
X106875Y-60495D03*
G54D25*
X92830Y-67835D03*
X93580Y-67835D03*
X92830Y-68760D03*
X93580Y-68760D03*
X92810Y-69610D03*
X93560Y-69610D03*
X81530Y-61515D03*
X82280Y-61515D03*
X91725Y-76830D03*
X90975Y-76830D03*
G54D26*
X100125Y-74460D03*
X100125Y-75210D03*
G54D25*
X100770Y-75915D03*
X101520Y-75915D03*
X100785Y-75195D03*
X101535Y-75195D03*
X71145Y-65700D03*
X70395Y-65700D03*
X71775Y-63780D03*
X72525Y-63780D03*
G54D26*
X110860Y-66095D03*
X110860Y-66845D03*
X111460Y-68255D03*
X111460Y-69005D03*
X111580Y-66095D03*
X111580Y-66845D03*
G54D25*
X103205Y-75950D03*
X103955Y-75950D03*
X103215Y-74520D03*
X103965Y-74520D03*
G54D26*
X112350Y-66845D03*
X112350Y-66095D03*
X102530Y-74885D03*
X102530Y-75635D03*
G54D25*
X100760Y-62410D03*
X101510Y-62410D03*
X108895Y-67305D03*
X109645Y-67305D03*
X108130Y-69650D03*
X108880Y-69650D03*
G54D26*
X75285Y-60540D03*
X75285Y-61290D03*
X110160Y-68050D03*
X110160Y-68800D03*
X108120Y-66480D03*
X108120Y-67230D03*
G54D27*
X107232Y-71890D03*
X107232Y-71497D03*
X107232Y-71103D03*
X107232Y-70709D03*
X107232Y-70316D03*
X107232Y-69922D03*
X107232Y-69528D03*
X107232Y-69135D03*
X107232Y-68741D03*
X107232Y-68347D03*
X107232Y-67953D03*
X107232Y-67560D03*
X107232Y-67166D03*
X107232Y-66772D03*
X107232Y-66379D03*
X107232Y-65985D03*
X107232Y-65591D03*
G54D28*
X105539Y-63898D03*
X105145Y-63898D03*
X104752Y-63898D03*
X104358Y-63898D03*
X103964Y-63898D03*
X103571Y-63898D03*
X103177Y-63898D03*
X102783Y-63898D03*
X102390Y-63898D03*
X101996Y-63898D03*
X101602Y-63898D03*
X101208Y-63898D03*
X100815Y-63898D03*
X100421Y-63898D03*
X100027Y-63898D03*
X99634Y-63898D03*
X99240Y-63898D03*
G54D27*
X97547Y-65591D03*
X97547Y-65985D03*
X97547Y-66379D03*
X97547Y-66772D03*
X97547Y-67166D03*
X97547Y-67560D03*
X97547Y-67953D03*
X97547Y-68347D03*
X97547Y-68741D03*
X97547Y-69135D03*
X97547Y-69528D03*
X97547Y-69922D03*
X97547Y-70316D03*
X97547Y-70709D03*
X97547Y-71103D03*
X97547Y-71497D03*
X97547Y-71890D03*
G54D28*
X99240Y-73583D03*
X99634Y-73583D03*
X100027Y-73583D03*
X100421Y-73583D03*
X100815Y-73583D03*
X101208Y-73583D03*
X101602Y-73583D03*
X101996Y-73583D03*
X102390Y-73583D03*
X102783Y-73583D03*
X103177Y-73583D03*
X103571Y-73583D03*
X103964Y-73583D03*
X104358Y-73583D03*
X104752Y-73583D03*
X105145Y-73583D03*
X105539Y-73583D03*
G54D29*
X69404Y-67460D03*
X69404Y-67775D03*
X69404Y-68090D03*
X69404Y-68404D03*
X69404Y-68719D03*
G54D30*
X69217Y-66338D03*
X69217Y-69841D03*
X67073Y-69841D03*
X67073Y-66338D03*
G54D31*
X68203Y-68956D03*
X68203Y-67223D03*
G54D32*
X84971Y-71708D03*
X85128Y-71708D03*
X85286Y-71708D03*
X85443Y-71708D03*
X85600Y-71708D03*
X85758Y-71708D03*
X85915Y-71708D03*
X86073Y-71708D03*
X86230Y-71708D03*
X86388Y-71708D03*
X86545Y-71708D03*
X86703Y-71708D03*
X86860Y-71708D03*
X87018Y-71708D03*
X87175Y-71708D03*
X87333Y-71708D03*
X87490Y-71708D03*
X87648Y-71708D03*
X87805Y-71708D03*
X87963Y-71708D03*
X88120Y-71708D03*
X88278Y-71708D03*
X88435Y-71708D03*
X88593Y-71708D03*
X88750Y-71708D03*
X88908Y-71708D03*
X89065Y-71708D03*
X89223Y-71708D03*
X89380Y-71708D03*
X89537Y-71708D03*
X89695Y-71708D03*
X89852Y-71708D03*
G54D33*
X90660Y-70900D03*
X90660Y-70743D03*
X90660Y-70585D03*
X90660Y-70428D03*
X90660Y-70271D03*
X90660Y-70113D03*
X90660Y-69956D03*
X90660Y-69798D03*
X90660Y-69641D03*
X90660Y-69483D03*
X90660Y-69326D03*
X90660Y-69168D03*
X90660Y-69011D03*
X90660Y-68853D03*
X90660Y-68696D03*
X90660Y-68538D03*
X90660Y-68381D03*
X90660Y-68223D03*
X90660Y-68066D03*
X90660Y-67908D03*
X90660Y-67751D03*
X90660Y-67593D03*
X90660Y-67436D03*
X90660Y-67278D03*
X90660Y-67121D03*
X90660Y-66963D03*
X90660Y-66806D03*
X90660Y-66648D03*
X90660Y-66491D03*
X90660Y-66334D03*
X90660Y-66176D03*
X90660Y-66019D03*
G54D32*
X89852Y-65211D03*
X89695Y-65211D03*
X89537Y-65211D03*
X89380Y-65211D03*
X89223Y-65211D03*
X89065Y-65211D03*
X88908Y-65211D03*
X88750Y-65211D03*
X88593Y-65211D03*
X88435Y-65211D03*
X88278Y-65211D03*
X88120Y-65211D03*
X87963Y-65211D03*
X87805Y-65211D03*
X87648Y-65211D03*
X87490Y-65211D03*
X87333Y-65211D03*
X87175Y-65211D03*
X87018Y-65211D03*
X86860Y-65211D03*
X86703Y-65211D03*
X86545Y-65211D03*
X86388Y-65211D03*
X86230Y-65211D03*
X86073Y-65211D03*
X85915Y-65211D03*
X85758Y-65211D03*
X85600Y-65211D03*
X85443Y-65211D03*
X85286Y-65211D03*
X85128Y-65211D03*
X84971Y-65211D03*
G54D33*
X84163Y-66019D03*
X84163Y-66176D03*
X84163Y-66334D03*
X84163Y-66491D03*
X84163Y-66648D03*
X84163Y-66806D03*
X84163Y-66963D03*
X84163Y-67121D03*
X84163Y-67278D03*
X84163Y-67436D03*
X84163Y-67593D03*
X84163Y-67751D03*
X84163Y-67908D03*
X84163Y-68066D03*
X84163Y-68223D03*
X84163Y-68381D03*
X84163Y-68538D03*
X84163Y-68696D03*
X84163Y-68853D03*
X84163Y-69011D03*
X84163Y-69168D03*
X84163Y-69326D03*
X84163Y-69483D03*
X84163Y-69641D03*
X84163Y-69798D03*
X84163Y-69956D03*
X84163Y-70113D03*
X84163Y-70271D03*
X84163Y-70428D03*
X84163Y-70585D03*
X84163Y-70743D03*
X84163Y-70900D03*
G54D34*
X68540Y-73875D03*
G54D35*
X67540Y-73875D03*
G54D34*
X70740Y-73390D03*
G54D35*
X70740Y-74390D03*
G54D36*
X71004Y-64959D03*
G54D37*
X67520Y-64959D03*
X67520Y-61730D03*
G54D36*
X71004Y-61730D03*
G54D38*
X69488Y-62045D03*
X69488Y-64644D03*
G54D39*
X77370Y-61215D03*
G54D24*
X74900Y-77440D03*
X73500Y-77440D03*
G54D39*
X95685Y-70965D03*
X111780Y-62240D03*
X108675Y-75705D03*
M02*
